TiroDevaSanskrit-Italic.ufo
<glyph name="dA" format="2">
  <advance width="787"/>
  <unicode hex="0905"/>
  <outline>
    <contour>
      <point x="297" y="71" type="curve" smooth="yes"/>
      <point x="389" y="71"/>
      <point x="474" y="125"/>
      <point x="474" y="233" type="curve" smooth="yes"/>
      <point x="474" y="257"/>
      <point x="472" y="271"/>
      <point x="466" y="285" type="curve"/>
      <point x="434" y="360" type="line"/>
      <point x="416" y="387"/>
      <point x="395" y="413"/>
      <point x="330" y="413" type="curve" smooth="yes"/>
      <point x="285" y="413"/>
      <point x="236" y="394"/>
      <point x="196" y="374" type="curve"/>
      <point x="225" y="301" type="line"/>
      <point x="259" y="316"/>
      <point x="306" y="335"/>
      <point x="343" y="335" type="curve" smooth="yes"/>
      <point x="382" y="335"/>
      <point x="412" y="313"/>
      <point x="412" y="270" type="curve" smooth="yes"/>
      <point x="412" y="198"/>
      <point x="342" y="144"/>
      <point x="266" y="144" type="curve" smooth="yes"/>
      <point x="154" y="144"/>
      <point x="119" y="236"/>
      <point x="85" y="331" type="curve"/>
      <point x="47" y="311" type="line"/>
      <point x="90" y="179"/>
      <point x="152" y="71"/>
    </contour>
    <contour>
      <point x="395" y="352" type="line"/>
      <point x="453" y="386"/>
      <point x="469" y="427"/>
      <point x="469" y="484" type="curve" smooth="yes"/>
      <point x="469" y="536"/>
      <point x="432" y="633"/>
      <point x="319" y="633" type="curve" smooth="yes"/>
      <point x="274" y="633"/>
      <point x="224" y="617"/>
      <point x="159" y="583" type="curve"/>
      <point x="188" y="508" type="line"/>
      <point x="250" y="542"/>
      <point x="315" y="561"/>
      <point x="353" y="561" type="curve" smooth="yes"/>
      <point x="394" y="561"/>
      <point x="412" y="540"/>
      <point x="412" y="509" type="curve" smooth="yes"/>
      <point x="412" y="471"/>
      <point x="383" y="429"/>
      <point x="316" y="403" type="curve"/>
    </contour>
    <contour>
      <point x="572" y="238" type="curve" smooth="yes"/>
      <point x="591" y="238"/>
      <point x="607" y="240"/>
      <point x="624" y="250" type="curve"/>
      <point x="646" y="359" type="line"/>
      <point x="619" y="330"/>
      <point x="571" y="311"/>
      <point x="530" y="311" type="curve" smooth="yes"/>
      <point x="471" y="311"/>
      <point x="451" y="335"/>
      <point x="434" y="360" type="curve"/>
      <point x="455" y="262" type="line"/>
      <point x="475" y="271" type="line"/>
      <point x="499" y="254"/>
      <point x="534" y="238"/>
    </contour>
    <contour>
      <point x="649" y="-10" type="line"/>
      <point x="761" y="580" type="line"/>
      <point x="677" y="580" type="line"/>
      <point x="571" y="52" type="line"/>
      <point x="639" y="-10" type="line"/>
    </contour>
    <contour>
      <point x="871" y="545" type="line"/>
      <point x="873" y="555" type="line"/>
      <point x="842" y="620" type="line"/>
      <point x="534" y="620" type="line"/>
      <point x="532" y="610" type="line"/>
      <point x="563" y="545" type="line"/>
    </contour>
  </outline>
</glyph>
<glyph name="dU" format="2">
  <advance width="565"/>
  <unicode hex="0909"/>
  <outline>
    <contour>
      <point x="374" y="316" type="line"/>
      <point x="417" y="316"/>
      <point x="442" y="278"/>
      <point x="442" y="227" type="curve" smooth="yes"/>
      <point x="442" y="139"/>
      <point x="372" y="95"/>
      <point x="292" y="95" type="curve" smooth="yes"/>
      <point x="159" y="95"/>
      <point x="112" y="221"/>
      <point x="81" y="317" type="curve"/>
      <point x="43" y="297" type="line"/>
      <point x="87" y="154"/>
      <point x="154" y="21"/>
      <point x="310" y="21" type="curve" smooth="yes"/>
      <point x="439" y="21"/>
      <point x="510" y="98"/>
      <point x="510" y="189" type="curve" smooth="yes"/>
      <point x="510" y="263"/>
      <point x="479" y="335"/>
      <point x="407" y="366" type="curve"/>
    </contour>
    <contour>
      <point x="414" y="565" type="line"/>
      <point x="422" y="538"/>
      <point x="427" y="512"/>
      <point x="427" y="492" type="curve" smooth="yes"/>
      <point x="427" y="425"/>
      <point x="396" y="392"/>
      <point x="206" y="362" type="curve"/>
      <point x="205" y="356" type="line"/>
      <point x="233" y="286" type="line"/>
      <point x="306" y="294"/>
      <point x="344" y="316"/>
      <point x="374" y="316" type="curve"/>
      <point x="443" y="343"/>
      <point x="492" y="396"/>
      <point x="492" y="465" type="curve" smooth="yes"/>
      <point x="492" y="502"/>
      <point x="479" y="536"/>
      <point x="466" y="566" type="curve"/>
    </contour>
    <contour>
      <point x="650" y="545" type="line"/>
      <point x="652" y="555" type="line"/>
      <point x="621" y="620" type="line"/>
      <point x="34" y="620" type="line"/>
      <point x="32" y="610" type="line"/>
      <point x="63" y="545" type="line"/>
    </contour>
  </outline>
</glyph>
<glyph name="dVocalicR" format="2">
  <advance width="851"/>
  <unicode hex="090B"/>
  <outline>
    <contour>
      <point x="668" y="-28" type="curve" smooth="yes"/>
      <point x="725" y="-28"/>
      <point x="778" y="-5"/>
      <point x="801" y="13" type="curve"/>
      <point x="761" y="81" type="line"/>
      <point x="712" y="52"/>
      <point x="668" y="40"/>
      <point x="635" y="40" type="curve" smooth="yes"/>
      <point x="588" y="40"/>
      <point x="576" y="59"/>
      <point x="576" y="78" type="curve" smooth="yes"/>
      <point x="576" y="112"/>
      <point x="610" y="148"/>
      <point x="767" y="179" type="curve"/>
      <point x="770" y="184" type="line"/>
      <point x="757" y="245"/>
      <point x="745" y="289"/>
      <point x="724" y="338" type="curve"/>
      <point x="676" y="318" type="line"/>
      <point x="686" y="286"/>
      <point x="693" y="263"/>
      <point x="698" y="242" type="curve"/>
      <point x="572" y="211"/>
      <point x="517" y="162"/>
      <point x="517" y="100" type="curve" smooth="yes"/>
      <point x="517" y="49"/>
      <point x="558" y="-28"/>
    </contour>
    <contour>
      <point x="378" y="239" type="line"/>
      <point x="405" y="224" type="line"/>
      <point x="428" y="349" type="line"/>
      <point x="62" y="138" type="line"/>
      <point x="113" y="76" type="line"/>
    </contour>
    <contour>
      <point x="437" y="319" type="line"/>
      <point x="312" y="437"/>
      <point x="292" y="470"/>
      <point x="230" y="470" type="curve" smooth="yes"/>
      <point x="191" y="470"/>
      <point x="131" y="442"/>
      <point x="67" y="417" type="curve"/>
      <point x="67" y="412" type="line"/>
      <point x="108" y="339" type="line"/>
      <point x="158" y="362"/>
      <point x="216" y="397"/>
      <point x="249" y="397" type="curve" smooth="yes"/>
      <point x="289" y="397"/>
      <point x="323" y="365"/>
      <point x="415" y="285" type="curve"/>
    </contour>
    <contour>
      <point x="417" y="-10" type="line"/>
      <point x="530" y="581" type="line"/>
      <point x="446" y="581" type="line"/>
      <point x="340" y="52" type="line"/>
      <point x="407" y="-10" type="line"/>
    </contour>
    <contour>
      <point x="936" y="545" type="line"/>
      <point x="938" y="555" type="line"/>
      <point x="907" y="620" type="line"/>
      <point x="34" y="620" type="line"/>
      <point x="32" y="610" type="line"/>
      <point x="63" y="545" type="line"/>
    </contour>
    <contour>
      <point x="555" y="278" type="curve" smooth="yes"/>
      <point x="636" y="278"/>
      <point x="776" y="322"/>
      <point x="776" y="384" type="curve" smooth="yes"/>
      <point x="776" y="434"/>
      <point x="716" y="477"/>
      <point x="677" y="477" type="curve" smooth="yes"/>
      <point x="651" y="477"/>
      <point x="635" y="466"/>
      <point x="635" y="432" type="curve" smooth="yes"/>
      <point x="635" y="416"/>
      <point x="637" y="401"/>
      <point x="645" y="380" type="curve"/>
      <point x="620" y="357"/>
      <point x="569" y="331"/>
      <point x="507" y="331" type="curve" smooth="yes"/>
      <point x="464" y="331" type="line"/>
      <point x="456" y="289" type="line"/>
      <point x="495" y="281"/>
      <point x="527" y="278"/>
    </contour>
  </outline>
</glyph>
<glyph name="dKa" format="2">
  <advance width="763"/>
  <unicode hex="0915"/>
  <outline>
    <contour>
      <point x="610" y="68" type="line"/>
      <point x="683" y="142"/>
      <point x="719" y="192"/>
      <point x="719" y="270" type="curve" smooth="yes"/>
      <point x="719" y="366"/>
      <point x="641" y="427"/>
      <point x="597" y="427" type="curve" smooth="yes"/>
      <point x="552" y="427"/>
      <point x="480" y="374"/>
      <point x="413" y="328" type="curve" smooth="yes"/>
      <point x="334" y="275"/>
      <point x="236" y="202"/>
      <point x="178" y="202" type="curve" smooth="yes"/>
      <point x="146" y="202"/>
      <point x="120" y="221"/>
      <point x="120" y="261" type="curve" smooth="yes"/>
      <point x="120" y="336"/>
      <point x="190" y="378"/>
      <point x="254" y="378" type="curve" smooth="yes"/>
      <point x="311" y="378"/>
      <point x="358" y="342"/>
      <point x="385" y="301" type="curve"/>
      <point x="395" y="351" type="line"/>
      <point x="367" y="399"/>
      <point x="306" y="455"/>
      <point x="232" y="455" type="curve" smooth="yes"/>
      <point x="139" y="455"/>
      <point x="55" y="393"/>
      <point x="55" y="303" type="curve" smooth="yes"/>
      <point x="55" y="218"/>
      <point x="119" y="138"/>
      <point x="212" y="138" type="curve" smooth="yes"/>
      <point x="263" y="138"/>
      <point x="287" y="155"/>
      <point x="411" y="234" type="curve" smooth="yes"/>
      <point x="447" y="257"/>
      <point x="564" y="350"/>
      <point x="615" y="350" type="curve" smooth="yes"/>
      <point x="644" y="350"/>
      <point x="662" y="332"/>
      <point x="662" y="305" type="curve" smooth="yes"/>
      <point x="662" y="253"/>
      <point x="608" y="190"/>
      <point x="541" y="130" type="curve"/>
      <point x="602" y="68" type="line"/>
    </contour>
    <contour>
      <point x="403" y="-10" type="line"/>
      <point x="515" y="581" type="line"/>
      <point x="433" y="581" type="line"/>
      <point x="326" y="54" type="line"/>
      <point x="393" y="-10" type="line"/>
    </contour>
    <contour>
      <point x="848" y="545" type="line"/>
      <point x="850" y="555" type="line"/>
      <point x="819" y="620" type="line"/>
      <point x="34" y="620" type="line"/>
      <point x="32" y="610" type="line"/>
      <point x="63" y="545" type="line"/>
    </contour>
  </outline>
</glyph>
<glyph name="dKha" format="2">
  <advance width="815"/>
  <unicode hex="0916"/>
  <outline>
    <contour>
      <point x="270" y="-20" type="line"/>
      <point x="324" y="18" type="line"/>
      <point x="148" y="246" type="line"/>
      <point x="147" y="235" type="line"/>
      <point x="228" y="249"/>
      <point x="280" y="308"/>
      <point x="311" y="471" type="curve" smooth="yes"/>
      <point x="314" y="487"/>
      <point x="324" y="544"/>
      <point x="324" y="575" type="curve"/>
      <point x="243" y="575" type="line"/>
      <point x="239" y="543"/>
      <point x="237" y="523"/>
      <point x="229" y="482" type="curve" smooth="yes"/>
      <point x="222" y="446"/>
      <point x="210" y="391"/>
      <point x="196" y="358" type="curve"/>
      <point x="209" y="367" type="line"/>
      <point x="186" y="370"/>
      <point x="143" y="374"/>
      <point x="118" y="374" type="curve" smooth="yes"/>
      <point x="79" y="374"/>
      <point x="63" y="358"/>
      <point x="63" y="333" type="curve" smooth="yes"/>
      <point x="63" y="309"/>
      <point x="77" y="275"/>
      <point x="109" y="223" type="curve" smooth="yes"/>
      <point x="260" y="-20" type="line"/>
    </contour>
    <contour>
      <point x="489" y="155" type="curve" smooth="yes"/>
      <point x="540" y="155"/>
      <point x="598" y="179"/>
      <point x="657" y="228" type="curve"/>
      <point x="677" y="334" type="line"/>
      <point x="572" y="242"/>
      <point x="512" y="217"/>
      <point x="470" y="217" type="curve" smooth="yes"/>
      <point x="435" y="217"/>
      <point x="405" y="235"/>
      <point x="405" y="282" type="curve" smooth="yes"/>
      <point x="405" y="347"/>
      <point x="464" y="389"/>
      <point x="525" y="389" type="curve" smooth="yes"/>
      <point x="585" y="389"/>
      <point x="639" y="357"/>
      <point x="668" y="303" type="curve"/>
      <point x="678" y="354" type="line"/>
      <point x="647" y="415"/>
      <point x="580" y="463"/>
      <point x="504" y="463" type="curve" smooth="yes"/>
      <point x="421" y="463"/>
      <point x="340" y="403"/>
      <point x="340" y="311" type="curve" smooth="yes"/>
      <point x="340" y="224"/>
      <point x="404" y="155"/>
    </contour>
    <contour>
      <point x="677" y="-10" type="line"/>
      <point x="794" y="601" type="line"/>
      <point x="710" y="601" type="line"/>
      <point x="600" y="52" type="line"/>
      <point x="667" y="-10" type="line"/>
    </contour>
    <contour>
      <point x="900" y="545" type="line"/>
      <point x="902" y="555" type="line"/>
      <point x="871" y="620" type="line"/>
      <point x="34" y="620" type="line"/>
      <point x="32" y="610" type="line"/>
      <point x="63" y="545" type="line"/>
    </contour>
  </outline>
</glyph>
<glyph name="dGha" format="2">
  <advance width="624"/>
  <unicode hex="0918"/>
  <outline>
    <contour>
      <point x="309" y="133" type="curve" smooth="yes"/>
      <point x="355" y="133"/>
      <point x="408" y="148"/>
      <point x="467" y="189" type="curve"/>
      <point x="477" y="289" type="line"/>
      <point x="380" y="221"/>
      <point x="321" y="198"/>
      <point x="279" y="198" type="curve" smooth="yes"/>
      <point x="236" y="198"/>
      <point x="209" y="223"/>
      <point x="209" y="255" type="curve" smooth="yes"/>
      <point x="209" y="302"/>
      <point x="257" y="344"/>
      <point x="382" y="346" type="curve"/>
      <point x="357" y="433" type="line"/>
      <point x="254" y="426"/>
      <point x="143" y="387"/>
      <point x="143" y="295" type="curve" smooth="yes"/>
      <point x="143" y="227"/>
      <point x="210" y="133"/>
    </contour>
    <contour>
      <point x="231" y="388" type="line"/>
      <point x="199" y="410"/>
      <point x="188" y="445"/>
      <point x="188" y="468" type="curve" smooth="yes"/>
      <point x="188" y="514"/>
      <point x="231" y="540"/>
      <point x="289" y="549" type="curve"/>
      <point x="157" y="572" type="line"/>
      <point x="117" y="542"/>
      <point x="103" y="522"/>
      <point x="103" y="489" type="curve" smooth="yes"/>
      <point x="103" y="436"/>
      <point x="149" y="393"/>
      <point x="191" y="359" type="curve"/>
    </contour>
    <contour>
      <point x="486" y="-10" type="line"/>
      <point x="601" y="591" type="line"/>
      <point x="517" y="591" type="line"/>
      <point x="409" y="52" type="line"/>
      <point x="476" y="-10" type="line"/>
    </contour>
    <contour>
      <point x="709" y="545" type="line"/>
      <point x="711" y="555" type="line"/>
      <point x="680" y="620" type="line"/>
      <point x="34" y="620" type="line"/>
      <point x="32" y="610" type="line"/>
      <point x="63" y="545" type="line"/>
    </contour>
  </outline>
</glyph>
<glyph name="dDdha" format="2">
  <advance width="558"/>
  <unicode hex="0922"/>
  <outline>
    <contour>
      <point x="324" y="17" type="curve" smooth="yes"/>
      <point x="428" y="17"/>
      <point x="500" y="75"/>
      <point x="500" y="164" type="curve" smooth="yes"/>
      <point x="500" y="244"/>
      <point x="434" y="306"/>
      <point x="358" y="306" type="curve" smooth="yes"/>
      <point x="276" y="306"/>
      <point x="222" y="257"/>
      <point x="222" y="168" type="curve" smooth="yes"/>
      <point x="222" y="132"/>
      <point x="231" y="94"/>
      <point x="240" y="64" type="curve"/>
      <point x="279" y="58" type="line"/>
      <point x="274" y="80"/>
      <point x="272" y="94"/>
      <point x="272" y="108" type="curve" smooth="yes"/>
      <point x="272" y="173"/>
      <point x="319" y="239"/>
      <point x="386" y="239" type="curve" smooth="yes"/>
      <point x="423" y="239"/>
      <point x="448" y="220"/>
      <point x="448" y="187" type="curve" smooth="yes"/>
      <point x="448" y="143"/>
      <point x="394" y="92"/>
      <point x="298" y="92" type="curve" smooth="yes"/>
      <point x="199" y="92"/>
      <point x="123" y="133"/>
      <point x="123" y="236" type="curve" smooth="yes"/>
      <point x="123" y="328"/>
      <point x="191" y="378"/>
      <point x="292" y="378" type="curve" smooth="yes"/>
      <point x="466" y="378" type="line"/>
      <point x="479" y="386" type="line"/>
      <point x="490" y="438"/>
      <point x="502" y="508"/>
      <point x="514" y="575" type="curve"/>
      <point x="433" y="575" type="line"/>
      <point x="409" y="453" type="line"/>
      <point x="284" y="453" type="line" smooth="yes"/>
      <point x="152" y="453"/>
      <point x="58" y="410"/>
      <point x="58" y="282" type="curve" smooth="yes"/>
      <point x="58" y="115"/>
      <point x="182" y="17"/>
    </contour>
    <contour>
      <point x="643" y="545" type="line"/>
      <point x="645" y="555" type="line"/>
      <point x="614" y="620" type="line"/>
      <point x="34" y="620" type="line"/>
      <point x="32" y="610" type="line"/>
      <point x="63" y="545" type="line"/>
    </contour>
  </outline>
</glyph>
<glyph name="dTha" format="2">
  <advance width="652"/>
  <unicode hex="0925"/>
  <outline>
    <contour>
      <point x="317" y="133" type="curve" smooth="yes"/>
      <point x="371" y="133"/>
      <point x="426" y="152"/>
      <point x="493" y="203" type="curve"/>
      <point x="517" y="326" type="line"/>
      <point x="457" y="260"/>
      <point x="361" y="197"/>
      <point x="293" y="197" type="curve" smooth="yes"/>
      <point x="232" y="197"/>
      <point x="184" y="231"/>
      <point x="196" y="291" type="curve"/>
      <point x="328" y="330"/>
      <point x="406" y="376"/>
      <point x="406" y="466" type="curve" smooth="yes"/>
      <point x="406" y="545"/>
      <point x="348" y="633"/>
      <point x="246" y="633" type="curve" smooth="yes"/>
      <point x="159" y="633"/>
      <point x="104" y="582"/>
      <point x="104" y="514" type="curve" smooth="yes"/>
      <point x="104" y="469"/>
      <point x="134" y="420"/>
      <point x="196" y="420" type="curve" smooth="yes"/>
      <point x="202" y="420"/>
      <point x="209" y="420"/>
      <point x="214" y="421" type="curve"/>
      <point x="216" y="432" type="line"/>
      <point x="196" y="443"/>
      <point x="178" y="458"/>
      <point x="178" y="482" type="curve" smooth="yes"/>
      <point x="178" y="530"/>
      <point x="222" y="562"/>
      <point x="277" y="562" type="curve" smooth="yes"/>
      <point x="310" y="562"/>
      <point x="344" y="548"/>
      <point x="344" y="503" type="curve" smooth="yes"/>
      <point x="344" y="432"/>
      <point x="259" y="397"/>
      <point x="118" y="358" type="curve"/>
      <point x="120" y="235"/>
      <point x="196" y="133"/>
    </contour>
    <contour>
      <point x="514" y="-10" type="line"/>
      <point x="628" y="583" type="line"/>
      <point x="544" y="583" type="line"/>
      <point x="436" y="52" type="line"/>
      <point x="504" y="-10" type="line"/>
    </contour>
    <contour>
      <point x="737" y="545" type="line"/>
      <point x="739" y="555" type="line"/>
      <point x="708" y="620" type="line"/>
      <point x="435" y="620" type="line"/>
      <point x="433" y="610" type="line"/>
      <point x="464" y="545" type="line"/>
    </contour>
  </outline>
</glyph>
<glyph name="dDa" format="2">
  <advance width="527"/>
  <unicode hex="0926"/>
  <outline>
    <contour>
      <point x="419" y="-98" type="line"/>
      <point x="472" y="-68" type="line"/>
      <point x="362" y="147" type="line"/>
      <point x="334" y="148" type="line"/>
      <point x="324" y="137"/>
      <point x="283" y="124"/>
      <point x="249" y="124" type="curve" smooth="yes"/>
      <point x="185" y="124"/>
      <point x="131" y="169"/>
      <point x="131" y="249" type="curve" smooth="yes"/>
      <point x="131" y="339"/>
      <point x="198" y="374"/>
      <point x="293" y="374" type="curve" smooth="yes"/>
      <point x="435" y="374" type="line"/>
      <point x="449" y="382" type="line"/>
      <point x="459" y="434"/>
      <point x="474" y="518"/>
      <point x="485" y="580" type="curve"/>
      <point x="404" y="580" type="line"/>
      <point x="379" y="449" type="line"/>
      <point x="288" y="449" type="line" smooth="yes"/>
      <point x="154" y="449"/>
      <point x="64" y="412"/>
      <point x="64" y="288" type="curve" smooth="yes"/>
      <point x="64" y="161"/>
      <point x="169" y="55"/>
      <point x="302" y="55" type="curve" smooth="yes"/>
      <point x="391" y="55"/>
      <point x="455" y="108"/>
      <point x="455" y="161" type="curve" smooth="yes"/>
      <point x="455" y="202"/>
      <point x="385" y="250"/>
      <point x="342" y="250" type="curve" smooth="yes"/>
      <point x="322" y="250"/>
      <point x="310" y="237"/>
      <point x="310" y="210" type="curve" smooth="yes"/>
      <point x="310" y="178"/>
      <point x="324" y="132"/>
      <point x="343" y="82" type="curve" smooth="yes"/>
      <point x="411" y="-98" type="line"/>
    </contour>
    <contour>
      <point x="612" y="545" type="line"/>
      <point x="614" y="555" type="line"/>
      <point x="583" y="620" type="line"/>
      <point x="34" y="620" type="line"/>
      <point x="32" y="610" type="line"/>
      <point x="63" y="545" type="line"/>
    </contour>
  </outline>
</glyph>
<glyph name="dNa" format="2">
  <advance width="570"/>
  <unicode hex="0928"/>
  <outline>
    <contour>
      <point x="655" y="545" type="line"/>
      <point x="657" y="555" type="line"/>
      <point x="626" y="620" type="line"/>
      <point x="34" y="620" type="line"/>
      <point x="32" y="610" type="line"/>
      <point x="63" y="545" type="line"/>
    </contour>
    <contour>
      <point x="355" y="52" type="line"/>
      <point x="422" y="-10" type="line"/>
      <point x="432" y="-10" type="line"/>
      <point x="545" y="578" type="line"/>
      <point x="461" y="578" type="line"/>
    </contour>
    <contour>
      <point x="438" y="365" type="line"/>
      <point x="319" y="369"/>
      <point x="195" y="371"/>
      <point x="137" y="371" type="curve" smooth="yes"/>
      <point x="96" y="371"/>
      <point x="62" y="366"/>
      <point x="62" y="328" type="curve" smooth="yes"/>
      <point x="62" y="268"/>
      <point x="125" y="189"/>
      <point x="172" y="189" type="curve" smooth="yes"/>
      <point x="203" y="189"/>
      <point x="212" y="216"/>
      <point x="227" y="293" type="curve"/>
      <point x="419" y="293" type="line"/>
    </contour>
  </outline>
</glyph>
<glyph name="dLa" format="2">
  <advance width="665"/>
  <unicode hex="0932"/>
  <outline>
    <contour>
      <point x="213" y="-10" type="line"/>
      <point x="258" y="22" type="line"/>
      <point x="159" y="112"/>
      <point x="127" y="174"/>
      <point x="127" y="241" type="curve" smooth="yes"/>
      <point x="127" y="323"/>
      <point x="184" y="374"/>
      <point x="243" y="374" type="curve" smooth="yes"/>
      <point x="277" y="374"/>
      <point x="312" y="356"/>
      <point x="332" y="323" type="curve"/>
      <point x="357" y="351" type="line"/>
      <point x="328" y="404"/>
      <point x="278" y="448"/>
      <point x="213" y="448" type="curve" smooth="yes"/>
      <point x="109" y="448"/>
      <point x="55" y="366"/>
      <point x="55" y="280" type="curve" smooth="yes"/>
      <point x="55" y="178"/>
      <point x="116" y="92"/>
      <point x="203" y="-10" type="curve"/>
    </contour>
    <contour>
      <point x="476" y="63" type="line"/>
      <point x="568" y="140"/>
      <point x="626" y="206"/>
      <point x="626" y="283" type="curve" smooth="yes"/>
      <point x="626" y="343"/>
      <point x="593" y="437"/>
      <point x="491" y="437" type="curve" smooth="yes"/>
      <point x="405" y="437"/>
      <point x="335" y="368"/>
      <point x="271" y="265" type="curve"/>
      <point x="340" y="216" type="line"/>
      <point x="405" y="323"/>
      <point x="464" y="371"/>
      <point x="517" y="371" type="curve" smooth="yes"/>
      <point x="552" y="371"/>
      <point x="570" y="351"/>
      <point x="570" y="320" type="curve" smooth="yes"/>
      <point x="570" y="265"/>
      <point x="517" y="197"/>
      <point x="408" y="122" type="curve"/>
      <point x="468" y="63" type="line"/>
    </contour>
    <contour>
      <point x="750" y="545" type="line"/>
      <point x="752" y="555" type="line"/>
      <point x="721" y="620" type="line"/>
      <point x="34" y="620" type="line"/>
      <point x="32" y="610" type="line"/>
      <point x="63" y="545" type="line"/>
    </contour>
    <contour>
      <point x="542" y="420" type="line"/>
      <point x="570" y="571" type="line"/>
      <point x="489" y="571" type="line"/>
      <point x="461" y="416" type="line"/>
    </contour>
  </outline>
</glyph>
<glyph name="dSha" format="2">
  <advance width="679"/>
  <unicode hex="0936"/>
  <outline>
    <contour>
      <point x="169" y="166" type="curve" smooth="yes"/>
      <point x="251" y="166"/>
      <point x="406" y="219"/>
      <point x="406" y="348" type="curve" smooth="yes"/>
      <point x="406" y="417"/>
      <point x="354" y="505"/>
      <point x="257" y="505" type="curve" smooth="yes"/>
      <point x="217" y="505"/>
      <point x="155" y="492"/>
      <point x="83" y="453" type="curve"/>
      <point x="114" y="376" type="line"/>
      <point x="183" y="415"/>
      <point x="236" y="436"/>
      <point x="277" y="436" type="curve" smooth="yes"/>
      <point x="322" y="436"/>
      <point x="349" y="410"/>
      <point x="349" y="376" type="curve" smooth="yes"/>
      <point x="349" y="310"/>
      <point x="251" y="258"/>
      <point x="188" y="248" type="curve"/>
      <point x="161" y="271"/>
      <point x="125" y="288"/>
      <point x="88" y="288" type="curve" smooth="yes"/>
      <point x="62" y="288"/>
      <point x="49" y="278"/>
      <point x="49" y="255" type="curve" smooth="yes"/>
      <point x="49" y="225"/>
      <point x="86" y="166"/>
    </contour>
    <contour>
      <point x="309" y="472" type="line"/>
      <point x="329" y="580" type="line"/>
      <point x="252" y="580" type="line"/>
      <point x="231" y="472" type="line"/>
    </contour>
    <contour>
      <point x="541" y="-15" type="line"/>
      <point x="654" y="581" type="line"/>
      <point x="570" y="581" type="line"/>
      <point x="463" y="47" type="line"/>
      <point x="531" y="-15" type="line"/>
    </contour>
    <contour>
      <point x="764" y="545" type="line"/>
      <point x="766" y="555" type="line"/>
      <point x="735" y="620" type="line"/>
      <point x="34" y="620" type="line"/>
      <point x="32" y="610" type="line"/>
      <point x="63" y="545" type="line"/>
    </contour>
    <contour>
      <point x="162" y="205" type="line"/>
      <point x="298" y="-21" type="line"/>
      <point x="308" y="-21" type="line"/>
      <point x="364" y="18" type="line"/>
      <point x="210" y="216" type="line"/>
    </contour>
  </outline>
</glyph>
<glyph name="dSsa" format="2">
  <advance width="572"/>
  <unicode hex="0937"/>
  <outline>
    <contour>
      <point x="271" y="155" type="curve" smooth="yes"/>
      <point x="310" y="155"/>
      <point x="355" y="167"/>
      <point x="401" y="198" type="curve"/>
      <point x="424" y="306" type="line"/>
      <point x="352" y="254"/>
      <point x="290" y="220"/>
      <point x="239" y="220" type="curve" smooth="yes"/>
      <point x="203" y="220"/>
      <point x="171" y="241"/>
      <point x="171" y="289" type="curve" smooth="yes"/>
      <point x="171" y="296"/>
      <point x="172" y="306"/>
      <point x="173" y="312" type="curve" smooth="yes"/>
      <point x="220" y="572" type="line"/>
      <point x="137" y="572" type="line"/>
      <point x="125" y="512"/>
      <point x="110" y="439"/>
      <point x="100" y="388" type="curve" smooth="yes"/>
      <point x="95" y="364"/>
      <point x="90" y="334"/>
      <point x="90" y="325" type="curve" smooth="yes"/>
      <point x="90" y="256"/>
      <point x="173" y="155"/>
    </contour>
    <contour>
      <point x="445" y="275" type="line"/>
      <point x="199" y="577" type="line"/>
      <point x="175" y="534" type="line"/>
      <point x="427" y="229" type="line"/>
    </contour>
    <contour>
      <point x="434" y="-10" type="line"/>
      <point x="547" y="581" type="line"/>
      <point x="463" y="581" type="line"/>
      <point x="357" y="52" type="line"/>
      <point x="424" y="-10" type="line"/>
    </contour>
    <contour>
      <point x="657" y="545" type="line"/>
      <point x="659" y="555" type="line"/>
      <point x="628" y="620" type="line"/>
      <point x="34" y="620" type="line"/>
      <point x="32" y="610" type="line"/>
      <point x="63" y="545" type="line"/>
    </contour>
  </outline>
</glyph>
<glyph name="dAvagraha" format="2">
  <advance width="496"/>
  <unicode hex="093D"/>
  <outline>
    <contour>
      <point x="498" y="545" type="line"/>
      <point x="500" y="555" type="line"/>
      <point x="479" y="620" type="line"/>
      <point x="302" y="620" type="line" smooth="yes"/>
      <point x="199" y="620"/>
      <point x="142" y="577"/>
      <point x="142" y="508" type="curve" smooth="yes"/>
      <point x="142" y="452"/>
      <point x="179" y="420"/>
      <point x="248" y="365" type="curve" smooth="yes"/>
      <point x="324" y="305"/>
      <point x="362" y="272"/>
      <point x="362" y="218" type="curve" smooth="yes"/>
      <point x="362" y="146"/>
      <point x="297" y="102"/>
      <point x="230" y="102" type="curve" smooth="yes"/>
      <point x="162" y="102"/>
      <point x="123" y="136"/>
      <point x="84" y="232" type="curve"/>
      <point x="47" y="212" type="line"/>
      <point x="75" y="136"/>
      <point x="129" y="29"/>
      <point x="260" y="29" type="curve" smooth="yes"/>
      <point x="364" y="29"/>
      <point x="437" y="94"/>
      <point x="437" y="188" type="curve" smooth="yes"/>
      <point x="437" y="268"/>
      <point x="380" y="314"/>
      <point x="333" y="354" type="curve" smooth="yes"/>
      <point x="287" y="393"/>
      <point x="224" y="431"/>
      <point x="224" y="486" type="curve" smooth="yes"/>
      <point x="224" y="533"/>
      <point x="264" y="545"/>
      <point x="320" y="545" type="curve" smooth="yes"/>
    </contour>
  </outline>
</glyph>
<glyph name="dSignI" format="2">
  <advance width="267"/>
  <unicode hex="093F"/>
  <outline>
    <contour>
      <point x="234" y="603" type="line"/>
      <point x="225" y="625"/>
      <point x="220" y="647"/>
      <point x="220" y="669" type="curve" smooth="yes"/>
      <point x="220" y="730"/>
      <point x="266" y="803"/>
      <point x="386" y="803" type="curve" smooth="yes"/>
      <point x="504" y="803"/>
      <point x="610" y="737"/>
      <point x="711" y="645" type="curve"/>
      <point x="739" y="672" type="line"/>
      <point x="605" y="822"/>
      <point x="484" y="880"/>
      <point x="364" y="880" type="curve" smooth="yes"/>
      <point x="231" y="880"/>
      <point x="155" y="807"/>
      <point x="155" y="703" type="curve" smooth="yes"/>
      <point x="155" y="670"/>
      <point x="162" y="633"/>
      <point x="180" y="603" type="curve"/>
    </contour>
    <contour>
      <point x="129" y="-15" type="line"/>
      <point x="240" y="571" type="line"/>
      <point x="156" y="571" type="line"/>
      <point x="51" y="47" type="line"/>
      <point x="119" y="-15" type="line"/>
    </contour>
    <contour>
      <point x="352" y="545" type="line"/>
      <point x="354" y="555" type="line"/>
      <point x="323" y="620" type="line"/>
      <point x="34" y="620" type="line"/>
      <point x="32" y="610" type="line"/>
      <point x="63" y="545" type="line"/>
    </contour>
  </outline>
</glyph>
<glyph name="dSignIi" format="2">
  <advance width="267"/>
  <unicode hex="0940"/>
  <outline>
    <contour>
      <point x="238" y="600" type="line"/>
      <point x="242" y="772"/>
      <point x="163" y="880"/>
      <point x="34" y="880" type="curve" smooth="yes"/>
      <point x="-64" y="880"/>
      <point x="-119" y="812"/>
      <point x="-119" y="736" type="curve" smooth="yes"/>
      <point x="-119" y="705"/>
      <point x="-109" y="668"/>
      <point x="-89" y="642" type="curve"/>
      <point x="-58" y="658" type="line"/>
      <point x="-61" y="670"/>
      <point x="-63" y="686"/>
      <point x="-63" y="698" type="curve" smooth="yes"/>
      <point x="-63" y="756"/>
      <point x="-20" y="803"/>
      <point x="57" y="803" type="curve" smooth="yes"/>
      <point x="125" y="803"/>
      <point x="174" y="763"/>
      <point x="174" y="666" type="curve" smooth="yes"/>
      <point x="174" y="645"/>
      <point x="172" y="622"/>
      <point x="167" y="595" type="curve"/>
    </contour>
    <contour>
      <point x="128" y="-15" type="line"/>
      <point x="238" y="561" type="line"/>
      <point x="154" y="561" type="line"/>
      <point x="50" y="47" type="line"/>
      <point x="118" y="-15" type="line"/>
    </contour>
    <contour>
      <point x="352" y="545" type="line"/>
      <point x="354" y="555" type="line"/>
      <point x="322" y="620" type="line"/>
      <point x="33" y="620" type="line"/>
      <point x="31" y="610" type="line"/>
      <point x="63" y="545" type="line"/>
    </contour>
  </outline>
</glyph>
<glyph name="dHalant" format="2">
  <unicode hex="094D"/>
  <outline>
    <contour>
      <point x="-273" y="-41" type="line"/>
      <point x="-252" y="-117" type="line"/>
      <point x="-241" y="-115"/>
      <point x="-219" y="-110"/>
      <point x="-192" y="-110" type="curve" smooth="yes"/>
      <point x="-121" y="-110"/>
      <point x="-85" y="-129"/>
      <point x="16" y="-284" type="curve"/>
      <point x="23" y="-284" type="line"/>
      <point x="60" y="-251" type="line"/>
      <point x="2" y="-177"/>
      <point x="-72" y="-99"/>
      <point x="-94" y="-78" type="curve" smooth="yes"/>
      <point x="-129" y="-45"/>
      <point x="-162" y="-29"/>
      <point x="-211" y="-29" type="curve" smooth="yes"/>
      <point x="-227" y="-29"/>
      <point x="-248" y="-31"/>
      <point x="-270" y="-35" type="curve"/>
    </contour>
  </outline>
</glyph>
<glyph name="dSignEPrish" format="2">
  <advance width="280"/>
  <unicode hex="094E"/>
  <outline>
    <contour>
      <point x="141" y="-15" type="line"/>
      <point x="248" y="545" type="line"/>
      <point x="365" y="545" type="line"/>
      <point x="367" y="555" type="line"/>
      <point x="335" y="620" type="line"/>
      <point x="178" y="620" type="line"/>
      <point x="63" y="47" type="line"/>
      <point x="131" y="-15" type="line"/>
    </contour>
  </outline>
</glyph>
<glyph name="dUdatta" format="2">
  <unicode hex="0951"/>
  <outline>
    <contour>
      <point x="-25" y="917" type="line"/>
      <point x="-73" y="672" type="line"/>
      <point x="-25" y="672" type="line"/>
      <point x="23" y="917" type="line"/>
    </contour>
  </outline>
</glyph>
<glyph name="dAnudatta" format="2">
  <unicode hex="0952"/>
  <outline>
    <contour>
      <point x="-446" y="-77" type="line"/>
      <point x="-456" y="-129" type="line"/>
      <point x="-137" y="-129" type="line"/>
      <point x="-127" y="-77" type="line"/>
    </contour>
  </outline>
</glyph>
<glyph name="dVocalicRr" format="2">
  <advance width="861"/>
  <unicode hex="0960"/>
  <outline>
    <contour>
      <point x="417" y="-10" type="line"/>
      <point x="528" y="571" type="line"/>
      <point x="444" y="571" type="line"/>
      <point x="340" y="52" type="line"/>
      <point x="407" y="-10" type="line"/>
    </contour>
    <contour>
      <point x="712" y="-144" type="curve" smooth="yes"/>
      <point x="771" y="-144"/>
      <point x="838" y="-119"/>
      <point x="864" y="-99" type="curve"/>
      <point x="827" y="-38" type="line"/>
      <point x="779" y="-66"/>
      <point x="728" y="-83"/>
      <point x="684" y="-83" type="curve" smooth="yes"/>
      <point x="651" y="-83"/>
      <point x="627" y="-73"/>
      <point x="627" y="-47" type="curve" smooth="yes"/>
      <point x="627" y="-14"/>
      <point x="670" y="13"/>
      <point x="797" y="28" type="curve"/>
      <point x="798" y="34" type="line"/>
      <point x="765" y="93" type="line"/>
      <point x="663" y="83"/>
      <point x="568" y="47"/>
      <point x="568" y="-33" type="curve" smooth="yes"/>
      <point x="568" y="-98"/>
      <point x="632" y="-144"/>
    </contour>
    <contour>
      <point x="630" y="42" type="line"/>
      <point x="589" y="44"/>
      <point x="579" y="61"/>
      <point x="579" y="80" type="curve" smooth="yes"/>
      <point x="579" y="122"/>
      <point x="627" y="152"/>
      <point x="767" y="180" type="curve"/>
      <point x="770" y="185" type="line"/>
      <point x="754" y="246"/>
      <point x="741" y="288"/>
      <point x="724" y="339" type="curve"/>
      <point x="674" y="319" type="line"/>
      <point x="684" y="284"/>
      <point x="690" y="271"/>
      <point x="696" y="245" type="curve"/>
      <point x="559" y="209"/>
      <point x="520" y="163"/>
      <point x="520" y="104" type="curve" smooth="yes"/>
      <point x="520" y="66"/>
      <point x="537" y="25"/>
      <point x="595" y="8" type="curve"/>
    </contour>
    <contour>
      <point x="946" y="545" type="line"/>
      <point x="948" y="555" type="line"/>
      <point x="917" y="620" type="line"/>
      <point x="34" y="620" type="line"/>
      <point x="32" y="610" type="line"/>
      <point x="63" y="545" type="line"/>
    </contour>
    <contour>
      <point x="437" y="319" type="line"/>
      <point x="312" y="437"/>
      <point x="292" y="470"/>
      <point x="230" y="470" type="curve" smooth="yes"/>
      <point x="191" y="470"/>
      <point x="131" y="442"/>
      <point x="67" y="417" type="curve"/>
      <point x="67" y="412" type="line"/>
      <point x="108" y="339" type="line"/>
      <point x="158" y="362"/>
      <point x="216" y="397"/>
      <point x="249" y="397" type="curve" smooth="yes"/>
      <point x="289" y="397"/>
      <point x="323" y="365"/>
      <point x="415" y="285" type="curve"/>
    </contour>
    <contour>
      <point x="555" y="278" type="curve" smooth="yes"/>
      <point x="636" y="278"/>
      <point x="776" y="322"/>
      <point x="776" y="384" type="curve" smooth="yes"/>
      <point x="776" y="434"/>
      <point x="716" y="477"/>
      <point x="677" y="477" type="curve" smooth="yes"/>
      <point x="651" y="477"/>
      <point x="635" y="466"/>
      <point x="635" y="432" type="curve" smooth="yes"/>
      <point x="635" y="416"/>
      <point x="637" y="401"/>
      <point x="645" y="380" type="curve"/>
      <point x="620" y="357"/>
      <point x="569" y="331"/>
      <point x="507" y="331" type="curve" smooth="yes"/>
      <point x="464" y="331" type="line"/>
      <point x="456" y="289" type="line"/>
      <point x="495" y="281"/>
      <point x="527" y="278"/>
    </contour>
    <contour>
      <point x="378" y="239" type="line"/>
      <point x="405" y="224" type="line"/>
      <point x="428" y="349" type="line"/>
      <point x="62" y="138" type="line"/>
      <point x="113" y="76" type="line"/>
    </contour>
  </outline>
</glyph>
<glyph name="dTwo" format="2">
  <advance width="538"/>
  <unicode hex="0968"/>
  <outline>
    <contour>
      <point x="319" y="-139" type="line"/>
      <point x="377" y="-112" type="line"/>
      <point x="253" y="185" type="line"/>
      <point x="246" y="226" type="line"/>
      <point x="227" y="271"/>
      <point x="199" y="318"/>
      <point x="172" y="318" type="curve" smooth="yes"/>
      <point x="147" y="318"/>
      <point x="108" y="267"/>
      <point x="108" y="217" type="curve" smooth="yes"/>
      <point x="108" y="166"/>
      <point x="154" y="151"/>
      <point x="202" y="151" type="curve" smooth="yes"/>
      <point x="327" y="151"/>
      <point x="498" y="234"/>
      <point x="498" y="404" type="curve" smooth="yes"/>
      <point x="498" y="513"/>
      <point x="423" y="598"/>
      <point x="299" y="598" type="curve" smooth="yes"/>
      <point x="235" y="598"/>
      <point x="171" y="575"/>
      <point x="117" y="547" type="curve"/>
      <point x="147" y="469" type="line"/>
      <point x="212" y="504"/>
      <point x="275" y="527"/>
      <point x="336" y="527" type="curve" smooth="yes"/>
      <point x="405" y="527"/>
      <point x="433" y="487"/>
      <point x="433" y="432" type="curve" smooth="yes"/>
      <point x="433" y="329"/>
      <point x="343" y="258"/>
      <point x="222" y="238" type="curve"/>
      <point x="204" y="188" type="line"/>
      <point x="309" y="-139" type="line"/>
    </contour>
  </outline>
</glyph>
<glyph name="dSix" format="2">
  <advance width="543"/>
  <unicode hex="096C"/>
  <outline>
    <contour>
      <point x="435" y="-137" type="line"/>
      <point x="492" y="-105" type="line"/>
      <point x="369" y="123" type="line"/>
      <point x="342" y="104"/>
      <point x="303" y="85"/>
      <point x="256" y="85" type="curve" smooth="yes"/>
      <point x="185" y="85"/>
      <point x="153" y="112"/>
      <point x="153" y="161" type="curve" smooth="yes"/>
      <point x="153" y="215"/>
      <point x="210" y="298"/>
      <point x="434" y="308" type="curve"/>
      <point x="407" y="389" type="line"/>
      <point x="240" y="374"/>
      <point x="86" y="327"/>
      <point x="86" y="197" type="curve" smooth="yes"/>
      <point x="86" y="117"/>
      <point x="157" y="20"/>
      <point x="290" y="20" type="curve" smooth="yes"/>
      <point x="401" y="20"/>
      <point x="464" y="74"/>
      <point x="464" y="124" type="curve" smooth="yes"/>
      <point x="464" y="169"/>
      <point x="405" y="212"/>
      <point x="363" y="212" type="curve" smooth="yes"/>
      <point x="330" y="212"/>
      <point x="323" y="191"/>
      <point x="323" y="168" type="curve" smooth="yes"/>
      <point x="323" y="142"/>
      <point x="334" y="110"/>
      <point x="341" y="91" type="curve" smooth="yes"/>
      <point x="427" y="-137" type="line"/>
    </contour>
    <contour>
      <point x="247" y="348" type="line"/>
      <point x="216" y="352"/>
      <point x="183" y="377"/>
      <point x="183" y="418" type="curve" smooth="yes"/>
      <point x="183" y="494"/>
      <point x="270" y="517"/>
      <point x="335" y="517" type="curve" smooth="yes"/>
      <point x="378" y="517"/>
      <point x="413" y="513"/>
      <point x="437" y="509" type="curve"/>
      <point x="424" y="588" type="line"/>
      <point x="396" y="593"/>
      <point x="366" y="596"/>
      <point x="326" y="596" type="curve" smooth="yes"/>
      <point x="205" y="596"/>
      <point x="111" y="552"/>
      <point x="111" y="460" type="curve" smooth="yes"/>
      <point x="111" y="411"/>
      <point x="141" y="355"/>
      <point x="191" y="313" type="curve"/>
    </contour>
  </outline>
</glyph>
<glyph name="dSeven" format="2">
  <advance width="633"/>
  <unicode hex="096D"/>
  <outline>
    <contour>
      <point x="332" y="24" type="curve" smooth="yes"/>
      <point x="440" y="24"/>
      <point x="586" y="109"/>
      <point x="586" y="307" type="curve" smooth="yes"/>
      <point x="586" y="464"/>
      <point x="519" y="543"/>
      <point x="420" y="543" type="curve" smooth="yes"/>
      <point x="342" y="543"/>
      <point x="283" y="486"/>
      <point x="283" y="405" type="curve" smooth="yes"/>
      <point x="283" y="328"/>
      <point x="345" y="251"/>
      <point x="427" y="251" type="curve" smooth="yes"/>
      <point x="456" y="251"/>
      <point x="492" y="260"/>
      <point x="514" y="272" type="curve"/>
      <point x="531" y="362" type="line"/>
      <point x="501" y="335"/>
      <point x="453" y="313"/>
      <point x="412" y="313" type="curve" smooth="yes"/>
      <point x="377" y="313"/>
      <point x="357" y="335"/>
      <point x="357" y="377" type="curve" smooth="yes"/>
      <point x="357" y="430"/>
      <point x="403" y="475"/>
      <point x="453" y="475" type="curve" smooth="yes"/>
      <point x="493" y="475"/>
      <point x="519" y="434"/>
      <point x="519" y="359" type="curve" smooth="yes"/>
      <point x="519" y="229"/>
      <point x="443" y="105"/>
      <point x="319" y="105" type="curve" smooth="yes"/>
      <point x="192" y="105"/>
      <point x="128" y="211"/>
      <point x="128" y="438" type="curve" smooth="yes"/>
      <point x="128" y="483"/>
      <point x="131" y="532"/>
      <point x="136" y="586" type="curve"/>
      <point x="89" y="582" type="line"/>
      <point x="83" y="525"/>
      <point x="79" y="473"/>
      <point x="79" y="424" type="curve" smooth="yes"/>
      <point x="79" y="172"/>
      <point x="159" y="24"/>
    </contour>
  </outline>
</glyph>
<glyph name="SvastiLeft" format="2">
  <advance width="826"/>
  <unicode hex="0FD6"/>
  <outline>
    <contour>
      <point x="196" y="275" type="line"/>
      <point x="390" y="275" type="line"/>
      <point x="390" y="7" type="line"/>
      <point x="707" y="7" type="line"/>
      <point x="741" y="72" type="line"/>
      <point x="741" y="82" type="line"/>
      <point x="466" y="82" type="line"/>
      <point x="466" y="275" type="line"/>
      <point x="734" y="275" type="line"/>
      <point x="734" y="592" type="line"/>
      <point x="669" y="626" type="line"/>
      <point x="659" y="626" type="line"/>
      <point x="659" y="351" type="line"/>
      <point x="466" y="351" type="line"/>
      <point x="466" y="620" type="line"/>
      <point x="149" y="620" type="line"/>
      <point x="115" y="555" type="line"/>
      <point x="115" y="545" type="line"/>
      <point x="390" y="545" type="line"/>
      <point x="390" y="351" type="line"/>
      <point x="121" y="351" type="line"/>
      <point x="121" y="34" type="line"/>
      <point x="186" y="0" type="line"/>
      <point x="196" y="0" type="line"/>
    </contour>
  </outline>
  <guideline angle="0" x="0" y="313"/>
  <guideline angle="90" x="417" y="0"/>
</glyph>
<glyph name="SvastiLeftDots" format="2">
  <advance width="826"/>
  <unicode hex="0FD8"/>
  <outline>
    <contour>
      <point x="196" y="275" type="line"/>
      <point x="390" y="275" type="line"/>
      <point x="390" y="7" type="line"/>
      <point x="707" y="7" type="line"/>
      <point x="741" y="72" type="line"/>
      <point x="741" y="82" type="line"/>
      <point x="466" y="82" type="line"/>
      <point x="466" y="275" type="line"/>
      <point x="734" y="275" type="line"/>
      <point x="734" y="592" type="line"/>
      <point x="669" y="626" type="line"/>
      <point x="659" y="626" type="line"/>
      <point x="659" y="351" type="line"/>
      <point x="466" y="351" type="line"/>
      <point x="466" y="620" type="line"/>
      <point x="149" y="620" type="line"/>
      <point x="115" y="555" type="line"/>
      <point x="115" y="545" type="line"/>
      <point x="390" y="545" type="line"/>
      <point x="390" y="351" type="line"/>
      <point x="121" y="351" type="line"/>
      <point x="121" y="34" type="line"/>
      <point x="186" y="0" type="line"/>
      <point x="196" y="0" type="line"/>
    </contour>
    <contour>
      <point x="510" y="178" type="line"/>
      <point x="563" y="125" type="line"/>
      <point x="617" y="178" type="line"/>
      <point x="563" y="232" type="line"/>
    </contour>
    <contour>
      <point x="510" y="448" type="line"/>
      <point x="563" y="394" type="line"/>
      <point x="617" y="448" type="line"/>
      <point x="563" y="502" type="line"/>
    </contour>
    <contour>
      <point x="239" y="178" type="line"/>
      <point x="293" y="125" type="line"/>
      <point x="347" y="178" type="line"/>
      <point x="293" y="232" type="line"/>
    </contour>
    <contour>
      <point x="239" y="448" type="line"/>
      <point x="293" y="394" type="line"/>
      <point x="347" y="448" type="line"/>
      <point x="293" y="502" type="line"/>
    </contour>
  </outline>
  <guideline angle="0" x="0" y="306"/>
  <guideline angle="0" x="0" y="448"/>
  <guideline angle="0" x="0" y="178"/>
  <guideline angle="90" x="413" y="0"/>
  <guideline angle="90" x="548" y="0"/>
  <guideline angle="90" x="278" y="0"/>
</glyph>
<glyph name="vNihshvasa" format="2">
  <advance width="418"/>
  <unicode hex="1CD3"/>
  <outline>
    <contour>
      <point x="147" y="545" type="line"/>
      <point x="207" y="545" type="line"/>
      <point x="353" y="733" type="line"/>
      <point x="293" y="733" type="line"/>
    </contour>
    <contour>
      <point x="275" y="545" type="line"/>
      <point x="336" y="545" type="line"/>
      <point x="482" y="733" type="line"/>
      <point x="421" y="733" type="line"/>
    </contour>
  </outline>
</glyph>
<glyph name="vSvaritaYajurAggravated" format="2">
  <unicode hex="1CD5"/>
  <outline>
    <contour>
      <point x="-595" y="-68" type="line"/>
      <point x="-584" y="-143"/>
      <point x="-537" y="-206"/>
      <point x="-451" y="-206" type="curve" smooth="yes"/>
      <point x="-390" y="-206"/>
      <point x="-336" y="-180"/>
      <point x="-291" y="-92" type="curve"/>
      <point x="-351" y="-46" type="line"/>
      <point x="-370" y="-89"/>
      <point x="-405" y="-139"/>
      <point x="-466" y="-139" type="curve" smooth="yes"/>
      <point x="-505" y="-139"/>
      <point x="-546" y="-121"/>
      <point x="-560" y="-50" type="curve"/>
    </contour>
    <contour>
      <point x="-323" y="-112" type="line"/>
      <point x="-309" y="-164"/>
      <point x="-270" y="-206"/>
      <point x="-198" y="-206" type="curve" smooth="yes"/>
      <point x="-145" y="-206"/>
      <point x="-81" y="-184"/>
      <point x="-38" y="-92" type="curve"/>
      <point x="-104" y="-46" type="line"/>
      <point x="-123" y="-85"/>
      <point x="-153" y="-139"/>
      <point x="-217" y="-139" type="curve" smooth="yes"/>
      <point x="-245" y="-139"/>
      <point x="-280" y="-128"/>
      <point x="-291" y="-92" type="curve"/>
    </contour>
  </outline>
</glyph>
<glyph name="vSvarita2" format="2">
  <unicode hex="1CDA"/>
  <outline>
    <contour>
      <point x="-75" y="917" type="line"/>
      <point x="-123" y="672" type="line"/>
      <point x="-75" y="672" type="line"/>
      <point x="-27" y="917" type="line"/>
    </contour>
    <contour>
      <point x="25" y="917" type="line"/>
      <point x="-23" y="672" type="line"/>
      <point x="25" y="672" type="line"/>
      <point x="73" y="917" type="line"/>
    </contour>
  </outline>
</glyph>
<glyph name="vSvarita3" format="2">
  <unicode hex="1CDB"/>
  <outline>
    <contour>
      <point x="-25" y="917" type="line"/>
      <point x="-73" y="672" type="line"/>
      <point x="-25" y="672" type="line"/>
      <point x="23" y="917" type="line"/>
    </contour>
    <contour>
      <point x="-125" y="917" type="line"/>
      <point x="-173" y="672" type="line"/>
      <point x="-125" y="672" type="line"/>
      <point x="-77" y="917" type="line"/>
    </contour>
    <contour>
      <point x="75" y="917" type="line"/>
      <point x="27" y="672" type="line"/>
      <point x="75" y="672" type="line"/>
      <point x="123" y="917" type="line"/>
    </contour>
  </outline>
</glyph>
<glyph name="vDot2Below" format="2">
  <unicode hex="1CDE"/>
  <outline>
    <contour>
      <point x="-277" y="-100" type="line"/>
      <point x="-350" y="-164" type="line"/>
      <point x="-295" y="-228" type="line"/>
      <point x="-222" y="-166" type="line"/>
    </contour>
    <contour>
      <point x="-130" y="-100" type="line"/>
      <point x="-203" y="-164" type="line"/>
      <point x="-148" y="-228" type="line"/>
      <point x="-75" y="-166" type="line"/>
    </contour>
  </outline>
</glyph>
<glyph name="vDot3Below" format="2">
  <unicode hex="1CDF"/>
  <outline>
    <contour>
      <point x="-292" y="-100" type="line"/>
      <point x="-365" y="-164" type="line"/>
      <point x="-310" y="-228" type="line"/>
      <point x="-237" y="-166" type="line"/>
    </contour>
    <contour>
      <point x="-145" y="-100" type="line"/>
      <point x="-218" y="-164" type="line"/>
      <point x="-163" y="-228" type="line"/>
      <point x="-90" y="-166" type="line"/>
    </contour>
    <contour>
      <point x="-438" y="-100" type="line"/>
      <point x="-511" y="-164" type="line"/>
      <point x="-456" y="-228" type="line"/>
      <point x="-383" y="-166" type="line"/>
    </contour>
  </outline>
</glyph>
<glyph name="vSvaritaRigKashmiri" format="2">
  <unicode hex="1CE0"/>
  <outline>
    <contour>
      <point x="18" y="721" type="line"/>
      <point x="5" y="718"/>
      <point x="-15" y="715"/>
      <point x="-33" y="715" type="curve" smooth="yes"/>
      <point x="-76" y="715"/>
      <point x="-105" y="730"/>
      <point x="-105" y="764" type="curve" smooth="yes"/>
      <point x="-105" y="834"/>
      <point x="0" y="853"/>
      <point x="74" y="853" type="curve" smooth="yes"/>
      <point x="124" y="853"/>
      <point x="156" y="848"/>
      <point x="182" y="842" type="curve"/>
      <point x="187" y="852" type="line"/>
      <point x="166" y="919" type="line"/>
      <point x="139" y="925"/>
      <point x="106" y="927"/>
      <point x="79" y="927" type="curve" smooth="yes"/>
      <point x="-37" y="927"/>
      <point x="-165" y="892"/>
      <point x="-165" y="784" type="curve" smooth="yes"/>
      <point x="-165" y="729"/>
      <point x="-132" y="673"/>
      <point x="-36" y="673" type="curve" smooth="yes"/>
      <point x="-18" y="673"/>
      <point x="-10" y="674"/>
      <point x="7" y="676" type="curve"/>
      <point x="20" y="716" type="line"/>
    </contour>
  </outline>
</glyph>
<glyph name="vVisargaUdattaReversedcomb" format="2">
  <unicode hex="1CE4"/>
  <outline>
    <contour>
      <point x="88" y="316" type="line"/>
      <point x="67" y="312"/>
      <point x="48" y="310"/>
      <point x="28" y="310" type="curve" smooth="yes"/>
      <point x="-63" y="310"/>
      <point x="-103" y="351"/>
      <point x="-103" y="412" type="curve" smooth="yes"/>
      <point x="-103" y="484"/>
      <point x="-42" y="543"/>
      <point x="76" y="647" type="curve"/>
      <point x="51" y="675" type="line"/>
      <point x="-66" y="569"/>
      <point x="-172" y="489"/>
      <point x="-172" y="380" type="curve" smooth="yes"/>
      <point x="-172" y="276"/>
      <point x="-83" y="234"/>
      <point x="27" y="234" type="curve" smooth="yes"/>
      <point x="53" y="234"/>
      <point x="90" y="238"/>
      <point x="122" y="245" type="curve"/>
      <point x="124" y="249" type="line"/>
    </contour>
  </outline>
</glyph>
<glyph name="vVisargaAnudattacomb" format="2">
  <unicode hex="1CE5"/>
  <outline>
    <contour>
      <point x="124" y="230" type="line"/>
      <point x="89" y="303" type="line"/>
      <point x="60" y="311"/>
      <point x="30" y="313"/>
      <point x="6" y="313" type="curve" smooth="yes"/>
      <point x="-138" y="313"/>
      <point x="-219" y="242"/>
      <point x="-219" y="138" type="curve" smooth="yes"/>
      <point x="-219" y="46"/>
      <point x="-155" y="-54"/>
      <point x="-104" y="-126" type="curve"/>
      <point x="-73" y="-101" type="line"/>
      <point x="-131" y="-20"/>
      <point x="-164" y="43"/>
      <point x="-164" y="101" type="curve" smooth="yes"/>
      <point x="-164" y="178"/>
      <point x="-106" y="239"/>
      <point x="15" y="239" type="curve" smooth="yes"/>
      <point x="49" y="239"/>
      <point x="86" y="234"/>
      <point x="121" y="226" type="curve"/>
    </contour>
  </outline>
</glyph>
<glyph name="vVisargaAnudattaReversedcomb" format="2">
  <unicode hex="1CE6"/>
  <outline>
    <contour>
      <point x="-79" y="233" type="line"/>
      <point x="-58" y="237"/>
      <point x="-39" y="239"/>
      <point x="-19" y="239" type="curve" smooth="yes"/>
      <point x="73" y="239"/>
      <point x="113" y="198"/>
      <point x="113" y="137" type="curve" smooth="yes"/>
      <point x="113" y="65"/>
      <point x="52" y="6"/>
      <point x="-66" y="-98" type="curve"/>
      <point x="-41" y="-126" type="line"/>
      <point x="76" y="-20"/>
      <point x="182" y="60"/>
      <point x="182" y="169" type="curve" smooth="yes"/>
      <point x="182" y="273"/>
      <point x="93" y="315"/>
      <point x="-18" y="315" type="curve" smooth="yes"/>
      <point x="-44" y="315"/>
      <point x="-81" y="311"/>
      <point x="-113" y="304" type="curve"/>
      <point x="-115" y="300" type="line"/>
    </contour>
  </outline>
</glyph>
<glyph name="vVisargaAnudattaTailcomb" format="2">
  <unicode hex="1CE8"/>
  <outline>
    <contour>
      <point x="-372" y="-119" type="line"/>
      <point x="-334" y="-206"/>
      <point x="-277" y="-239"/>
      <point x="-214" y="-239" type="curve" smooth="yes"/>
      <point x="-139" y="-239"/>
      <point x="-91" y="-184"/>
      <point x="-91" y="-118" type="curve" smooth="yes"/>
      <point x="-91" y="-33"/>
      <point x="-165" y="4"/>
      <point x="-165" y="101" type="curve" smooth="yes"/>
      <point x="-165" y="185"/>
      <point x="-99" y="239"/>
      <point x="14" y="239" type="curve" smooth="yes"/>
      <point x="56" y="239"/>
      <point x="89" y="234"/>
      <point x="124" y="226" type="curve"/>
      <point x="127" y="230" type="line"/>
      <point x="85" y="303" type="line"/>
      <point x="56" y="311"/>
      <point x="30" y="313"/>
      <point x="-1" y="313" type="curve" smooth="yes"/>
      <point x="-125" y="313"/>
      <point x="-221" y="256"/>
      <point x="-221" y="132" type="curve" smooth="yes"/>
      <point x="-221" y="39"/>
      <point x="-149" y="-27"/>
      <point x="-149" y="-89" type="curve" smooth="yes"/>
      <point x="-149" y="-137"/>
      <point x="-188" y="-175"/>
      <point x="-241" y="-175" type="curve" smooth="yes"/>
      <point x="-275" y="-175"/>
      <point x="-314" y="-160"/>
      <point x="-342" y="-103" type="curve"/>
    </contour>
  </outline>
</glyph>
<glyph name="vAnusvaraBahirgomukha" format="2">
  <advance width="867"/>
  <unicode hex="1CEA"/>
  <outline>
    <contour>
      <point x="604" y="335" type="line"/>
      <point x="759" y="342"/>
      <point x="857" y="385"/>
      <point x="857" y="502" type="curve" smooth="yes"/>
      <point x="857" y="589"/>
      <point x="787" y="633"/>
      <point x="722" y="633" type="curve" smooth="yes"/>
      <point x="602" y="633"/>
      <point x="544" y="518"/>
      <point x="544" y="422" type="curve" smooth="yes"/>
      <point x="544" y="344"/>
      <point x="568" y="273"/>
      <point x="568" y="211" type="curve" smooth="yes"/>
      <point x="568" y="118"/>
      <point x="506" y="59"/>
      <point x="393" y="59" type="curve" smooth="yes"/>
      <point x="309" y="59"/>
      <point x="266" y="94"/>
      <point x="266" y="158" type="curve" smooth="yes"/>
      <point x="266" y="253"/>
      <point x="399" y="358"/>
      <point x="399" y="456" type="curve" smooth="yes"/>
      <point x="399" y="536"/>
      <point x="349" y="633"/>
      <point x="253" y="633" type="curve" smooth="yes"/>
      <point x="182" y="633"/>
      <point x="117" y="582"/>
      <point x="117" y="499" type="curve" smooth="yes"/>
      <point x="117" y="441"/>
      <point x="154" y="384"/>
      <point x="216" y="384" type="curve" smooth="yes"/>
      <point x="226" y="384"/>
      <point x="230" y="384"/>
      <point x="245" y="386" type="curve"/>
      <point x="247" y="397" type="line"/>
      <point x="219" y="410"/>
      <point x="189" y="431"/>
      <point x="189" y="470" type="curve" smooth="yes"/>
      <point x="189" y="521"/>
      <point x="228" y="565"/>
      <point x="282" y="565" type="curve" smooth="yes"/>
      <point x="316" y="565"/>
      <point x="332" y="546"/>
      <point x="332" y="504" type="curve" smooth="yes"/>
      <point x="332" y="401"/>
      <point x="195" y="298"/>
      <point x="195" y="192" type="curve" smooth="yes"/>
      <point x="195" y="96"/>
      <point x="287" y="-5"/>
      <point x="437" y="-5" type="curve" smooth="yes"/>
      <point x="586" y="-5"/>
      <point x="653" y="92"/>
      <point x="653" y="199" type="curve" smooth="yes"/>
      <point x="653" y="274"/>
      <point x="627" y="339"/>
      <point x="627" y="414" type="curve" smooth="yes"/>
      <point x="627" y="495"/>
      <point x="684" y="565"/>
      <point x="752" y="565" type="curve" smooth="yes"/>
      <point x="787" y="565"/>
      <point x="809" y="544"/>
      <point x="809" y="514" type="curve" smooth="yes"/>
      <point x="809" y="470"/>
      <point x="748" y="424"/>
      <point x="603" y="411" type="curve"/>
    </contour>
  </outline>
</glyph>
<glyph name="vAnusvaraVamagomukhaTail" format="2">
  <advance width="927"/>
  <unicode hex="1CEC"/>
  <outline>
    <contour>
      <point x="427" y="7" type="curve" smooth="yes"/>
      <point x="647" y="7"/>
      <point x="790" y="171"/>
      <point x="790" y="403" type="curve" smooth="yes"/>
      <point x="790" y="549"/>
      <point x="716" y="633"/>
      <point x="627" y="633" type="curve" smooth="yes"/>
      <point x="561" y="633"/>
      <point x="510" y="590"/>
      <point x="510" y="514" type="curve" smooth="yes"/>
      <point x="510" y="425"/>
      <point x="605" y="363"/>
      <point x="735" y="338" type="curve" smooth="yes"/>
      <point x="806" y="324"/>
      <point x="840" y="302"/>
      <point x="840" y="254" type="curve" smooth="yes"/>
      <point x="840" y="202"/>
      <point x="803" y="150"/>
      <point x="760" y="102" type="curve"/>
      <point x="822" y="45" type="line"/>
      <point x="829" y="45" type="line"/>
      <point x="878" y="95"/>
      <point x="904" y="150"/>
      <point x="904" y="212" type="curve" smooth="yes"/>
      <point x="904" y="301"/>
      <point x="852" y="358"/>
      <point x="742" y="378" type="curve" smooth="yes"/>
      <point x="659" y="393"/>
      <point x="590" y="425"/>
      <point x="590" y="495" type="curve" smooth="yes"/>
      <point x="590" y="543"/>
      <point x="624" y="566"/>
      <point x="659" y="566" type="curve" smooth="yes"/>
      <point x="689" y="566"/>
      <point x="730" y="544"/>
      <point x="730" y="450" type="curve" smooth="yes"/>
      <point x="730" y="146"/>
      <point x="505" y="73"/>
      <point x="393" y="73" type="curve" smooth="yes"/>
      <point x="264" y="73"/>
      <point x="207" y="132"/>
      <point x="190" y="216" type="curve"/>
      <point x="338" y="261"/>
      <point x="432" y="325"/>
      <point x="432" y="451" type="curve" smooth="yes"/>
      <point x="432" y="547"/>
      <point x="373" y="633"/>
      <point x="271" y="633" type="curve" smooth="yes"/>
      <point x="188" y="633"/>
      <point x="131" y="577"/>
      <point x="131" y="495" type="curve" smooth="yes"/>
      <point x="131" y="443"/>
      <point x="161" y="394"/>
      <point x="220" y="394" type="curve" smooth="yes"/>
      <point x="227" y="394"/>
      <point x="235" y="395"/>
      <point x="240" y="396" type="curve"/>
      <point x="242" y="407" type="line"/>
      <point x="222" y="418"/>
      <point x="203" y="442"/>
      <point x="203" y="473" type="curve" smooth="yes"/>
      <point x="203" y="531"/>
      <point x="255" y="566"/>
      <point x="303" y="566" type="curve" smooth="yes"/>
      <point x="340" y="566"/>
      <point x="371" y="547"/>
      <point x="371" y="488" type="curve" smooth="yes"/>
      <point x="371" y="382"/>
      <point x="279" y="337"/>
      <point x="123" y="285" type="curve"/>
      <point x="130" y="132"/>
      <point x="231" y="7"/>
    </contour>
  </outline>
</glyph>
<glyph name="vAnusvaraUbhayatoMukha" format="2">
  <advance width="496"/>
  <unicode hex="1CF1"/>
  <outline>
    <contour>
      <point x="259" y="14" type="curve" smooth="yes"/>
      <point x="351" y="14"/>
      <point x="433" y="77"/>
      <point x="433" y="163" type="curve" smooth="yes"/>
      <point x="433" y="241"/>
      <point x="385" y="283"/>
      <point x="327" y="336" type="curve" smooth="yes"/>
      <point x="268" y="389"/>
      <point x="223" y="431"/>
      <point x="223" y="485" type="curve" smooth="yes"/>
      <point x="223" y="538"/>
      <point x="279" y="559"/>
      <point x="365" y="559" type="curve" smooth="yes"/>
      <point x="401" y="559"/>
      <point x="443" y="555"/>
      <point x="488" y="545" type="curve"/>
      <point x="490" y="555" type="line"/>
      <point x="465" y="622" type="line"/>
      <point x="434" y="628"/>
      <point x="393" y="633"/>
      <point x="353" y="633" type="curve" smooth="yes"/>
      <point x="236" y="633"/>
      <point x="140" y="597"/>
      <point x="140" y="504" type="curve" smooth="yes"/>
      <point x="140" y="432"/>
      <point x="185" y="389"/>
      <point x="251" y="336" type="curve" smooth="yes"/>
      <point x="326" y="275"/>
      <point x="357" y="240"/>
      <point x="357" y="191" type="curve" smooth="yes"/>
      <point x="357" y="120"/>
      <point x="293" y="87"/>
      <point x="234" y="87" type="curve" smooth="yes"/>
      <point x="164" y="87"/>
      <point x="124" y="117"/>
      <point x="83" y="218" type="curve"/>
      <point x="44" y="197" type="line"/>
      <point x="72" y="121"/>
      <point x="130" y="14"/>
    </contour>
    <contour>
      <point x="300" y="198" type="line"/>
      <point x="246" y="262" type="line"/>
      <point x="175" y="200" type="line"/>
      <point x="228" y="138" type="line"/>
    </contour>
    <contour>
      <point x="417" y="455" type="line"/>
      <point x="363" y="519" type="line"/>
      <point x="292" y="457" type="line"/>
      <point x="345" y="395" type="line"/>
    </contour>
  </outline>
</glyph>
<glyph name="vArdhavisarga" format="2">
  <advance width="590"/>
  <unicode hex="1CF2"/>
  <outline>
    <contour>
      <point x="293" y="268" type="curve" smooth="yes"/>
      <point x="163" y="268"/>
      <point x="79" y="175"/>
      <point x="26" y="105" type="curve"/>
      <point x="61" y="80" type="line"/>
      <point x="136" y="175"/>
      <point x="230" y="195"/>
      <point x="290" y="195" type="curve" smooth="yes"/>
      <point x="348" y="195"/>
      <point x="440" y="176"/>
      <point x="477" y="81" type="curve"/>
      <point x="515" y="102" type="line"/>
      <point x="487" y="177"/>
      <point x="421" y="268"/>
    </contour>
    <contour>
      <point x="320" y="310" type="curve" smooth="yes"/>
      <point x="450" y="310"/>
      <point x="534" y="403"/>
      <point x="587" y="473" type="curve"/>
      <point x="552" y="498" type="line"/>
      <point x="477" y="403"/>
      <point x="383" y="383"/>
      <point x="323" y="383" type="curve" smooth="yes"/>
      <point x="265" y="383"/>
      <point x="173" y="402"/>
      <point x="136" y="497" type="curve"/>
      <point x="98" y="476" type="line"/>
      <point x="126" y="401"/>
      <point x="192" y="310"/>
    </contour>
  </outline>
  <guideline angle="90" x="91" y="0"/>
</glyph>
<glyph name="vArdhavisargaTurned" format="2">
  <advance width="561"/>
  <unicode hex="1CF3"/>
  <outline>
    <contour>
      <point x="271" y="299" type="curve" smooth="yes"/>
      <point x="271" y="407"/>
      <point x="195" y="473"/>
      <point x="131" y="509" type="curve"/>
      <point x="105" y="474" type="line"/>
      <point x="176" y="431"/>
      <point x="197" y="368"/>
      <point x="197" y="311" type="curve" smooth="yes"/>
      <point x="197" y="223"/>
      <point x="139" y="142"/>
      <point x="27" y="90" type="curve"/>
      <point x="45" y="49" type="line"/>
      <point x="135" y="90"/>
      <point x="271" y="161"/>
    </contour>
    <contour>
      <point x="312" y="259" type="curve" smooth="yes"/>
      <point x="312" y="151"/>
      <point x="388" y="85"/>
      <point x="452" y="48" type="curve"/>
      <point x="478" y="84" type="line"/>
      <point x="407" y="127"/>
      <point x="386" y="190"/>
      <point x="386" y="247" type="curve" smooth="yes"/>
      <point x="386" y="335"/>
      <point x="444" y="416"/>
      <point x="556" y="468" type="curve"/>
      <point x="537" y="509" type="line"/>
      <point x="448" y="468"/>
      <point x="312" y="397"/>
    </contour>
  </outline>
  <guideline angle="90" x="89" y="0"/>
</glyph>
<glyph name="vAtikrama" format="2">
  <advance width="250"/>
  <unicode hex="1CF7"/>
  <outline>
    <contour>
      <point x="29" y="-213" type="line"/>
      <point x="40" y="-213" type="line"/>
      <point x="246" y="677" type="line" smooth="yes"/>
      <point x="269" y="778"/>
      <point x="306" y="809"/>
      <point x="376" y="809" type="curve" smooth="yes"/>
      <point x="394" y="809"/>
      <point x="415" y="806"/>
      <point x="435" y="799" type="curve"/>
      <point x="439" y="808" type="line"/>
      <point x="411" y="871" type="line"/>
      <point x="399" y="877"/>
      <point x="377" y="881"/>
      <point x="358" y="881" type="curve" smooth="yes"/>
      <point x="265" y="881"/>
      <point x="228" y="819"/>
      <point x="204" y="729" type="curve" smooth="yes"/>
      <point x="-31" y="-168" type="line"/>
    </contour>
  </outline>
  <guideline angle="0" x="0" y="375"/>
  <guideline angle="100.819" x="194" y="0"/>
</glyph>
<glyph name="vRing2Above" format="2">
  <unicode hex="1CF9"/>
  <outline>
    <contour>
      <point x="-264" y="776" type="curve" smooth="yes"/>
      <point x="-264" y="719"/>
      <point x="-219" y="679"/>
      <point x="-165" y="679" type="curve" smooth="yes"/>
      <point x="-104" y="679"/>
      <point x="-46" y="721"/>
      <point x="-46" y="793" type="curve" smooth="yes"/>
      <point x="-46" y="850"/>
      <point x="-90" y="892"/>
      <point x="-146" y="892" type="curve" smooth="yes"/>
      <point x="-215" y="892"/>
      <point x="-264" y="842"/>
    </contour>
    <contour>
      <point x="-223" y="777" type="curve" smooth="yes"/>
      <point x="-223" y="815"/>
      <point x="-195" y="851"/>
      <point x="-149" y="851" type="curve" smooth="yes"/>
      <point x="-112" y="851"/>
      <point x="-89" y="827"/>
      <point x="-89" y="791" type="curve" smooth="yes"/>
      <point x="-89" y="748"/>
      <point x="-122" y="720"/>
      <point x="-163" y="720" type="curve" smooth="yes"/>
      <point x="-199" y="720"/>
      <point x="-223" y="741"/>
    </contour>
    <contour>
      <point x="-9" y="776" type="curve" smooth="yes"/>
      <point x="-9" y="719"/>
      <point x="36" y="679"/>
      <point x="90" y="679" type="curve" smooth="yes"/>
      <point x="151" y="679"/>
      <point x="209" y="721"/>
      <point x="209" y="793" type="curve" smooth="yes"/>
      <point x="209" y="850"/>
      <point x="165" y="892"/>
      <point x="109" y="892" type="curve" smooth="yes"/>
      <point x="40" y="892"/>
      <point x="-9" y="842"/>
    </contour>
    <contour>
      <point x="32" y="777" type="curve" smooth="yes"/>
      <point x="32" y="815"/>
      <point x="60" y="851"/>
      <point x="106" y="851" type="curve" smooth="yes"/>
      <point x="143" y="851"/>
      <point x="166" y="827"/>
      <point x="166" y="791" type="curve" smooth="yes"/>
      <point x="166" y="748"/>
      <point x="133" y="720"/>
      <point x="92" y="720" type="curve" smooth="yes"/>
      <point x="56" y="720"/>
      <point x="32" y="741"/>
    </contour>
  </outline>
</glyph>
<glyph name="vAnusvaraDblAntargomukha" format="2">
  <advance width="700"/>
  <unicode hex="1CFA"/>
  <outline>
    <contour>
      <point x="130" y="97" type="line"/>
      <point x="205" y="107"/>
      <point x="318" y="136"/>
      <point x="318" y="219" type="curve" smooth="yes"/>
      <point x="318" y="264"/>
      <point x="284" y="317"/>
      <point x="212" y="317" type="curve" smooth="yes"/>
      <point x="141" y="317"/>
      <point x="75" y="265"/>
      <point x="75" y="185" type="curve" smooth="yes"/>
      <point x="75" y="82"/>
      <point x="183" y="-10"/>
      <point x="338" y="-10" type="curve" smooth="yes"/>
      <point x="474" y="-10"/>
      <point x="626" y="61"/>
      <point x="626" y="189" type="curve" smooth="yes"/>
      <point x="626" y="267"/>
      <point x="569" y="311"/>
      <point x="513" y="311" type="curve" smooth="yes"/>
      <point x="458" y="311"/>
      <point x="407" y="268"/>
      <point x="407" y="214" type="curve" smooth="yes"/>
      <point x="407" y="150"/>
      <point x="477" y="117"/>
      <point x="528" y="99" type="curve"/>
      <point x="556" y="127" type="line"/>
      <point x="524" y="137"/>
      <point x="475" y="158"/>
      <point x="475" y="198" type="curve" smooth="yes"/>
      <point x="475" y="229"/>
      <point x="504" y="256"/>
      <point x="535" y="256" type="curve" smooth="yes"/>
      <point x="559" y="256"/>
      <point x="572" y="239"/>
      <point x="572" y="213" type="curve" smooth="yes"/>
      <point x="572" y="139"/>
      <point x="467" y="48"/>
      <point x="305" y="52" type="curve" smooth="yes"/>
      <point x="227" y="54"/>
      <point x="141" y="78"/>
      <point x="141" y="163" type="curve" smooth="yes"/>
      <point x="141" y="218"/>
      <point x="175" y="259"/>
      <point x="230" y="259" type="curve" smooth="yes"/>
      <point x="245" y="259"/>
      <point x="263" y="256"/>
      <point x="263" y="233" type="curve" smooth="yes"/>
      <point x="263" y="191"/>
      <point x="203" y="168"/>
      <point x="113" y="157" type="curve"/>
    </contour>
    <contour>
      <point x="193" y="413" type="line"/>
      <point x="268" y="423"/>
      <point x="381" y="452"/>
      <point x="381" y="535" type="curve" smooth="yes"/>
      <point x="381" y="580"/>
      <point x="347" y="633"/>
      <point x="274" y="633" type="curve" smooth="yes"/>
      <point x="204" y="633"/>
      <point x="138" y="583"/>
      <point x="138" y="503" type="curve" smooth="yes"/>
      <point x="138" y="400"/>
      <point x="246" y="310"/>
      <point x="399" y="310" type="curve" smooth="yes"/>
      <point x="537" y="310"/>
      <point x="689" y="383"/>
      <point x="689" y="511" type="curve" smooth="yes"/>
      <point x="689" y="589"/>
      <point x="632" y="633"/>
      <point x="576" y="633" type="curve" smooth="yes"/>
      <point x="521" y="633"/>
      <point x="470" y="590"/>
      <point x="470" y="536" type="curve" smooth="yes"/>
      <point x="470" y="472"/>
      <point x="540" y="439"/>
      <point x="591" y="421" type="curve"/>
      <point x="619" y="449" type="line"/>
      <point x="587" y="459"/>
      <point x="538" y="480"/>
      <point x="538" y="520" type="curve" smooth="yes"/>
      <point x="538" y="551"/>
      <point x="567" y="578"/>
      <point x="598" y="578" type="curve" smooth="yes"/>
      <point x="622" y="578"/>
      <point x="635" y="561"/>
      <point x="635" y="535" type="curve" smooth="yes"/>
      <point x="635" y="461"/>
      <point x="530" y="368"/>
      <point x="365" y="372" type="curve" smooth="yes"/>
      <point x="290" y="374"/>
      <point x="204" y="396"/>
      <point x="204" y="481" type="curve" smooth="yes"/>
      <point x="204" y="536"/>
      <point x="238" y="575"/>
      <point x="293" y="575" type="curve" smooth="yes"/>
      <point x="308" y="575"/>
      <point x="326" y="572"/>
      <point x="326" y="549" type="curve" smooth="yes"/>
      <point x="326" y="507"/>
      <point x="266" y="484"/>
      <point x="176" y="473" type="curve"/>
    </contour>
  </outline>
  <guideline angle="0" x="0" y="373"/>
</glyph>
<glyph name="dZerocomb" format="2">
  <unicode hex="A8E0"/>
  <outline>
    <contour>
      <point x="-20" y="890" type="curve" smooth="yes"/>
      <point x="-72" y="890"/>
      <point x="-117" y="857"/>
      <point x="-117" y="800" type="curve" smooth="yes"/>
      <point x="-117" y="753"/>
      <point x="-75" y="709"/>
      <point x="-31" y="709" type="curve" smooth="yes"/>
      <point x="23" y="709"/>
      <point x="67" y="746"/>
      <point x="67" y="798" type="curve" smooth="yes"/>
      <point x="67" y="842"/>
      <point x="27" y="890"/>
    </contour>
    <contour>
      <point x="-2" y="854" type="curve" smooth="yes"/>
      <point x="19" y="854"/>
      <point x="31" y="838"/>
      <point x="31" y="820" type="curve" smooth="yes"/>
      <point x="31" y="780"/>
      <point x="-7" y="746"/>
      <point x="-47" y="746" type="curve" smooth="yes"/>
      <point x="-69" y="746"/>
      <point x="-82" y="763"/>
      <point x="-82" y="781" type="curve" smooth="yes"/>
      <point x="-82" y="817"/>
      <point x="-39" y="854"/>
    </contour>
  </outline>
  <guideline angle="90" x="96" y="0"/>
</glyph>
<glyph name="dOnecomb" format="2">
  <unicode hex="A8E1"/>
  <outline>
    <contour>
      <point x="-20" y="636" type="line"/>
      <point x="8" y="652"/>
      <point x="19" y="664"/>
      <point x="19" y="680" type="curve" smooth="yes"/>
      <point x="19" y="700"/>
      <point x="0" y="716"/>
      <point x="-44" y="760" type="curve"/>
      <point x="35" y="810"/>
      <point x="56" y="833"/>
      <point x="56" y="867" type="curve" smooth="yes"/>
      <point x="56" y="908"/>
      <point x="20" y="950"/>
      <point x="-25" y="950" type="curve" smooth="yes"/>
      <point x="-69" y="950"/>
      <point x="-96" y="921"/>
      <point x="-96" y="888" type="curve" smooth="yes"/>
      <point x="-96" y="859"/>
      <point x="-68" y="826"/>
      <point x="-42" y="806" type="curve"/>
      <point x="-20" y="820" type="line"/>
      <point x="-47" y="841"/>
      <point x="-54" y="860"/>
      <point x="-54" y="874" type="curve" smooth="yes"/>
      <point x="-54" y="896"/>
      <point x="-41" y="915"/>
      <point x="-13" y="915" type="curve" smooth="yes"/>
      <point x="8" y="915"/>
      <point x="19" y="898"/>
      <point x="19" y="885" type="curve" smooth="yes"/>
      <point x="19" y="860"/>
      <point x="-4" y="842"/>
      <point x="-38" y="818" type="curve" smooth="yes"/>
      <point x="-62" y="801"/>
      <point x="-78" y="791"/>
      <point x="-95" y="780" type="curve"/>
      <point x="-95" y="777" type="line"/>
      <point x="-44" y="721"/>
      <point x="-27" y="710"/>
      <point x="-27" y="695" type="curve" smooth="yes"/>
      <point x="-27" y="685"/>
      <point x="-32" y="678"/>
      <point x="-45" y="671" type="curve"/>
    </contour>
  </outline>
  <guideline angle="90" x="101" y="0"/>
</glyph>
<glyph name="dFourcomb" format="2">
  <unicode hex="A8E4"/>
  <outline>
    <contour>
      <point x="-38" y="674" type="curve" smooth="yes"/>
      <point x="0" y="674"/>
      <point x="35" y="697"/>
      <point x="35" y="742" type="curve" smooth="yes"/>
      <point x="35" y="763"/>
      <point x="27" y="793"/>
      <point x="-2" y="825" type="curve" smooth="yes"/>
      <point x="-43" y="870"/>
      <point x="-70" y="902"/>
      <point x="-104" y="935" type="curve"/>
      <point x="-131" y="912" type="line"/>
      <point x="-103" y="889"/>
      <point x="-51" y="835"/>
      <point x="-35" y="819" type="curve" smooth="yes"/>
      <point x="-7" y="791"/>
      <point x="2" y="771"/>
      <point x="2" y="754" type="curve" smooth="yes"/>
      <point x="2" y="724"/>
      <point x="-25" y="705"/>
      <point x="-50" y="705" type="curve" smooth="yes"/>
      <point x="-69" y="705"/>
      <point x="-80" y="716"/>
      <point x="-80" y="731" type="curve" smooth="yes"/>
      <point x="-80" y="755"/>
      <point x="-57" y="782"/>
      <point x="-8" y="817" type="curve" smooth="yes"/>
      <point x="22" y="839"/>
      <point x="61" y="867"/>
      <point x="103" y="897" type="curve"/>
      <point x="89" y="939" type="line"/>
      <point x="86" y="939" type="line"/>
      <point x="31" y="901"/>
      <point x="-11" y="868"/>
      <point x="-24" y="857" type="curve" smooth="yes"/>
      <point x="-95" y="800"/>
      <point x="-113" y="776"/>
      <point x="-113" y="747" type="curve" smooth="yes"/>
      <point x="-113" y="712"/>
      <point x="-78" y="674"/>
    </contour>
  </outline>
  <guideline angle="90" x="102" y="0"/>
</glyph>
<glyph name="dSevencomb" format="2">
  <unicode hex="A8E7"/>
  <outline>
    <contour>
      <point x="-26" y="681" type="curve" smooth="yes"/>
      <point x="28" y="681"/>
      <point x="83" y="717"/>
      <point x="83" y="801" type="curve" smooth="yes"/>
      <point x="83" y="866"/>
      <point x="46" y="910"/>
      <point x="2" y="910" type="curve" smooth="yes"/>
      <point x="-37" y="910"/>
      <point x="-65" y="883"/>
      <point x="-65" y="845" type="curve" smooth="yes"/>
      <point x="-65" y="811"/>
      <point x="-35" y="771"/>
      <point x="4" y="771" type="curve" smooth="yes"/>
      <point x="19" y="771"/>
      <point x="36" y="776"/>
      <point x="48" y="785" type="curve"/>
      <point x="54" y="835" type="line"/>
      <point x="45" y="818"/>
      <point x="11" y="805"/>
      <point x="-4" y="805" type="curve" smooth="yes"/>
      <point x="-21" y="805"/>
      <point x="-29" y="814"/>
      <point x="-29" y="830" type="curve" smooth="yes"/>
      <point x="-29" y="855"/>
      <point x="-3" y="874"/>
      <point x="16" y="874" type="curve" smooth="yes"/>
      <point x="40" y="874"/>
      <point x="48" y="849"/>
      <point x="48" y="823" type="curve" smooth="yes"/>
      <point x="48" y="767"/>
      <point x="20" y="724"/>
      <point x="-30" y="724" type="curve" smooth="yes"/>
      <point x="-80" y="724"/>
      <point x="-109" y="771"/>
      <point x="-109" y="872" type="curve" smooth="yes"/>
      <point x="-109" y="890"/>
      <point x="-107" y="911"/>
      <point x="-105" y="932" type="curve"/>
      <point x="-130" y="929" type="line"/>
      <point x="-133" y="904"/>
      <point x="-135" y="881"/>
      <point x="-135" y="860" type="curve" smooth="yes"/>
      <point x="-135" y="746"/>
      <point x="-98" y="681"/>
    </contour>
  </outline>
  <guideline angle="90" x="123" y="0"/>
</glyph>
<glyph name="dAcomb" format="2">
  <unicode hex="A8EA"/>
  <outline>
    <contour>
      <point x="-108" y="702" type="curve" smooth="yes"/>
      <point x="-60" y="702"/>
      <point x="-23" y="731"/>
      <point x="-23" y="778" type="curve" smooth="yes"/>
      <point x="-23" y="802"/>
      <point x="-32" y="819"/>
      <point x="-44" y="836" type="curve" smooth="yes"/>
      <point x="-54" y="850"/>
      <point x="-76" y="856"/>
      <point x="-97" y="856" type="curve" smooth="yes"/>
      <point x="-116" y="856"/>
      <point x="-135" y="849"/>
      <point x="-152" y="840" type="curve"/>
      <point x="-138" y="803" type="line"/>
      <point x="-125" y="809"/>
      <point x="-108" y="815"/>
      <point x="-93" y="815" type="curve" smooth="yes"/>
      <point x="-77" y="815"/>
      <point x="-62" y="807"/>
      <point x="-62" y="787" type="curve" smooth="yes"/>
      <point x="-62" y="761"/>
      <point x="-87" y="742"/>
      <point x="-119" y="742" type="curve" smooth="yes"/>
      <point x="-163" y="742"/>
      <point x="-183" y="782"/>
      <point x="-197" y="822" type="curve"/>
      <point x="-216" y="812" type="line"/>
      <point x="-196" y="752"/>
      <point x="-167" y="702"/>
    </contour>
    <contour>
      <point x="-64" y="824" type="line"/>
      <point x="-34" y="843"/>
      <point x="-27" y="860"/>
      <point x="-27" y="878" type="curve" smooth="yes"/>
      <point x="-27" y="903"/>
      <point x="-47" y="949"/>
      <point x="-94" y="949" type="curve" smooth="yes"/>
      <point x="-112" y="949"/>
      <point x="-138" y="942"/>
      <point x="-168" y="928" type="curve"/>
      <point x="-153" y="891" type="line"/>
      <point x="-128" y="904"/>
      <point x="-101" y="911"/>
      <point x="-87" y="911" type="curve" smooth="yes"/>
      <point x="-70" y="911"/>
      <point x="-62" y="901"/>
      <point x="-62" y="891" type="curve" smooth="yes"/>
      <point x="-62" y="875"/>
      <point x="-80" y="858"/>
      <point x="-109" y="849" type="curve"/>
    </contour>
    <contour>
      <point x="-22" y="782" type="line"/>
      <point x="-12" y="775"/>
      <point x="-3" y="772"/>
      <point x="10" y="772" type="curve" smooth="yes"/>
      <point x="14" y="772"/>
      <point x="19" y="772"/>
      <point x="24" y="773" type="curve"/>
      <point x="26" y="825" type="line"/>
      <point x="21" y="819"/>
      <point x="4" y="813"/>
      <point x="-11" y="813" type="curve" smooth="yes"/>
      <point x="-28" y="813"/>
      <point x="-34" y="820"/>
      <point x="-41" y="830" type="curve"/>
      <point x="-35" y="771" type="line"/>
    </contour>
    <contour>
      <point x="38" y="668" type="line"/>
      <point x="87" y="924" type="line"/>
      <point x="41" y="924" type="line"/>
      <point x="-4" y="700" type="line"/>
      <point x="23" y="668" type="line"/>
    </contour>
    <contour>
      <point x="137" y="903" type="line"/>
      <point x="137" y="907" type="line"/>
      <point x="120" y="943" type="line"/>
      <point x="-10" y="943" type="line"/>
      <point x="-10" y="939" type="line"/>
      <point x="7" y="903" type="line"/>
    </contour>
  </outline>
  <guideline angle="90" x="121" y="0"/>
</glyph>
<glyph name="dKacomb" format="2">
  <unicode hex="A8EC"/>
  <outline>
    <contour>
      <point x="56" y="705" type="line"/>
      <point x="86" y="734"/>
      <point x="102" y="756"/>
      <point x="102" y="789" type="curve" smooth="yes"/>
      <point x="102" y="830"/>
      <point x="70" y="860"/>
      <point x="50" y="860" type="curve" smooth="yes"/>
      <point x="31" y="860"/>
      <point x="11" y="842"/>
      <point x="-12" y="828" type="curve"/>
      <point x="-35" y="812" type="line" smooth="yes"/>
      <point x="-67" y="790"/>
      <point x="-97" y="768"/>
      <point x="-123" y="768" type="curve" smooth="yes"/>
      <point x="-138" y="768"/>
      <point x="-147" y="778"/>
      <point x="-147" y="792" type="curve" smooth="yes"/>
      <point x="-147" y="817"/>
      <point x="-125" y="833"/>
      <point x="-100" y="833" type="curve" smooth="yes"/>
      <point x="-85" y="833"/>
      <point x="-67" y="825"/>
      <point x="-45" y="801" type="curve"/>
      <point x="-40" y="827" type="line"/>
      <point x="-52" y="850"/>
      <point x="-83" y="873"/>
      <point x="-112" y="873" type="curve" smooth="yes"/>
      <point x="-150" y="873"/>
      <point x="-185" y="847"/>
      <point x="-185" y="804" type="curve" smooth="yes"/>
      <point x="-185" y="771"/>
      <point x="-157" y="730"/>
      <point x="-117" y="730" type="curve" smooth="yes"/>
      <point x="-91" y="730"/>
      <point x="-75" y="741"/>
      <point x="-43" y="761" type="curve" smooth="yes"/>
      <point x="-25" y="772" type="line"/>
      <point x="13" y="798"/>
      <point x="42" y="821"/>
      <point x="62" y="821" type="curve" smooth="yes"/>
      <point x="70" y="821"/>
      <point x="74" y="816"/>
      <point x="74" y="808" type="curve" smooth="yes"/>
      <point x="74" y="788"/>
      <point x="50" y="759"/>
      <point x="25" y="734" type="curve"/>
      <point x="53" y="705" type="line"/>
    </contour>
    <contour>
      <point x="-28" y="668" type="line"/>
      <point x="21" y="925" type="line"/>
      <point x="-25" y="925" type="line"/>
      <point x="-70" y="700" type="line"/>
      <point x="-43" y="668" type="line"/>
    </contour>
    <contour>
      <point x="151" y="903" type="line"/>
      <point x="152" y="907" type="line"/>
      <point x="134" y="943" type="line"/>
      <point x="-184" y="943" type="line"/>
      <point x="-184" y="939" type="line"/>
      <point x="-167" y="903" type="line"/>
    </contour>
  </outline>
  <guideline angle="90" x="134" y="0"/>
</glyph>
<glyph name="dPacomb" format="2">
  <unicode hex="A8EE"/>
  <outline>
    <contour>
      <point x="-48" y="746" type="curve" smooth="yes"/>
      <point x="-27" y="746"/>
      <point x="-15" y="753"/>
      <point x="10" y="768" type="curve"/>
      <point x="20" y="824" type="line"/>
      <point x="-17" y="798"/>
      <point x="-45" y="784"/>
      <point x="-63" y="784" type="curve" smooth="yes"/>
      <point x="-75" y="784"/>
      <point x="-86" y="788"/>
      <point x="-86" y="805" type="curve" smooth="yes"/>
      <point x="-86" y="809"/>
      <point x="-86" y="812"/>
      <point x="-85" y="817" type="curve" smooth="yes"/>
      <point x="-64" y="927" type="line"/>
      <point x="-112" y="927" type="line"/>
      <point x="-120" y="884"/>
      <point x="-129" y="843"/>
      <point x="-129" y="825" type="curve" smooth="yes"/>
      <point x="-129" y="799"/>
      <point x="-98" y="746"/>
    </contour>
    <contour>
      <point x="23" y="668" type="line"/>
      <point x="72" y="927" type="line"/>
      <point x="26" y="927" type="line"/>
      <point x="0" y="792" type="line"/>
      <point x="-2" y="787" type="line"/>
      <point x="-19" y="700" type="line"/>
      <point x="9" y="668" type="line"/>
    </contour>
    <contour>
      <point x="122" y="903" type="line"/>
      <point x="122" y="907" type="line"/>
      <point x="105" y="943" type="line"/>
      <point x="-163" y="943" type="line"/>
      <point x="-163" y="939" type="line"/>
      <point x="-146" y="903" type="line"/>
    </contour>
  </outline>
  <guideline angle="90" x="96" y="0"/>
</glyph>
<glyph name="dRacomb" format="2">
  <unicode hex="A8EF"/>
  <outline>
    <contour>
      <point x="-12" y="917" type="line"/>
      <point x="-12" y="907"/>
      <point x="-15" y="890"/>
      <point x="-18" y="874" type="curve" smooth="yes"/>
      <point x="-21" y="861"/>
      <point x="-24" y="849"/>
      <point x="-27" y="841" type="curve"/>
      <point x="-38" y="842"/>
      <point x="-46" y="844"/>
      <point x="-58" y="844" type="curve" smooth="yes"/>
      <point x="-89" y="844"/>
      <point x="-92" y="833"/>
      <point x="-92" y="824" type="curve" smooth="yes"/>
      <point x="-92" y="813"/>
      <point x="-86" y="797"/>
      <point x="-72" y="775" type="curve" smooth="yes"/>
      <point x="-4" y="668" type="line"/>
      <point x="-1" y="668" type="line"/>
      <point x="28" y="688" type="line"/>
      <point x="-45" y="778" type="line"/>
      <point x="-10" y="784"/>
      <point x="13" y="798"/>
      <point x="26" y="865" type="curve" smooth="yes"/>
      <point x="30" y="884"/>
      <point x="31" y="899"/>
      <point x="32" y="917" type="curve"/>
    </contour>
    <contour>
      <point x="92" y="903" type="line"/>
      <point x="93" y="907" type="line"/>
      <point x="76" y="943" type="line"/>
      <point x="-105" y="943" type="line"/>
      <point x="-106" y="939" type="line"/>
      <point x="-89" y="903" type="line"/>
    </contour>
  </outline>
  <guideline angle="90" x="68" y="0"/>
</glyph>
<glyph name="dAvagrahacomb" format="2">
  <unicode hex="A8F1"/>
  <outline>
    <contour>
      <point x="64" y="910" type="line"/>
      <point x="53" y="945" type="line"/>
      <point x="35" y="947"/>
      <point x="20" y="948"/>
      <point x="7" y="948" type="curve" smooth="yes"/>
      <point x="-70" y="948"/>
      <point x="-96" y="924"/>
      <point x="-96" y="889" type="curve" smooth="yes"/>
      <point x="-96" y="866"/>
      <point x="-78" y="846"/>
      <point x="-43" y="819" type="curve" smooth="yes"/>
      <point x="-14" y="797"/>
      <point x="-1" y="783"/>
      <point x="-1" y="763" type="curve" smooth="yes"/>
      <point x="-1" y="735"/>
      <point x="-22" y="721"/>
      <point x="-51" y="721" type="curve" smooth="yes"/>
      <point x="-73" y="721"/>
      <point x="-97" y="730"/>
      <point x="-114" y="772" type="curve"/>
      <point x="-136" y="761" type="line"/>
      <point x="-124" y="727"/>
      <point x="-96" y="680"/>
      <point x="-39" y="680" type="curve" smooth="yes"/>
      <point x="4" y="680"/>
      <point x="42" y="708"/>
      <point x="42" y="749" type="curve" smooth="yes"/>
      <point x="42" y="784"/>
      <point x="15" y="811"/>
      <point x="-9" y="829" type="curve" smooth="yes"/>
      <point x="-28" y="843"/>
      <point x="-50" y="857"/>
      <point x="-50" y="880" type="curve" smooth="yes"/>
      <point x="-50" y="894"/>
      <point x="-46" y="908"/>
      <point x="4" y="908" type="curve" smooth="yes"/>
      <point x="18" y="908"/>
      <point x="38" y="907"/>
      <point x="63" y="905" type="curve"/>
    </contour>
  </outline>
  <guideline angle="90" x="81" y="0"/>
</glyph>
<glyph name="dCandrabinduSpacing" format="2">
  <advance width="550"/>
  <unicode hex="A8F2"/>
  <outline>
    <contour>
      <point x="76" y="353" type="line"/>
      <point x="107" y="259"/>
      <point x="178" y="198"/>
      <point x="291" y="198" type="curve" smooth="yes"/>
      <point x="366" y="198"/>
      <point x="453" y="227"/>
      <point x="516" y="326" type="curve"/>
      <point x="456" y="381" type="line"/>
      <point x="419" y="327"/>
      <point x="363" y="263"/>
      <point x="268" y="263" type="curve" smooth="yes"/>
      <point x="219" y="263"/>
      <point x="151" y="282"/>
      <point x="111" y="371" type="curve"/>
    </contour>
    <contour>
      <point x="298" y="460" type="line"/>
      <point x="222" y="395" type="line"/>
      <point x="277" y="329" type="line"/>
      <point x="353" y="392" type="line"/>
    </contour>
  </outline>
</glyph>
<glyph name="dCaret" format="2">
  <unicode hex="A8FA"/>
  <outline>
    <contour>
      <point x="302" y="842" type="line"/>
      <point x="254" y="892" type="line"/>
      <point x="77" y="753" type="line"/>
      <point x="-17" y="884" type="line"/>
      <point x="-21" y="884" type="line"/>
      <point x="-57" y="855" type="line"/>
      <point x="79" y="668" type="line"/>
      <point x="83" y="668" type="line"/>
      <point x="300" y="834" type="line"/>
    </contour>
  </outline>
</glyph>
<glyph name="dShirorekhaa" format="2">
  <advance width="260"/>
  <unicode hex="A8FB"/>
  <outline>
    <contour>
      <point x="345" y="545" type="line"/>
      <point x="347" y="555" type="line"/>
      <point x="316" y="620" type="line"/>
      <point x="34" y="620" type="line"/>
      <point x="32" y="610" type="line"/>
      <point x="63" y="545" type="line"/>
    </contour>
  </outline>
</glyph>
<glyph name="dB.half" format="2">
  <advance width="342"/>
  <outline>
    <contour>
      <point x="259" y="128" type="curve" smooth="yes"/>
      <point x="362" y="128"/>
      <point x="458" y="190"/>
      <point x="458" y="287" type="curve" smooth="yes"/>
      <point x="458" y="378"/>
      <point x="390" y="467"/>
      <point x="256" y="467" type="curve" smooth="yes"/>
      <point x="143" y="467"/>
      <point x="52" y="404"/>
      <point x="52" y="305" type="curve" smooth="yes"/>
      <point x="52" y="230"/>
      <point x="116" y="128"/>
    </contour>
    <contour>
      <point x="223" y="192" type="curve" smooth="yes"/>
      <point x="157" y="192"/>
      <point x="117" y="224"/>
      <point x="117" y="272" type="curve" smooth="yes"/>
      <point x="117" y="347"/>
      <point x="208" y="394"/>
      <point x="289" y="394" type="curve" smooth="yes"/>
      <point x="347" y="394"/>
      <point x="398" y="375"/>
      <point x="398" y="323" type="curve" smooth="yes"/>
      <point x="398" y="252"/>
      <point x="307" y="192"/>
    </contour>
    <contour>
      <point x="351" y="184" type="line"/>
      <point x="203" y="427" type="line"/>
      <point x="166" y="404" type="line"/>
      <point x="307" y="171" type="line"/>
    </contour>
    <contour>
      <point x="499" y="545" type="line"/>
      <point x="501" y="555" type="line"/>
      <point x="470" y="620" type="line"/>
      <point x="34" y="620" type="line"/>
      <point x="32" y="610" type="line"/>
      <point x="63" y="545" type="line"/>
    </contour>
  </outline>
</glyph>
<glyph name="dBNa" format="2">
  <advance width="612"/>
  <outline>
    <contour>
      <point x="242" y="139" type="curve" smooth="yes"/>
      <point x="360" y="139"/>
      <point x="466" y="211"/>
      <point x="466" y="302" type="curve" smooth="yes"/>
      <point x="466" y="367"/>
      <point x="411" y="467"/>
      <point x="267" y="467" type="curve" smooth="yes"/>
      <point x="142" y="467"/>
      <point x="61" y="392"/>
      <point x="61" y="300" type="curve" smooth="yes"/>
      <point x="61" y="211"/>
      <point x="126" y="139"/>
    </contour>
    <contour>
      <point x="153" y="-62" type="curve" smooth="yes"/>
      <point x="177" y="-62"/>
      <point x="183" y="-50"/>
      <point x="183" y="-30" type="curve" smooth="yes"/>
      <point x="183" y="-19"/>
      <point x="181" y="3"/>
      <point x="174" y="41" type="curve"/>
      <point x="480" y="231" type="line"/>
      <point x="355" y="236" type="line"/>
      <point x="72" y="66" type="line" smooth="yes"/>
      <point x="53" y="55"/>
      <point x="36" y="44"/>
      <point x="36" y="27" type="curve" smooth="yes"/>
      <point x="36" y="-16"/>
      <point x="120" y="-62"/>
    </contour>
    <contour>
      <point x="346" y="195" type="line"/>
      <point x="209" y="421" type="line"/>
      <point x="167" y="403" type="line"/>
      <point x="307" y="173" type="line"/>
    </contour>
    <contour>
      <point x="225" y="192" type="curve" smooth="yes"/>
      <point x="167" y="192"/>
      <point x="127" y="221"/>
      <point x="127" y="273" type="curve" smooth="yes"/>
      <point x="127" y="345"/>
      <point x="203" y="394"/>
      <point x="303" y="394" type="curve" smooth="yes"/>
      <point x="360" y="394"/>
      <point x="408" y="375"/>
      <point x="408" y="326" type="curve" smooth="yes"/>
      <point x="408" y="251"/>
      <point x="298" y="192"/>
    </contour>
    <contour>
      <point x="474" y="-10" type="line"/>
      <point x="587" y="581" type="line"/>
      <point x="503" y="581" type="line"/>
      <point x="458" y="357" type="line"/>
      <point x="437" y="357" type="line"/>
      <point x="442" y="281" type="line"/>
      <point x="396" y="52" type="line"/>
      <point x="464" y="-10" type="line"/>
    </contour>
    <contour>
      <point x="697" y="545" type="line"/>
      <point x="699" y="555" type="line"/>
      <point x="667" y="620" type="line"/>
      <point x="33" y="620" type="line"/>
      <point x="31" y="610" type="line"/>
      <point x="63" y="545" type="line"/>
    </contour>
  </outline>
</glyph>
<glyph name="dBRa" format="2">
  <advance width="612"/>
  <outline>
    <contour>
      <point x="503" y="581" type="line"/>
      <point x="459" y="357" type="line"/>
      <point x="438" y="357" type="line"/>
      <point x="445" y="291" type="line"/>
      <point x="397" y="52" type="line"/>
      <point x="464" y="-10" type="line"/>
      <point x="474" y="-10" type="line"/>
      <point x="587" y="581" type="line"/>
    </contour>
    <contour>
      <point x="393" y="257" type="line"/>
      <point x="58" y="58" type="line"/>
      <point x="107" y="-3" type="line"/>
      <point x="496" y="239" type="line"/>
    </contour>
    <contour>
      <point x="697" y="545" type="line"/>
      <point x="699" y="555" type="line"/>
      <point x="668" y="620" type="line"/>
      <point x="34" y="620" type="line"/>
      <point x="32" y="610" type="line"/>
      <point x="63" y="545" type="line"/>
    </contour>
    <contour>
      <point x="240" y="139" type="curve" smooth="yes"/>
      <point x="375" y="139"/>
      <point x="465" y="235"/>
      <point x="465" y="297" type="curve" smooth="yes"/>
      <point x="465" y="396"/>
      <point x="389" y="467"/>
      <point x="265" y="467" type="curve" smooth="yes"/>
      <point x="147" y="467"/>
      <point x="62" y="400"/>
      <point x="62" y="304" type="curve" smooth="yes"/>
      <point x="62" y="214"/>
      <point x="129" y="139"/>
    </contour>
    <contour>
      <point x="232" y="192" type="curve" smooth="yes"/>
      <point x="168" y="192"/>
      <point x="126" y="223"/>
      <point x="126" y="272" type="curve" smooth="yes"/>
      <point x="126" y="343"/>
      <point x="212" y="394"/>
      <point x="300" y="394" type="curve" smooth="yes"/>
      <point x="358" y="394"/>
      <point x="409" y="374"/>
      <point x="409" y="324" type="curve" smooth="yes"/>
      <point x="409" y="256"/>
      <point x="320" y="192"/>
    </contour>
    <contour>
      <point x="340" y="202" type="line"/>
      <point x="213" y="412" type="line"/>
      <point x="172" y="397" type="line"/>
      <point x="307" y="173" type="line"/>
    </contour>
  </outline>
</glyph>
<glyph name="dBhR.half" format="2">
  <advance width="470"/>
  <outline>
    <contour>
      <point x="575" y="208" type="line"/>
      <point x="544" y="323" type="line"/>
      <point x="201" y="323" type="line" smooth="yes"/>
      <point x="180" y="323"/>
      <point x="171" y="308"/>
      <point x="171" y="292" type="curve" smooth="yes"/>
      <point x="171" y="251"/>
      <point x="240" y="154"/>
      <point x="282" y="154" type="curve" smooth="yes"/>
      <point x="311" y="154"/>
      <point x="320" y="185"/>
      <point x="350" y="286" type="curve" smooth="yes"/>
      <point x="368" y="346"/>
      <point x="384" y="400"/>
      <point x="384" y="443" type="curve" smooth="yes"/>
      <point x="384" y="529"/>
      <point x="319" y="633"/>
      <point x="219" y="633" type="curve" smooth="yes"/>
      <point x="154" y="633"/>
      <point x="106" y="597"/>
      <point x="106" y="531" type="curve" smooth="yes"/>
      <point x="106" y="474"/>
      <point x="141" y="422"/>
      <point x="208" y="422" type="curve"/>
      <point x="209" y="422"/>
      <point x="214" y="422"/>
      <point x="228" y="424" type="curve"/>
      <point x="230" y="435" type="line"/>
      <point x="203" y="447"/>
      <point x="179" y="468"/>
      <point x="179" y="499" type="curve" smooth="yes"/>
      <point x="179" y="536"/>
      <point x="211" y="563"/>
      <point x="252" y="563" type="curve" smooth="yes"/>
      <point x="288" y="563"/>
      <point x="311" y="543"/>
      <point x="311" y="485" type="curve" smooth="yes"/>
      <point x="311" y="406"/>
      <point x="280" y="333"/>
      <point x="251" y="249" type="curve"/>
      <point x="531" y="249" type="line"/>
      <point x="529" y="264" type="line"/>
      <point x="247" y="54" type="line"/>
      <point x="302" y="0" type="line"/>
    </contour>
    <contour>
      <point x="587" y="545" type="line"/>
      <point x="589" y="555" type="line"/>
      <point x="557" y="620" type="line"/>
      <point x="430" y="620" type="line"/>
      <point x="428" y="610" type="line"/>
      <point x="460" y="545" type="line"/>
    </contour>
  </outline>
</glyph>
<glyph name="dBhRVa" format="2">
  <advance width="1065"/>
  <outline>
    <component base="dVa" xOffset="468"/>
    <contour>
      <point x="583" y="545" type="line"/>
      <point x="597" y="620" type="line"/>
      <point x="430" y="620" type="line"/>
      <point x="428" y="610" type="line"/>
      <point x="460" y="545" type="line"/>
    </contour>
    <contour>
      <point x="574" y="211" type="line"/>
      <point x="545" y="280" type="line"/>
      <point x="248" y="59" type="line"/>
      <point x="304" y="4" type="line"/>
    </contour>
    <contour>
      <point x="282" y="159" type="curve" smooth="yes"/>
      <point x="308" y="159"/>
      <point x="315" y="183"/>
      <point x="342" y="271" type="curve" smooth="yes"/>
      <point x="373" y="373"/>
      <point x="385" y="418"/>
      <point x="385" y="450" type="curve" smooth="yes"/>
      <point x="385" y="534"/>
      <point x="320" y="633"/>
      <point x="225" y="633" type="curve" smooth="yes"/>
      <point x="167" y="633"/>
      <point x="106" y="601"/>
      <point x="106" y="526" type="curve" smooth="yes"/>
      <point x="106" y="474"/>
      <point x="138" y="422"/>
      <point x="208" y="422" type="curve" smooth="yes"/>
      <point x="215" y="422"/>
      <point x="224" y="423"/>
      <point x="228" y="424" type="curve"/>
      <point x="230" y="435" type="line"/>
      <point x="203" y="449"/>
      <point x="179" y="471"/>
      <point x="179" y="501" type="curve" smooth="yes"/>
      <point x="179" y="539"/>
      <point x="213" y="563"/>
      <point x="252" y="563" type="curve" smooth="yes"/>
      <point x="289" y="563"/>
      <point x="312" y="547"/>
      <point x="312" y="492" type="curve" smooth="yes"/>
      <point x="312" y="433"/>
      <point x="287" y="370"/>
      <point x="249" y="254" type="curve"/>
      <point x="566" y="254" type="line"/>
      <point x="580" y="328" type="line"/>
      <point x="201" y="328" type="line" smooth="yes"/>
      <point x="180" y="328"/>
      <point x="171" y="316"/>
      <point x="171" y="300" type="curve" smooth="yes"/>
      <point x="171" y="258"/>
      <point x="240" y="159"/>
    </contour>
  </outline>
</glyph>
<glyph name="dCCYa" format="2">
  <advance width="1315"/>
  <outline>
    <component base="dYa" xOffset="733"/>
    <contour>
      <point x="826" y="620" type="line"/>
      <point x="34" y="620" type="line"/>
      <point x="32" y="610" type="line"/>
      <point x="63" y="545" type="line"/>
      <point x="821" y="545" type="line"/>
    </contour>
    <contour>
      <point x="271" y="371" type="line"/>
      <point x="398" y="392" type="line"/>
      <point x="426" y="371" type="line"/>
      <point x="511" y="371" type="line"/>
      <point x="665" y="389" type="line"/>
      <point x="729" y="373" type="line"/>
      <point x="743" y="373"/>
      <point x="749" y="373"/>
      <point x="771" y="372" type="curve"/>
      <point x="773" y="382" type="line"/>
      <point x="742" y="446" type="line"/>
      <point x="65" y="446" type="line"/>
      <point x="63" y="436" type="line"/>
      <point x="95" y="370" type="line"/>
    </contour>
    <contour>
      <point x="489" y="270" type="line"/>
      <point x="402" y="211"/>
      <point x="353" y="192"/>
      <point x="308" y="192" type="curve" smooth="yes"/>
      <point x="269" y="192"/>
      <point x="224" y="211"/>
      <point x="224" y="268" type="curve" smooth="yes"/>
      <point x="224" y="355"/>
      <point x="336" y="371"/>
      <point x="426" y="371" type="curve"/>
      <point x="433" y="409" type="line"/>
      <point x="203" y="384" type="line"/>
      <point x="174" y="359"/>
      <point x="158" y="329"/>
      <point x="158" y="292" type="curve" smooth="yes"/>
      <point x="158" y="222"/>
      <point x="225" y="128"/>
      <point x="346" y="128" type="curve" smooth="yes"/>
      <point x="408" y="128"/>
      <point x="458" y="151"/>
      <point x="525" y="198" type="curve"/>
    </contour>
    <contour>
      <point x="819" y="289" type="line"/>
      <point x="711" y="210"/>
      <point x="656" y="192"/>
      <point x="611" y="192" type="curve" smooth="yes"/>
      <point x="572" y="192"/>
      <point x="527" y="211"/>
      <point x="527" y="268" type="curve" smooth="yes"/>
      <point x="527" y="355"/>
      <point x="639" y="373"/>
      <point x="729" y="373" type="curve"/>
      <point x="736" y="409" type="line"/>
      <point x="506" y="384" type="line"/>
      <point x="477" y="359"/>
      <point x="461" y="329"/>
      <point x="461" y="292" type="curve" smooth="yes"/>
      <point x="461" y="222"/>
      <point x="528" y="128"/>
      <point x="649" y="128" type="curve" smooth="yes"/>
      <point x="711" y="128"/>
      <point x="774" y="157"/>
      <point x="848" y="215" type="curve"/>
    </contour>
  </outline>
</glyph>
<glyph name="dCChLa" format="2">
  <advance width="1071"/>
  <outline>
    <contour>
      <point x="662" y="110" type="curve" smooth="yes"/>
      <point x="841" y="110"/>
      <point x="1046" y="244"/>
      <point x="1046" y="424" type="curve" smooth="yes"/>
      <point x="1046" y="520"/>
      <point x="993" y="604"/>
      <point x="908" y="604" type="curve" smooth="yes"/>
      <point x="830" y="604"/>
      <point x="761" y="551"/>
      <point x="761" y="469" type="curve" smooth="yes"/>
      <point x="761" y="384"/>
      <point x="846" y="318"/>
      <point x="893" y="284" type="curve"/>
      <point x="926" y="313" type="line"/>
      <point x="864" y="350"/>
      <point x="840" y="399"/>
      <point x="840" y="449" type="curve" smooth="yes"/>
      <point x="840" y="505"/>
      <point x="875" y="544"/>
      <point x="921" y="544" type="curve" smooth="yes"/>
      <point x="957" y="544"/>
      <point x="987" y="521"/>
      <point x="987" y="463" type="curve" smooth="yes"/>
      <point x="987" y="329"/>
      <point x="792" y="172"/>
      <point x="645" y="172" type="curve" smooth="yes"/>
      <point x="575" y="172"/>
      <point x="523" y="196"/>
      <point x="523" y="245" type="curve" smooth="yes"/>
      <point x="523" y="292"/>
      <point x="583" y="335"/>
      <point x="704" y="344" type="curve"/>
      <point x="692" y="423" type="line"/>
      <point x="575" y="413"/>
      <point x="453" y="366"/>
      <point x="453" y="274" type="curve" smooth="yes"/>
      <point x="453" y="197"/>
      <point x="536" y="110"/>
    </contour>
    <contour>
      <point x="529" y="-262" type="line"/>
      <point x="571" y="-232" type="line"/>
      <point x="504" y="-170"/>
      <point x="481" y="-120"/>
      <point x="481" y="-72" type="curve" smooth="yes"/>
      <point x="481" y="-10"/>
      <point x="518" y="21"/>
      <point x="564" y="21" type="curve" smooth="yes"/>
      <point x="597" y="21"/>
      <point x="627" y="5"/>
      <point x="645" y="-23" type="curve"/>
      <point x="669" y="8" type="line"/>
      <point x="640" y="53"/>
      <point x="599" y="88"/>
      <point x="540" y="88" type="curve" smooth="yes"/>
      <point x="466" y="88"/>
      <point x="414" y="36"/>
      <point x="414" y="-39" type="curve" smooth="yes"/>
      <point x="414" y="-114"/>
      <point x="465" y="-193"/>
      <point x="519" y="-262" type="curve"/>
    </contour>
    <contour>
      <point x="352" y="125" type="curve" smooth="yes"/>
      <point x="409" y="125"/>
      <point x="457" y="140"/>
      <point x="519" y="182" type="curve"/>
      <point x="490" y="255" type="line"/>
      <point x="406" y="202"/>
      <point x="344" y="189"/>
      <point x="315" y="189" type="curve" smooth="yes"/>
      <point x="258" y="189"/>
      <point x="224" y="215"/>
      <point x="224" y="265" type="curve" smooth="yes"/>
      <point x="224" y="354"/>
      <point x="324" y="373"/>
      <point x="440" y="373" type="curve"/>
      <point x="447" y="408" type="line"/>
      <point x="203" y="382" type="line"/>
      <point x="172" y="360"/>
      <point x="157" y="327"/>
      <point x="157" y="289" type="curve" smooth="yes"/>
      <point x="157" y="204"/>
      <point x="237" y="125"/>
    </contour>
    <contour>
      <point x="787" y="-218" type="line"/>
      <point x="857" y="-157"/>
      <point x="892" y="-102"/>
      <point x="892" y="-40" type="curve" smooth="yes"/>
      <point x="892" y="16"/>
      <point x="853" y="86"/>
      <point x="779" y="86" type="curve" smooth="yes"/>
      <point x="709" y="86"/>
      <point x="651" y="25"/>
      <point x="593" y="-64" type="curve"/>
      <point x="654" y="-107" type="line"/>
      <point x="710" y="-19"/>
      <point x="757" y="27"/>
      <point x="798" y="27" type="curve" smooth="yes"/>
      <point x="823" y="27"/>
      <point x="840" y="12"/>
      <point x="840" y="-15" type="curve" smooth="yes"/>
      <point x="840" y="-51"/>
      <point x="811" y="-95"/>
      <point x="725" y="-166" type="curve"/>
      <point x="779" y="-218" type="line"/>
    </contour>
    <contour>
      <point x="206" y="370" type="line"/>
      <point x="402" y="388" type="line"/>
      <point x="440" y="373" type="line"/>
      <point x="488" y="373" type="line"/>
      <point x="459" y="446" type="line"/>
      <point x="65" y="446" type="line"/>
      <point x="63" y="436" type="line"/>
      <point x="95" y="370" type="line"/>
    </contour>
    <contour>
      <point x="719" y="10" type="line"/>
      <point x="744" y="137" type="line"/>
      <point x="668" y="137" type="line"/>
      <point x="639" y="-8" type="line"/>
    </contour>
    <contour>
      <point x="537" y="371" type="line"/>
      <point x="514" y="392"/>
      <point x="495" y="416"/>
      <point x="495" y="450" type="curve" smooth="yes"/>
      <point x="495" y="501"/>
      <point x="543" y="536"/>
      <point x="608" y="536" type="curve" smooth="yes"/>
      <point x="620" y="536"/>
      <point x="629" y="535"/>
      <point x="636" y="534" type="curve"/>
      <point x="632" y="560" type="line"/>
      <point x="471" y="560" type="line"/>
      <point x="440" y="531"/>
      <point x="426" y="508"/>
      <point x="426" y="472" type="curve" smooth="yes"/>
      <point x="426" y="428"/>
      <point x="455" y="383"/>
      <point x="506" y="343" type="curve"/>
    </contour>
    <contour>
      <point x="1156" y="545" type="line"/>
      <point x="1158" y="555" type="line"/>
      <point x="1127" y="620" type="line"/>
      <point x="34" y="620" type="line"/>
      <point x="32" y="610" type="line"/>
      <point x="63" y="545" type="line"/>
    </contour>
  </outline>
  <guideline angle="90" x="759" y="0"/>
  <guideline angle="90" x="830" y="0"/>
</glyph>
<glyph name="dCChMa" format="2">
  <advance width="1071"/>
  <outline>
    <contour>
      <point x="662" y="110" type="curve" smooth="yes"/>
      <point x="841" y="110"/>
      <point x="1046" y="251"/>
      <point x="1046" y="424" type="curve" smooth="yes"/>
      <point x="1046" y="520"/>
      <point x="993" y="604"/>
      <point x="908" y="604" type="curve" smooth="yes"/>
      <point x="830" y="604"/>
      <point x="761" y="551"/>
      <point x="761" y="469" type="curve" smooth="yes"/>
      <point x="761" y="384"/>
      <point x="846" y="318"/>
      <point x="893" y="284" type="curve"/>
      <point x="926" y="313" type="line"/>
      <point x="864" y="350"/>
      <point x="840" y="399"/>
      <point x="840" y="449" type="curve" smooth="yes"/>
      <point x="840" y="505"/>
      <point x="875" y="544"/>
      <point x="921" y="544" type="curve" smooth="yes"/>
      <point x="957" y="544"/>
      <point x="987" y="521"/>
      <point x="987" y="463" type="curve" smooth="yes"/>
      <point x="987" y="329"/>
      <point x="792" y="172"/>
      <point x="645" y="172" type="curve" smooth="yes"/>
      <point x="575" y="172"/>
      <point x="523" y="196"/>
      <point x="523" y="245" type="curve" smooth="yes"/>
      <point x="523" y="292"/>
      <point x="583" y="335"/>
      <point x="704" y="344" type="curve"/>
      <point x="692" y="423" type="line"/>
      <point x="575" y="413"/>
      <point x="453" y="366"/>
      <point x="453" y="274" type="curve" smooth="yes"/>
      <point x="453" y="197"/>
      <point x="536" y="110"/>
    </contour>
    <contour>
      <point x="352" y="125" type="curve" smooth="yes"/>
      <point x="409" y="125"/>
      <point x="457" y="140"/>
      <point x="519" y="182" type="curve"/>
      <point x="483" y="251" type="line"/>
      <point x="406" y="202"/>
      <point x="344" y="189"/>
      <point x="315" y="189" type="curve" smooth="yes"/>
      <point x="258" y="189"/>
      <point x="224" y="215"/>
      <point x="224" y="265" type="curve" smooth="yes"/>
      <point x="224" y="354"/>
      <point x="324" y="373"/>
      <point x="440" y="373" type="curve"/>
      <point x="447" y="408" type="line"/>
      <point x="203" y="382" type="line"/>
      <point x="172" y="360"/>
      <point x="157" y="327"/>
      <point x="157" y="289" type="curve" smooth="yes"/>
      <point x="157" y="204"/>
      <point x="237" y="125"/>
    </contour>
    <contour>
      <point x="521" y="-167" type="curve" smooth="yes"/>
      <point x="534" y="-167"/>
      <point x="546" y="-159"/>
      <point x="549" y="-142" type="curve" smooth="yes"/>
      <point x="603" y="145" type="line"/>
      <point x="538" y="179" type="line"/>
      <point x="487" y="-81" type="line"/>
      <point x="780" y="-81" type="line"/>
      <point x="792" y="-16" type="line"/>
      <point x="455" y="-16" type="line" smooth="yes"/>
      <point x="434" y="-16"/>
      <point x="425" y="-26"/>
      <point x="425" y="-44" type="curve" smooth="yes"/>
      <point x="425" y="-91"/>
      <point x="492" y="-167"/>
    </contour>
    <contour>
      <point x="206" y="370" type="line"/>
      <point x="386" y="388" type="line"/>
      <point x="440" y="373" type="line"/>
      <point x="483" y="373" type="line"/>
      <point x="478" y="446" type="line"/>
      <point x="65" y="446" type="line"/>
      <point x="63" y="436" type="line"/>
      <point x="95" y="370" type="line"/>
    </contour>
    <contour>
      <point x="781" y="-237" type="line"/>
      <point x="861" y="194" type="line"/>
      <point x="781" y="164" type="line"/>
      <point x="712" y="-181" type="line"/>
      <point x="771" y="-237" type="line"/>
    </contour>
    <contour>
      <point x="537" y="371" type="line"/>
      <point x="514" y="392"/>
      <point x="495" y="416"/>
      <point x="495" y="450" type="curve" smooth="yes"/>
      <point x="495" y="501"/>
      <point x="543" y="536"/>
      <point x="608" y="536" type="curve" smooth="yes"/>
      <point x="620" y="536"/>
      <point x="629" y="535"/>
      <point x="636" y="534" type="curve"/>
      <point x="632" y="560" type="line"/>
      <point x="471" y="560" type="line"/>
      <point x="440" y="531"/>
      <point x="426" y="508"/>
      <point x="426" y="472" type="curve" smooth="yes"/>
      <point x="426" y="428"/>
      <point x="455" y="383"/>
      <point x="506" y="343" type="curve"/>
    </contour>
    <contour>
      <point x="1156" y="545" type="line"/>
      <point x="1158" y="555" type="line"/>
      <point x="1127" y="620" type="line"/>
      <point x="34" y="620" type="line"/>
      <point x="32" y="610" type="line"/>
      <point x="63" y="545" type="line"/>
    </contour>
  </outline>
</glyph>
<glyph name="dCNya" format="2">
  <advance width="764"/>
  <outline>
    <contour>
      <point x="589" y="-202" type="line"/>
      <point x="741" y="581" type="line"/>
      <point x="655" y="581" type="line"/>
      <point x="513" y="-135" type="line"/>
      <point x="579" y="-202" type="line"/>
    </contour>
    <contour>
      <point x="262" y="-145" type="curve" smooth="yes"/>
      <point x="350" y="-145"/>
      <point x="432" y="-101"/>
      <point x="432" y="9" type="curve" smooth="yes"/>
      <point x="432" y="86"/>
      <point x="371" y="154"/>
      <point x="293" y="156" type="curve" smooth="yes"/>
      <point x="249" y="157"/>
      <point x="212" y="144"/>
      <point x="174" y="124" type="curve"/>
      <point x="201" y="50" type="line"/>
      <point x="236" y="66"/>
      <point x="280" y="83"/>
      <point x="315" y="83" type="curve" smooth="yes"/>
      <point x="355" y="83"/>
      <point x="374" y="60"/>
      <point x="374" y="28" type="curve" smooth="yes"/>
      <point x="374" y="-38"/>
      <point x="306" y="-70"/>
      <point x="249" y="-70" type="curve" smooth="yes"/>
      <point x="136" y="-70"/>
      <point x="84" y="4"/>
      <point x="48" y="90" type="curve"/>
      <point x="11" y="70" type="line"/>
      <point x="72" y="-84"/>
      <point x="156" y="-145"/>
    </contour>
    <contour>
      <point x="510" y="-52" type="curve" smooth="yes"/>
      <point x="513" y="-52"/>
      <point x="536" y="-51"/>
      <point x="558" y="-42" type="curve"/>
      <point x="575" y="49" type="line"/>
      <point x="543" y="29"/>
      <point x="512" y="20"/>
      <point x="484" y="20" type="curve" smooth="yes"/>
      <point x="459" y="20"/>
      <point x="436" y="28"/>
      <point x="422" y="43" type="curve"/>
      <point x="413" y="-24" type="line"/>
      <point x="431" y="-16" type="line"/>
      <point x="445" y="-31"/>
      <point x="471" y="-52"/>
    </contour>
    <contour>
      <point x="380" y="187" type="curve" smooth="yes"/>
      <point x="432" y="187"/>
      <point x="501" y="193"/>
      <point x="624" y="289" type="curve"/>
      <point x="633" y="389" type="line"/>
      <point x="485" y="275"/>
      <point x="406" y="249"/>
      <point x="347" y="249" type="curve" smooth="yes"/>
      <point x="304" y="249"/>
      <point x="271" y="268"/>
      <point x="271" y="309" type="curve" smooth="yes"/>
      <point x="271" y="381"/>
      <point x="367" y="400"/>
      <point x="484" y="400" type="curve"/>
      <point x="491" y="437" type="line"/>
      <point x="270" y="437" type="line"/>
      <point x="227" y="403"/>
      <point x="207" y="375"/>
      <point x="207" y="335" type="curve" smooth="yes"/>
      <point x="207" y="267"/>
      <point x="265" y="187"/>
    </contour>
    <contour>
      <point x="249" y="397" type="line"/>
      <point x="431" y="418" type="line"/>
      <point x="484" y="400" type="line"/>
      <point x="488" y="400"/>
      <point x="494" y="400"/>
      <point x="512" y="399" type="curve"/>
      <point x="514" y="409" type="line"/>
      <point x="484" y="471" type="line"/>
      <point x="101" y="471" type="line"/>
      <point x="99" y="461" type="line"/>
      <point x="131" y="397" type="line"/>
    </contour>
    <contour>
      <point x="849" y="545" type="line"/>
      <point x="851" y="555" type="line"/>
      <point x="819" y="620" type="line"/>
      <point x="33" y="620" type="line"/>
      <point x="31" y="610" type="line"/>
      <point x="63" y="545" type="line"/>
    </contour>
  </outline>
</glyph>
<glyph name="dCandrabinduHeadline" format="2">
  <outline>
    <contour>
      <point x="-40" y="672" type="curve" smooth="yes"/>
      <point x="47" y="672"/>
      <point x="115" y="725"/>
      <point x="154" y="812" type="curve"/>
      <point x="88" y="866" type="line"/>
      <point x="62" y="801"/>
      <point x="12" y="737"/>
      <point x="-57" y="737" type="curve" smooth="yes"/>
      <point x="-106" y="737"/>
      <point x="-154" y="763"/>
      <point x="-183" y="854" type="curve"/>
      <point x="-214" y="838" type="line"/>
      <point x="-188" y="739"/>
      <point x="-138" y="672"/>
    </contour>
    <contour>
      <point x="85" y="545" type="line"/>
      <point x="87" y="555" type="line"/>
      <point x="56" y="620" type="line"/>
      <point x="-214" y="620" type="line"/>
      <point x="-216" y="610" type="line"/>
      <point x="-185" y="545" type="line"/>
    </contour>
    <contour>
      <point x="24" y="865" type="line"/>
      <point x="-33" y="930" type="line"/>
      <point x="-105" y="869" type="line"/>
      <point x="-47" y="802" type="line"/>
    </contour>
  </outline>
</glyph>
<glyph name="dCandrabinduInvertedHeadline" format="2">
  <outline>
    <contour>
      <point x="85" y="545" type="line"/>
      <point x="87" y="555" type="line"/>
      <point x="56" y="620" type="line"/>
      <point x="-214" y="620" type="line"/>
      <point x="-216" y="610" type="line"/>
      <point x="-185" y="545" type="line"/>
    </contour>
    <contour>
      <point x="139" y="765" type="line"/>
      <point x="110" y="860"/>
      <point x="57" y="930"/>
      <point x="-38" y="930" type="curve" smooth="yes"/>
      <point x="-122" y="930"/>
      <point x="-180" y="877"/>
      <point x="-229" y="788" type="curve"/>
      <point x="-167" y="734" type="line"/>
      <point x="-130" y="804"/>
      <point x="-86" y="865"/>
      <point x="-20" y="865" type="curve" smooth="yes"/>
      <point x="27" y="865"/>
      <point x="74" y="833"/>
      <point x="105" y="748" type="curve"/>
    </contour>
    <contour>
      <point x="-44" y="672" type="line"/>
      <point x="27" y="735" type="line"/>
      <point x="-30" y="800" type="line"/>
      <point x="-102" y="739" type="line"/>
    </contour>
  </outline>
</glyph>
<glyph name="dDBa" format="2">
  <advance width="522"/>
  <outline>
    <contour>
      <point x="193" y="-149" type="curve" smooth="yes"/>
      <point x="273" y="-149"/>
      <point x="351" y="-113"/>
      <point x="392" y="9" type="curve"/>
      <point x="345" y="95" type="line"/>
      <point x="318" y="-25"/>
      <point x="229" y="-87"/>
      <point x="155" y="-87" type="curve" smooth="yes"/>
      <point x="123" y="-87"/>
      <point x="93" y="-75"/>
      <point x="93" y="-40" type="curve" smooth="yes"/>
      <point x="93" y="23"/>
      <point x="180" y="76"/>
      <point x="254" y="72" type="curve"/>
      <point x="168" y="124" type="line"/>
      <point x="59" y="95"/>
      <point x="30" y="46"/>
      <point x="30" y="-4" type="curve" smooth="yes"/>
      <point x="30" y="-75"/>
      <point x="83" y="-149"/>
    </contour>
    <contour>
      <point x="269" y="-51" type="line"/>
      <point x="181" y="69" type="line"/>
      <point x="142" y="48" type="line"/>
      <point x="234" y="-76" type="line"/>
    </contour>
    <contour>
      <point x="607" y="545" type="line"/>
      <point x="609" y="555" type="line"/>
      <point x="578" y="620" type="line"/>
      <point x="34" y="620" type="line"/>
      <point x="32" y="610" type="line"/>
      <point x="63" y="545" type="line"/>
    </contour>
    <contour>
      <point x="453" y="-170" type="line"/>
      <point x="511" y="-137" type="line"/>
      <point x="352" y="173" type="line"/>
      <point x="330" y="142"/>
      <point x="282" y="133"/>
      <point x="250" y="133" type="curve" smooth="yes"/>
      <point x="186" y="133"/>
      <point x="132" y="173"/>
      <point x="132" y="252" type="curve" smooth="yes"/>
      <point x="132" y="339"/>
      <point x="199" y="379"/>
      <point x="287" y="379" type="curve" smooth="yes"/>
      <point x="436" y="379" type="line"/>
      <point x="450" y="387" type="line"/>
      <point x="460" y="439"/>
      <point x="473" y="513"/>
      <point x="485" y="579" type="curve"/>
      <point x="404" y="579" type="line"/>
      <point x="380" y="454" type="line"/>
      <point x="289" y="454" type="line" smooth="yes"/>
      <point x="145" y="454"/>
      <point x="65" y="418"/>
      <point x="65" y="294" type="curve" smooth="yes"/>
      <point x="65" y="177"/>
      <point x="147" y="68"/>
      <point x="302" y="68" type="curve" smooth="yes"/>
      <point x="411" y="68"/>
      <point x="456" y="142"/>
      <point x="456" y="171" type="curve" smooth="yes"/>
      <point x="456" y="215"/>
      <point x="385" y="257"/>
      <point x="345" y="257" type="curve" smooth="yes"/>
      <point x="320" y="257"/>
      <point x="308" y="244"/>
      <point x="308" y="214" type="curve" smooth="yes"/>
      <point x="308" y="190"/>
      <point x="322" y="130"/>
      <point x="337" y="94" type="curve" smooth="yes"/>
      <point x="445" y="-170" type="line"/>
    </contour>
  </outline>
</glyph>
<glyph name="dDBhRa" format="2">
  <advance width="678"/>
  <outline>
    <contour>
      <point x="602" y="-120" type="line"/>
      <point x="655" y="-90" type="line"/>
      <point x="517" y="167" type="line"/>
      <point x="473" y="138"/>
      <point x="435" y="134"/>
      <point x="407" y="134" type="curve" smooth="yes"/>
      <point x="346" y="134"/>
      <point x="292" y="172"/>
      <point x="292" y="251" type="curve" smooth="yes"/>
      <point x="292" y="336"/>
      <point x="354" y="376"/>
      <point x="449" y="376" type="curve" smooth="yes"/>
      <point x="596" y="376" type="line"/>
      <point x="609" y="384" type="line"/>
      <point x="620" y="436"/>
      <point x="633" y="508"/>
      <point x="646" y="580" type="curve"/>
      <point x="565" y="580" type="line"/>
      <point x="540" y="451" type="line"/>
      <point x="458" y="451" type="line" smooth="yes"/>
      <point x="314" y="451"/>
      <point x="225" y="420"/>
      <point x="225" y="290" type="curve" smooth="yes"/>
      <point x="225" y="181"/>
      <point x="314" y="72"/>
      <point x="459" y="72" type="curve" smooth="yes"/>
      <point x="587" y="72"/>
      <point x="618" y="148"/>
      <point x="618" y="170" type="curve" smooth="yes"/>
      <point x="618" y="214"/>
      <point x="546" y="257"/>
      <point x="509" y="257" type="curve" smooth="yes"/>
      <point x="484" y="257"/>
      <point x="472" y="244"/>
      <point x="472" y="213" type="curve" smooth="yes"/>
      <point x="472" y="189"/>
      <point x="481" y="153"/>
      <point x="491" y="129" type="curve" smooth="yes"/>
      <point x="593" y="-120" type="line"/>
    </contour>
    <contour>
      <point x="553" y="83" type="line"/>
      <point x="490" y="86" type="line"/>
      <point x="385" y="-161" type="line"/>
      <point x="460" y="-172" type="line"/>
    </contour>
    <contour>
      <point x="763" y="545" type="line"/>
      <point x="765" y="555" type="line"/>
      <point x="733" y="620" type="line"/>
      <point x="33" y="620" type="line"/>
      <point x="31" y="610" type="line"/>
      <point x="63" y="545" type="line"/>
    </contour>
    <contour>
      <point x="274" y="-169" type="curve" smooth="yes"/>
      <point x="305" y="-169"/>
      <point x="326" y="-161"/>
      <point x="326" y="-138" type="curve" smooth="yes"/>
      <point x="326" y="-124"/>
      <point x="317" y="-95"/>
      <point x="300" y="-51" type="curve"/>
      <point x="287" y="-22" type="line"/>
      <point x="235" y="94"/>
      <point x="194" y="161"/>
      <point x="86" y="161" type="curve" smooth="yes"/>
      <point x="6" y="161"/>
      <point x="-34" y="117"/>
      <point x="-34" y="64" type="curve" smooth="yes"/>
      <point x="-34" y="19"/>
      <point x="2" y="-13"/>
      <point x="45" y="-13" type="curve" smooth="yes"/>
      <point x="84" y="-13"/>
      <point x="111" y="1"/>
      <point x="137" y="26" type="curve"/>
      <point x="133" y="33" type="line"/>
      <point x="120" y="31"/>
      <point x="106" y="28"/>
      <point x="91" y="28" type="curve" smooth="yes"/>
      <point x="65" y="28"/>
      <point x="40" y="44"/>
      <point x="40" y="70" type="curve" smooth="yes"/>
      <point x="40" y="104"/>
      <point x="68" y="118"/>
      <point x="90" y="118" type="curve" smooth="yes"/>
      <point x="148" y="118"/>
      <point x="181" y="22"/>
      <point x="235" y="-113" type="curve"/>
      <point x="521" y="72" type="line"/>
      <point x="494" y="127" type="line"/>
      <point x="156" y="-84" type="line" smooth="yes"/>
      <point x="147" y="-90"/>
      <point x="140" y="-96"/>
      <point x="140" y="-105" type="curve" smooth="yes"/>
      <point x="140" y="-139"/>
      <point x="218" y="-169"/>
    </contour>
  </outline>
</glyph>
<glyph name="dDBhVa" format="2">
  <advance width="693"/>
  <outline>
    <contour>
      <point x="492" y="-139" type="curve" smooth="yes"/>
      <point x="529" y="-139"/>
      <point x="574" y="-129"/>
      <point x="620" y="-72" type="curve"/>
      <point x="585" y="-13" type="line"/>
      <point x="546" y="-69"/>
      <point x="493" y="-83"/>
      <point x="463" y="-83" type="curve" smooth="yes"/>
      <point x="431" y="-83"/>
      <point x="409" y="-65"/>
      <point x="409" y="-39" type="curve" smooth="yes"/>
      <point x="409" y="-13"/>
      <point x="427" y="8"/>
      <point x="450" y="23" type="curve"/>
      <point x="365" y="25" type="line"/>
      <point x="352" y="-8" type="line"/>
      <point x="352" y="-59"/>
      <point x="401" y="-139"/>
    </contour>
    <contour>
      <point x="778" y="545" type="line"/>
      <point x="780" y="555" type="line"/>
      <point x="748" y="620" type="line"/>
      <point x="33" y="620" type="line"/>
      <point x="31" y="610" type="line"/>
      <point x="63" y="545" type="line"/>
    </contour>
    <contour>
      <point x="274" y="-179" type="curve" smooth="yes"/>
      <point x="305" y="-179"/>
      <point x="326" y="-171"/>
      <point x="326" y="-148" type="curve" smooth="yes"/>
      <point x="326" y="-134"/>
      <point x="317" y="-105"/>
      <point x="300" y="-61" type="curve"/>
      <point x="287" y="-32" type="line"/>
      <point x="235" y="84"/>
      <point x="194" y="151"/>
      <point x="86" y="151" type="curve" smooth="yes"/>
      <point x="6" y="151"/>
      <point x="-34" y="107"/>
      <point x="-34" y="54" type="curve" smooth="yes"/>
      <point x="-34" y="9"/>
      <point x="2" y="-23"/>
      <point x="45" y="-23" type="curve" smooth="yes"/>
      <point x="84" y="-23"/>
      <point x="111" y="-9"/>
      <point x="137" y="16" type="curve"/>
      <point x="133" y="23" type="line"/>
      <point x="120" y="21"/>
      <point x="106" y="18"/>
      <point x="91" y="18" type="curve" smooth="yes"/>
      <point x="65" y="18"/>
      <point x="40" y="34"/>
      <point x="40" y="60" type="curve" smooth="yes"/>
      <point x="40" y="94"/>
      <point x="68" y="108"/>
      <point x="90" y="108" type="curve" smooth="yes"/>
      <point x="148" y="108"/>
      <point x="181" y="12"/>
      <point x="232" y="-122" type="curve"/>
      <point x="556" y="87" type="line"/>
      <point x="494" y="118" type="line"/>
      <point x="156" y="-94" type="line" smooth="yes"/>
      <point x="147" y="-100"/>
      <point x="140" y="-106"/>
      <point x="140" y="-115" type="curve" smooth="yes"/>
      <point x="140" y="-149"/>
      <point x="218" y="-179"/>
    </contour>
    <contour>
      <point x="646" y="-165" type="line"/>
      <point x="698" y="-135" type="line"/>
      <point x="534" y="168" type="line"/>
      <point x="488" y="138"/>
      <point x="450" y="134"/>
      <point x="422" y="134" type="curve" smooth="yes"/>
      <point x="361" y="134"/>
      <point x="307" y="172"/>
      <point x="307" y="251" type="curve" smooth="yes"/>
      <point x="307" y="336"/>
      <point x="369" y="376"/>
      <point x="464" y="376" type="curve" smooth="yes"/>
      <point x="611" y="376" type="line"/>
      <point x="624" y="384" type="line"/>
      <point x="635" y="436"/>
      <point x="648" y="508"/>
      <point x="661" y="580" type="curve"/>
      <point x="580" y="580" type="line"/>
      <point x="555" y="451" type="line"/>
      <point x="473" y="451" type="line" smooth="yes"/>
      <point x="329" y="451"/>
      <point x="240" y="420"/>
      <point x="240" y="290" type="curve" smooth="yes"/>
      <point x="240" y="181"/>
      <point x="329" y="72"/>
      <point x="474" y="72" type="curve" smooth="yes"/>
      <point x="602" y="72"/>
      <point x="633" y="148"/>
      <point x="633" y="170" type="curve" smooth="yes"/>
      <point x="633" y="214"/>
      <point x="561" y="257"/>
      <point x="524" y="257" type="curve" smooth="yes"/>
      <point x="499" y="257"/>
      <point x="487" y="244"/>
      <point x="487" y="213" type="curve" smooth="yes"/>
      <point x="487" y="189"/>
      <point x="495" y="153"/>
      <point x="506" y="129" type="curve" smooth="yes"/>
      <point x="636" y="-165" type="line"/>
    </contour>
  </outline>
</glyph>
<glyph name="dDDRa" format="2">
  <advance width="521"/>
  <outline>
    <contour>
      <point x="377" y="-30" type="line"/>
      <point x="215" y="-27" type="line"/>
      <point x="209" y="-53" type="line"/>
      <point x="37" y="-154" type="line"/>
      <point x="86" y="-217" type="line"/>
    </contour>
    <contour>
      <point x="606" y="545" type="line"/>
      <point x="608" y="555" type="line"/>
      <point x="576" y="620" type="line"/>
      <point x="33" y="620" type="line"/>
      <point x="32" y="610" type="line"/>
      <point x="63" y="545" type="line"/>
    </contour>
    <contour>
      <point x="412" y="-206" type="line"/>
      <point x="466" y="-176" type="line"/>
      <point x="352" y="45" type="line"/>
      <point x="319" y="21"/>
      <point x="274" y="8"/>
      <point x="233" y="8" type="curve" smooth="yes"/>
      <point x="167" y="8"/>
      <point x="139" y="38"/>
      <point x="139" y="74" type="curve" smooth="yes"/>
      <point x="139" y="114"/>
      <point x="165" y="165"/>
      <point x="278" y="186" type="curve"/>
      <point x="242" y="242" type="line"/>
      <point x="195" y="243"/>
      <point x="139" y="273"/>
      <point x="139" y="327" type="curve" smooth="yes"/>
      <point x="139" y="364"/>
      <point x="167" y="380"/>
      <point x="211" y="380" type="curve" smooth="yes"/>
      <point x="423" y="380" type="line"/>
      <point x="435" y="388" type="line"/>
      <point x="446" y="440"/>
      <point x="461" y="520"/>
      <point x="469" y="574" type="curve"/>
      <point x="389" y="574" type="line"/>
      <point x="365" y="455" type="line"/>
      <point x="202" y="455" type="line" smooth="yes"/>
      <point x="119" y="455"/>
      <point x="74" y="418"/>
      <point x="74" y="360" type="curve" smooth="yes"/>
      <point x="74" y="283"/>
      <point x="141" y="179"/>
      <point x="282" y="179" type="curve" smooth="yes"/>
      <point x="357" y="179"/>
      <point x="372" y="195"/>
      <point x="372" y="212" type="curve" smooth="yes"/>
      <point x="372" y="229"/>
      <point x="360" y="267"/>
      <point x="326" y="267" type="curve" smooth="yes"/>
      <point x="230" y="267"/>
      <point x="72" y="220"/>
      <point x="72" y="116" type="curve" smooth="yes"/>
      <point x="72" y="38"/>
      <point x="142" y="-57"/>
      <point x="264" y="-57" type="curve" smooth="yes"/>
      <point x="392" y="-57"/>
      <point x="444" y="2"/>
      <point x="444" y="48" type="curve" smooth="yes"/>
      <point x="444" y="93"/>
      <point x="383" y="129"/>
      <point x="348" y="129" type="curve" smooth="yes"/>
      <point x="322" y="129"/>
      <point x="307" y="117"/>
      <point x="307" y="82" type="curve" smooth="yes"/>
      <point x="307" y="54"/>
      <point x="320" y="25"/>
      <point x="334" y="-14" type="curve" smooth="yes"/>
      <point x="404" y="-206" type="line"/>
    </contour>
  </outline>
</glyph>
<glyph name="dDDhMa" format="2">
  <advance width="791"/>
  <outline>
    <component base="dDMa" xOffset="92"/>
    <contour>
      <point x="371" y="80" type="line"/>
      <point x="324" y="-2"/>
      <point x="262" y="-37"/>
      <point x="209" y="-37" type="curve" smooth="yes"/>
      <point x="183" y="-37"/>
      <point x="164" y="-24"/>
      <point x="164" y="-1" type="curve" smooth="yes"/>
      <point x="164" y="30"/>
      <point x="188" y="57"/>
      <point x="255" y="75" type="curve"/>
      <point x="208" y="135" type="line"/>
      <point x="113" y="99"/>
      <point x="95" y="59"/>
      <point x="95" y="24" type="curve" smooth="yes"/>
      <point x="95" y="-42"/>
      <point x="175" y="-91"/>
      <point x="245" y="-91" type="curve" smooth="yes"/>
      <point x="304" y="-91"/>
      <point x="386" y="-62"/>
      <point x="452" y="67" type="curve"/>
    </contour>
    <contour>
      <point x="153" y="92" type="line"/>
      <point x="120" y="106"/>
      <point x="107" y="131"/>
      <point x="107" y="147" type="curve" smooth="yes"/>
      <point x="107" y="181"/>
      <point x="131" y="198"/>
      <point x="131" y="234" type="curve" smooth="yes"/>
      <point x="131" y="263"/>
      <point x="112" y="289"/>
      <point x="56" y="312" type="curve"/>
      <point x="51" y="305" type="line"/>
      <point x="58" y="293"/>
      <point x="60" y="279"/>
      <point x="60" y="270" type="curve" smooth="yes"/>
      <point x="60" y="243"/>
      <point x="28" y="198"/>
      <point x="28" y="164" type="curve" smooth="yes"/>
      <point x="28" y="110"/>
      <point x="86" y="83"/>
      <point x="126" y="66" type="curve"/>
    </contour>
    <contour>
      <point x="370" y="620" type="line"/>
      <point x="34" y="620" type="line"/>
      <point x="32" y="610" type="line"/>
      <point x="63" y="545" type="line"/>
      <point x="355" y="545" type="line"/>
    </contour>
  </outline>
</glyph>
<glyph name="dDDhRa" format="2">
  <advance width="647"/>
  <outline>
    <contour>
      <point x="144" y="58" type="line"/>
      <point x="101" y="73"/>
      <point x="87" y="94"/>
      <point x="87" y="118" type="curve" smooth="yes"/>
      <point x="87" y="146"/>
      <point x="111" y="171"/>
      <point x="111" y="206" type="curve" smooth="yes"/>
      <point x="111" y="235"/>
      <point x="92" y="263"/>
      <point x="36" y="286" type="curve"/>
      <point x="30" y="279" type="line"/>
      <point x="38" y="267"/>
      <point x="40" y="253"/>
      <point x="40" y="244" type="curve" smooth="yes"/>
      <point x="40" y="213"/>
      <point x="8" y="165"/>
      <point x="8" y="133" type="curve" smooth="yes"/>
      <point x="8" y="74"/>
      <point x="71" y="44"/>
      <point x="110" y="27" type="curve"/>
    </contour>
    <contour>
      <point x="479" y="54" type="line"/>
      <point x="375" y="25" type="line"/>
      <point x="177" y="-233" type="line"/>
      <point x="248" y="-263" type="line"/>
    </contour>
    <contour>
      <point x="245" y="-125" type="curve" smooth="yes"/>
      <point x="277" y="-125"/>
      <point x="311" y="-120"/>
      <point x="355" y="-91" type="curve"/>
      <point x="508" y="85" type="line"/>
      <point x="419" y="91" type="line"/>
      <point x="342" y="-37"/>
      <point x="266" y="-71"/>
      <point x="211" y="-71" type="curve" smooth="yes"/>
      <point x="185" y="-71"/>
      <point x="167" y="-59"/>
      <point x="167" y="-33" type="curve" smooth="yes"/>
      <point x="167" y="-2"/>
      <point x="186" y="23"/>
      <point x="249" y="44" type="curve"/>
      <point x="201" y="104" type="line"/>
      <point x="135" y="79"/>
      <point x="92" y="49"/>
      <point x="92" y="-10" type="curve" smooth="yes"/>
      <point x="92" y="-79"/>
      <point x="175" y="-125"/>
    </contour>
    <contour>
      <point x="732" y="545" type="line"/>
      <point x="734" y="555" type="line"/>
      <point x="703" y="620" type="line"/>
      <point x="34" y="620" type="line"/>
      <point x="32" y="610" type="line"/>
      <point x="63" y="545" type="line"/>
    </contour>
    <contour>
      <point x="565" y="-165" type="line"/>
      <point x="619" y="-134" type="line"/>
      <point x="473" y="167" type="line"/>
      <point x="437" y="144"/>
      <point x="405" y="132"/>
      <point x="360" y="132" type="curve" smooth="yes"/>
      <point x="297" y="132"/>
      <point x="246" y="173"/>
      <point x="246" y="245" type="curve" smooth="yes"/>
      <point x="246" y="338"/>
      <point x="311" y="376"/>
      <point x="410" y="376" type="curve" smooth="yes"/>
      <point x="551" y="376" type="line"/>
      <point x="564" y="384" type="line"/>
      <point x="575" y="436"/>
      <point x="588" y="508"/>
      <point x="601" y="580" type="curve"/>
      <point x="520" y="580" type="line"/>
      <point x="495" y="451" type="line"/>
      <point x="401" y="451" type="line" smooth="yes"/>
      <point x="274" y="451"/>
      <point x="179" y="416"/>
      <point x="179" y="290" type="curve" smooth="yes"/>
      <point x="179" y="166"/>
      <point x="270" y="65"/>
      <point x="413" y="65" type="curve" smooth="yes"/>
      <point x="499" y="65"/>
      <point x="569" y="117"/>
      <point x="569" y="168" type="curve" smooth="yes"/>
      <point x="569" y="212"/>
      <point x="503" y="254"/>
      <point x="461" y="254" type="curve" smooth="yes"/>
      <point x="436" y="254"/>
      <point x="423" y="242"/>
      <point x="423" y="209" type="curve" smooth="yes"/>
      <point x="423" y="190"/>
      <point x="431" y="153"/>
      <point x="459" y="82" type="curve" smooth="yes"/>
      <point x="556" y="-165" type="line"/>
    </contour>
  </outline>
</glyph>
<glyph name="dDDhVa" format="2">
  <advance width="640"/>
  <outline>
    <contour>
      <point x="142" y="40" type="line"/>
      <point x="98" y="56"/>
      <point x="84" y="80"/>
      <point x="84" y="105" type="curve" smooth="yes"/>
      <point x="84" y="132"/>
      <point x="108" y="156"/>
      <point x="108" y="191" type="curve" smooth="yes"/>
      <point x="108" y="220"/>
      <point x="89" y="248"/>
      <point x="33" y="271" type="curve"/>
      <point x="27" y="264" type="line"/>
      <point x="35" y="252"/>
      <point x="37" y="238"/>
      <point x="37" y="229" type="curve" smooth="yes"/>
      <point x="37" y="204"/>
      <point x="5" y="150"/>
      <point x="5" y="118" type="curve" smooth="yes"/>
      <point x="5" y="58"/>
      <point x="69" y="28"/>
      <point x="108" y="11" type="curve"/>
    </contour>
    <contour>
      <point x="254" y="-139" type="curve" smooth="yes"/>
      <point x="347" y="-139"/>
      <point x="436" y="-60"/>
      <point x="486" y="96" type="curve"/>
      <point x="411" y="110" type="line"/>
      <point x="371" y="-23"/>
      <point x="280" y="-85"/>
      <point x="211" y="-85" type="curve" smooth="yes"/>
      <point x="183" y="-85"/>
      <point x="166" y="-73"/>
      <point x="166" y="-47" type="curve" smooth="yes"/>
      <point x="166" y="-14"/>
      <point x="191" y="12"/>
      <point x="251" y="33" type="curve"/>
      <point x="203" y="93" type="line"/>
      <point x="129" y="65"/>
      <point x="91" y="35"/>
      <point x="91" y="-22" type="curve" smooth="yes"/>
      <point x="91" y="-91"/>
      <point x="176" y="-139"/>
    </contour>
    <contour>
      <point x="388" y="-259" type="curve" smooth="yes"/>
      <point x="443" y="-259"/>
      <point x="516" y="-232"/>
      <point x="555" y="-114" type="curve"/>
      <point x="515" y="-22" type="line"/>
      <point x="476" y="-176"/>
      <point x="400" y="-204"/>
      <point x="360" y="-204" type="curve" smooth="yes"/>
      <point x="326" y="-204"/>
      <point x="306" y="-188"/>
      <point x="306" y="-163" type="curve" smooth="yes"/>
      <point x="306" y="-141"/>
      <point x="321" y="-120"/>
      <point x="343" y="-105" type="curve"/>
      <point x="247" y="-122" type="line"/>
      <point x="230" y="-207"/>
      <point x="310" y="-259"/>
    </contour>
    <contour>
      <point x="725" y="545" type="line"/>
      <point x="727" y="555" type="line"/>
      <point x="696" y="620" type="line"/>
      <point x="34" y="620" type="line"/>
      <point x="32" y="610" type="line"/>
      <point x="63" y="545" type="line"/>
    </contour>
    <contour>
      <point x="584" y="-214" type="line"/>
      <point x="638" y="-183" type="line"/>
      <point x="466" y="167" type="line"/>
      <point x="430" y="144"/>
      <point x="398" y="132"/>
      <point x="353" y="132" type="curve" smooth="yes"/>
      <point x="290" y="132"/>
      <point x="239" y="173"/>
      <point x="239" y="245" type="curve" smooth="yes"/>
      <point x="239" y="338"/>
      <point x="304" y="376"/>
      <point x="403" y="376" type="curve" smooth="yes"/>
      <point x="544" y="376" type="line"/>
      <point x="557" y="384" type="line"/>
      <point x="568" y="436"/>
      <point x="580" y="508"/>
      <point x="593" y="580" type="curve"/>
      <point x="512" y="580" type="line"/>
      <point x="487" y="451" type="line"/>
      <point x="394" y="451" type="line" smooth="yes"/>
      <point x="267" y="451"/>
      <point x="172" y="416"/>
      <point x="172" y="290" type="curve" smooth="yes"/>
      <point x="172" y="166"/>
      <point x="263" y="65"/>
      <point x="406" y="65" type="curve" smooth="yes"/>
      <point x="492" y="65"/>
      <point x="562" y="117"/>
      <point x="562" y="168" type="curve" smooth="yes"/>
      <point x="562" y="212"/>
      <point x="496" y="254"/>
      <point x="454" y="254" type="curve" smooth="yes"/>
      <point x="429" y="254"/>
      <point x="416" y="242"/>
      <point x="416" y="209" type="curve" smooth="yes"/>
      <point x="416" y="190"/>
      <point x="427" y="152"/>
      <point x="455" y="82" type="curve" smooth="yes"/>
      <point x="575" y="-214" type="line"/>
    </contour>
  </outline>
</glyph>
<glyph name="dDMa" format="2">
  <advance width="699"/>
  <outline>
    <contour>
      <point x="342" y="-8" type="curve" smooth="yes"/>
      <point x="357" y="-8"/>
      <point x="366" y="0"/>
      <point x="370" y="17" type="curve" smooth="yes"/>
      <point x="397" y="140" type="line" smooth="yes"/>
      <point x="412" y="210"/>
      <point x="353" y="297"/>
      <point x="303" y="297" type="curve" smooth="yes"/>
      <point x="269" y="297"/>
      <point x="190" y="287"/>
      <point x="163" y="287" type="curve" smooth="yes"/>
      <point x="144" y="287"/>
      <point x="128" y="302"/>
      <point x="128" y="328" type="curve" smooth="yes"/>
      <point x="128" y="368"/>
      <point x="154" y="385"/>
      <point x="202" y="385" type="curve" smooth="yes"/>
      <point x="397" y="385" type="line"/>
      <point x="411" y="393" type="line"/>
      <point x="420" y="438"/>
      <point x="436" y="528"/>
      <point x="446" y="581" type="curve"/>
      <point x="364" y="581" type="line"/>
      <point x="341" y="460" type="line"/>
      <point x="192" y="460" type="line" smooth="yes"/>
      <point x="98" y="460"/>
      <point x="63" y="423"/>
      <point x="63" y="363" type="curve" smooth="yes"/>
      <point x="63" y="292"/>
      <point x="126" y="214"/>
      <point x="186" y="214" type="curve" smooth="yes"/>
      <point x="213" y="214"/>
      <point x="292" y="223"/>
      <point x="318" y="223" type="curve" smooth="yes"/>
      <point x="330" y="223"/>
      <point x="338" y="220"/>
      <point x="338" y="198" type="curve" smooth="yes"/>
      <point x="338" y="170"/>
      <point x="322" y="130"/>
      <point x="307" y="82" type="curve"/>
      <point x="526" y="82" type="line"/>
      <point x="541" y="156" type="line"/>
      <point x="271" y="156" type="line" smooth="yes"/>
      <point x="250" y="156"/>
      <point x="241" y="142"/>
      <point x="241" y="126" type="curve" smooth="yes"/>
      <point x="241" y="77"/>
      <point x="311" y="-8"/>
    </contour>
    <contour>
      <point x="541" y="-113" type="line"/>
      <point x="674" y="581" type="line"/>
      <point x="590" y="581" type="line"/>
      <point x="464" y="-51" type="line"/>
      <point x="531" y="-113" type="line"/>
    </contour>
    <contour>
      <point x="784" y="545" type="line"/>
      <point x="786" y="555" type="line"/>
      <point x="755" y="620" type="line"/>
      <point x="34" y="620" type="line"/>
      <point x="32" y="610" type="line"/>
      <point x="63" y="545" type="line"/>
    </contour>
  </outline>
  <guideline angle="90" x="408" y="0"/>
</glyph>
<glyph name="dDRVa" format="2">
  <advance width="527"/>
  <outline>
    <contour>
      <point x="467" y="-174" type="line"/>
      <point x="520" y="-144" type="line"/>
      <point x="355" y="163" type="line"/>
      <point x="323" y="131"/>
      <point x="281" y="124"/>
      <point x="249" y="124" type="curve" smooth="yes"/>
      <point x="185" y="124"/>
      <point x="131" y="168"/>
      <point x="131" y="247" type="curve" smooth="yes"/>
      <point x="131" y="334"/>
      <point x="198" y="374"/>
      <point x="286" y="374" type="curve" smooth="yes"/>
      <point x="435" y="374" type="line"/>
      <point x="449" y="382" type="line"/>
      <point x="459" y="434"/>
      <point x="472" y="508"/>
      <point x="484" y="574" type="curve"/>
      <point x="403" y="574" type="line"/>
      <point x="379" y="449" type="line"/>
      <point x="288" y="449" type="line" smooth="yes"/>
      <point x="144" y="449"/>
      <point x="64" y="413"/>
      <point x="64" y="289" type="curve" smooth="yes"/>
      <point x="64" y="172"/>
      <point x="152" y="58"/>
      <point x="308" y="58" type="curve" smooth="yes"/>
      <point x="417" y="58"/>
      <point x="458" y="132"/>
      <point x="458" y="161" type="curve" smooth="yes"/>
      <point x="458" y="205"/>
      <point x="384" y="250"/>
      <point x="344" y="250" type="curve" smooth="yes"/>
      <point x="319" y="250"/>
      <point x="308" y="237"/>
      <point x="308" y="207" type="curve" smooth="yes"/>
      <point x="308" y="183"/>
      <point x="317" y="142"/>
      <point x="339" y="93" type="curve" smooth="yes"/>
      <point x="458" y="-174" type="line"/>
    </contour>
    <contour>
      <point x="384" y="81" type="line"/>
      <point x="235" y="85" type="line"/>
      <point x="231" y="63" type="line"/>
      <point x="25" y="-58" type="line"/>
      <point x="74" y="-119" type="line"/>
    </contour>
    <contour>
      <point x="312" y="-150" type="curve" smooth="yes"/>
      <point x="361" y="-150"/>
      <point x="401" y="-133"/>
      <point x="439" y="-85" type="curve"/>
      <point x="407" y="-22" type="line"/>
      <point x="366" y="-76"/>
      <point x="316" y="-94"/>
      <point x="285" y="-94" type="curve" smooth="yes"/>
      <point x="254" y="-94"/>
      <point x="231" y="-76"/>
      <point x="231" y="-50" type="curve" smooth="yes"/>
      <point x="231" y="-24"/>
      <point x="250" y="-3"/>
      <point x="273" y="12" type="curve"/>
      <point x="176" y="-11" type="line"/>
      <point x="166" y="-58"/>
      <point x="211" y="-150"/>
    </contour>
    <contour>
      <point x="612" y="545" type="line"/>
      <point x="614" y="555" type="line"/>
      <point x="583" y="620" type="line"/>
      <point x="34" y="620" type="line"/>
      <point x="32" y="610" type="line"/>
      <point x="63" y="545" type="line"/>
    </contour>
  </outline>
</glyph>
<glyph name="dDdBhYa" format="2">
  <advance width="1052"/>
  <outline>
    <component base="dDdBha"/>
    <contour>
      <point x="742" y="67" type="curve" smooth="yes"/>
      <point x="777" y="67"/>
      <point x="811" y="77"/>
      <point x="844" y="97" type="curve"/>
      <point x="859" y="89" type="line"/>
      <point x="883" y="212" type="line"/>
      <point x="823" y="163"/>
      <point x="758" y="130"/>
      <point x="715" y="130" type="curve" smooth="yes"/>
      <point x="667" y="130"/>
      <point x="637" y="166"/>
      <point x="641" y="206" type="curve"/>
      <point x="754" y="239"/>
      <point x="794" y="278"/>
      <point x="794" y="334" type="curve" smooth="yes"/>
      <point x="794" y="396"/>
      <point x="749" y="482"/>
      <point x="642" y="482" type="curve" smooth="yes"/>
      <point x="465" y="482" type="line"/>
      <point x="429" y="410" type="line"/>
      <point x="655" y="410" type="line" smooth="yes"/>
      <point x="720" y="410"/>
      <point x="730" y="393"/>
      <point x="730" y="373" type="curve" smooth="yes"/>
      <point x="730" y="327"/>
      <point x="676" y="300"/>
      <point x="567" y="272" type="curve"/>
      <point x="566" y="164"/>
      <point x="641" y="67"/>
    </contour>
    <contour>
      <point x="908" y="-45" type="line"/>
      <point x="1029" y="591" type="line"/>
      <point x="945" y="591" type="line"/>
      <point x="830" y="17" type="line"/>
      <point x="898" y="-45" type="line"/>
    </contour>
    <contour>
      <point x="1137" y="545" type="line"/>
      <point x="1139" y="555" type="line"/>
      <point x="1108" y="620" type="line"/>
      <point x="554" y="620" type="line"/>
      <point x="539" y="545" type="line"/>
    </contour>
  </outline>
</glyph>
<glyph name="dDdDdhYa" format="2">
  <advance width="1037"/>
  <outline>
    <component base="dDdDdha"/>
    <contour>
      <point x="727" y="67" type="curve" smooth="yes"/>
      <point x="762" y="67"/>
      <point x="796" y="77"/>
      <point x="829" y="97" type="curve"/>
      <point x="844" y="89" type="line"/>
      <point x="868" y="212" type="line"/>
      <point x="808" y="163"/>
      <point x="743" y="130"/>
      <point x="700" y="130" type="curve" smooth="yes"/>
      <point x="652" y="130"/>
      <point x="622" y="166"/>
      <point x="626" y="206" type="curve"/>
      <point x="739" y="239"/>
      <point x="779" y="278"/>
      <point x="779" y="334" type="curve" smooth="yes"/>
      <point x="779" y="396"/>
      <point x="734" y="482"/>
      <point x="627" y="482" type="curve" smooth="yes"/>
      <point x="413" y="482" type="line"/>
      <point x="413" y="410" type="line"/>
      <point x="640" y="410" type="line" smooth="yes"/>
      <point x="705" y="410"/>
      <point x="715" y="393"/>
      <point x="715" y="373" type="curve" smooth="yes"/>
      <point x="715" y="327"/>
      <point x="661" y="300"/>
      <point x="552" y="272" type="curve"/>
      <point x="551" y="164"/>
      <point x="626" y="67"/>
    </contour>
    <contour>
      <point x="893" y="-45" type="line"/>
      <point x="1012" y="581" type="line"/>
      <point x="928" y="581" type="line"/>
      <point x="815" y="17" type="line"/>
      <point x="883" y="-45" type="line"/>
    </contour>
    <contour>
      <point x="1122" y="545" type="line"/>
      <point x="1124" y="555" type="line"/>
      <point x="1093" y="620" type="line"/>
      <point x="446" y="620" type="line"/>
      <point x="431" y="545" type="line"/>
    </contour>
  </outline>
  <guideline angle="0" x="0" y="-348"/>
  <guideline angle="90" x="436" y="0"/>
</glyph>
<glyph name="dDdGhRa" format="2">
  <advance width="545"/>
  <outline>
    <contour>
      <point x="630" y="545" type="line"/>
      <point x="631" y="555" type="line"/>
      <point x="600" y="620" type="line"/>
      <point x="33" y="620" type="line"/>
      <point x="31" y="610" type="line"/>
      <point x="63" y="545" type="line"/>
    </contour>
    <contour>
      <point x="312" y="80" type="curve" smooth="yes"/>
      <point x="441" y="80"/>
      <point x="489" y="139"/>
      <point x="489" y="202" type="curve" smooth="yes"/>
      <point x="489" y="268"/>
      <point x="426" y="335"/>
      <point x="377" y="335" type="curve" smooth="yes"/>
      <point x="345" y="335"/>
      <point x="253" y="313"/>
      <point x="229" y="313" type="curve" smooth="yes"/>
      <point x="211" y="313"/>
      <point x="194" y="331"/>
      <point x="194" y="357" type="curve" smooth="yes"/>
      <point x="194" y="395"/>
      <point x="220" y="410"/>
      <point x="268" y="410" type="curve" smooth="yes"/>
      <point x="459" y="410" type="line"/>
      <point x="473" y="418" type="line"/>
      <point x="483" y="469"/>
      <point x="493" y="523"/>
      <point x="504" y="583" type="curve"/>
      <point x="424" y="583" type="line"/>
      <point x="404" y="482" type="line"/>
      <point x="257" y="482" type="line" smooth="yes"/>
      <point x="163" y="482"/>
      <point x="129" y="447"/>
      <point x="129" y="388" type="curve" smooth="yes"/>
      <point x="129" y="319"/>
      <point x="202" y="243"/>
      <point x="260" y="243" type="curve" smooth="yes"/>
      <point x="294" y="243"/>
      <point x="363" y="264"/>
      <point x="399" y="264" type="curve" smooth="yes"/>
      <point x="418" y="264"/>
      <point x="427" y="255"/>
      <point x="427" y="237" type="curve" smooth="yes"/>
      <point x="427" y="201"/>
      <point x="398" y="152"/>
      <point x="295" y="152" type="curve" smooth="yes"/>
      <point x="168" y="152"/>
      <point x="116" y="210"/>
      <point x="78" y="305" type="curve"/>
      <point x="41" y="288" type="line"/>
      <point x="83" y="161"/>
      <point x="174" y="80"/>
    </contour>
    <contour>
      <point x="338" y="-164" type="line"/>
      <point x="176" y="-162" type="line"/>
      <point x="169" y="-198" type="line"/>
      <point x="43" y="-269" type="line"/>
      <point x="84" y="-322" type="line"/>
    </contour>
    <contour>
      <point x="215" y="-202" type="curve" smooth="yes"/>
      <point x="252" y="-202"/>
      <point x="291" y="-189"/>
      <point x="317" y="-176" type="curve"/>
      <point x="338" y="-95" type="line"/>
      <point x="275" y="-137"/>
      <point x="228" y="-152"/>
      <point x="195" y="-152" type="curve" smooth="yes"/>
      <point x="158" y="-152"/>
      <point x="141" y="-132"/>
      <point x="141" y="-110" type="curve" smooth="yes"/>
      <point x="141" y="-75"/>
      <point x="179" y="-46"/>
      <point x="278" y="-42" type="curve"/>
      <point x="258" y="27" type="line"/>
      <point x="168" y="23"/>
      <point x="84" y="-2"/>
      <point x="84" y="-77" type="curve" smooth="yes"/>
      <point x="84" y="-131"/>
      <point x="129" y="-202"/>
    </contour>
    <contour>
      <point x="160" y="-4" type="line"/>
      <point x="140" y="13"/>
      <point x="134" y="39"/>
      <point x="134" y="55" type="curve" smooth="yes"/>
      <point x="134" y="82"/>
      <point x="151" y="110"/>
      <point x="187" y="118" type="curve"/>
      <point x="129" y="164" type="line"/>
      <point x="88" y="143"/>
      <point x="62" y="119"/>
      <point x="62" y="72" type="curve" smooth="yes"/>
      <point x="62" y="31"/>
      <point x="90" y="0"/>
      <point x="126" y="-26" type="curve"/>
    </contour>
    <contour>
      <point x="352" y="-315" type="line"/>
      <point x="440" y="144" type="line"/>
      <point x="368" y="144" type="line"/>
      <point x="287" y="-262" type="line"/>
      <point x="343" y="-315" type="line"/>
    </contour>
  </outline>
</glyph>
<glyph name="dDdJNya" format="2">
  <advance width="552"/>
  <outline>
    <contour>
      <point x="314" y="80" type="curve" smooth="yes"/>
      <point x="443" y="80"/>
      <point x="491" y="139"/>
      <point x="491" y="202" type="curve" smooth="yes"/>
      <point x="491" y="268"/>
      <point x="428" y="335"/>
      <point x="379" y="335" type="curve" smooth="yes"/>
      <point x="347" y="335"/>
      <point x="255" y="313"/>
      <point x="231" y="313" type="curve" smooth="yes"/>
      <point x="213" y="313"/>
      <point x="196" y="331"/>
      <point x="196" y="357" type="curve" smooth="yes"/>
      <point x="196" y="395"/>
      <point x="222" y="410"/>
      <point x="270" y="410" type="curve" smooth="yes"/>
      <point x="461" y="410" type="line"/>
      <point x="475" y="418" type="line"/>
      <point x="485" y="469"/>
      <point x="495" y="523"/>
      <point x="506" y="583" type="curve"/>
      <point x="426" y="583" type="line"/>
      <point x="406" y="482" type="line"/>
      <point x="259" y="482" type="line" smooth="yes"/>
      <point x="165" y="482"/>
      <point x="131" y="447"/>
      <point x="131" y="388" type="curve" smooth="yes"/>
      <point x="131" y="319"/>
      <point x="204" y="243"/>
      <point x="262" y="243" type="curve" smooth="yes"/>
      <point x="296" y="243"/>
      <point x="365" y="264"/>
      <point x="401" y="264" type="curve" smooth="yes"/>
      <point x="420" y="264"/>
      <point x="429" y="255"/>
      <point x="429" y="237" type="curve" smooth="yes"/>
      <point x="429" y="201"/>
      <point x="399" y="152"/>
      <point x="299" y="152" type="curve" smooth="yes"/>
      <point x="170" y="152"/>
      <point x="119" y="206"/>
      <point x="79" y="305" type="curve"/>
      <point x="42" y="287" type="line"/>
      <point x="85" y="161"/>
      <point x="178" y="80"/>
    </contour>
    <contour>
      <point x="142" y="-381" type="line"/>
      <point x="186" y="-356" type="line"/>
      <point x="120" y="-236" type="line"/>
      <point x="79" y="-235" type="line"/>
      <point x="134" y="-381" type="line"/>
    </contour>
    <contour>
      <point x="110" y="-255" type="curve" smooth="yes"/>
      <point x="211" y="-255"/>
      <point x="241" y="-205"/>
      <point x="241" y="-150" type="curve" smooth="yes"/>
      <point x="241" y="-111"/>
      <point x="216" y="-62"/>
      <point x="185" y="-32" type="curve"/>
      <point x="188" y="-14" type="line"/>
      <point x="107" y="-22" type="line"/>
      <point x="153" y="-40"/>
      <point x="183" y="-79"/>
      <point x="183" y="-122" type="curve" smooth="yes"/>
      <point x="183" y="-158"/>
      <point x="162" y="-195"/>
      <point x="108" y="-196" type="curve"/>
      <point x="76" y="-149"/>
      <point x="51" y="-127"/>
      <point x="28" y="-127" type="curve" smooth="yes"/>
      <point x="7" y="-127"/>
      <point x="-12" y="-150"/>
      <point x="-12" y="-177" type="curve" smooth="yes"/>
      <point x="-12" y="-219"/>
      <point x="51" y="-255"/>
    </contour>
    <contour>
      <point x="378" y="-30" type="line"/>
      <point x="390" y="33" type="line"/>
      <point x="85" y="33" type="line"/>
      <point x="83" y="24" type="line"/>
      <point x="107" y="-22" type="line"/>
      <point x="172" y="-30" type="line"/>
    </contour>
    <contour>
      <point x="348" y="-335" type="line"/>
      <point x="444" y="172" type="line"/>
      <point x="368" y="142" type="line"/>
      <point x="281" y="-282" type="line"/>
      <point x="339" y="-335" type="line"/>
    </contour>
    <contour>
      <point x="637" y="545" type="line"/>
      <point x="639" y="555" type="line"/>
      <point x="607" y="620" type="line"/>
      <point x="33" y="620" type="line"/>
      <point x="31" y="610" type="line"/>
      <point x="63" y="545" type="line"/>
    </contour>
  </outline>
  <guideline angle="90" x="443" y="0"/>
</glyph>
<glyph name="dDdJYa" format="2">
  <advance width="1053"/>
  <outline>
    <component base="dDdJa"/>
    <contour>
      <point x="745" y="67" type="curve" smooth="yes"/>
      <point x="780" y="67"/>
      <point x="811" y="76"/>
      <point x="845" y="94" type="curve"/>
      <point x="860" y="86" type="line"/>
      <point x="883" y="209" type="line"/>
      <point x="820" y="160"/>
      <point x="758" y="130"/>
      <point x="717" y="130" type="curve" smooth="yes"/>
      <point x="671" y="130"/>
      <point x="640" y="163"/>
      <point x="640" y="202" type="curve" smooth="yes"/>
      <point x="640" y="214"/>
      <point x="643" y="227"/>
      <point x="649" y="239" type="curve"/>
      <point x="599" y="192" type="line"/>
      <point x="747" y="225"/>
      <point x="794" y="268"/>
      <point x="794" y="336" type="curve" smooth="yes"/>
      <point x="794" y="392"/>
      <point x="760" y="482"/>
      <point x="635" y="482" type="curve" smooth="yes"/>
      <point x="442" y="482" type="line"/>
      <point x="442" y="410" type="line"/>
      <point x="665" y="410" type="line" smooth="yes"/>
      <point x="720" y="410"/>
      <point x="731" y="393"/>
      <point x="731" y="373" type="curve" smooth="yes"/>
      <point x="731" y="329"/>
      <point x="677" y="300"/>
      <point x="568" y="272" type="curve"/>
      <point x="566" y="165"/>
      <point x="644" y="67"/>
    </contour>
    <contour>
      <point x="909" y="-45" type="line"/>
      <point x="1026" y="571" type="line"/>
      <point x="942" y="571" type="line"/>
      <point x="831" y="17" type="line"/>
      <point x="899" y="-45" type="line"/>
    </contour>
    <contour>
      <point x="1138" y="545" type="line"/>
      <point x="1140" y="555" type="line"/>
      <point x="1109" y="620" type="line"/>
      <point x="462" y="620" type="line"/>
      <point x="447" y="545" type="line"/>
    </contour>
  </outline>
</glyph>
<glyph name="dDdVYa" format="2">
  <advance width="1058"/>
  <outline>
    <component base="dDdVa"/>
    <contour>
      <point x="913" y="-45" type="line"/>
      <point x="1033" y="581" type="line"/>
      <point x="949" y="581" type="line"/>
      <point x="836" y="17" type="line"/>
      <point x="903" y="-45" type="line"/>
    </contour>
    <contour>
      <point x="1143" y="545" type="line"/>
      <point x="1145" y="555" type="line"/>
      <point x="1114" y="620" type="line"/>
      <point x="603" y="620" type="line"/>
      <point x="588" y="545" type="line"/>
    </contour>
    <contour>
      <point x="746" y="55" type="curve" smooth="yes"/>
      <point x="783" y="55"/>
      <point x="814" y="65"/>
      <point x="848" y="85" type="curve"/>
      <point x="862" y="77" type="line"/>
      <point x="886" y="194" type="line"/>
      <point x="822" y="145"/>
      <point x="763" y="118"/>
      <point x="719" y="118" type="curve" smooth="yes"/>
      <point x="674" y="118"/>
      <point x="642" y="148"/>
      <point x="642" y="184" type="curve" smooth="yes"/>
      <point x="642" y="196"/>
      <point x="645" y="209"/>
      <point x="652" y="221" type="curve"/>
      <point x="601" y="177" type="line"/>
      <point x="741" y="208"/>
      <point x="796" y="246"/>
      <point x="796" y="320" type="curve" smooth="yes"/>
      <point x="796" y="374"/>
      <point x="752" y="460"/>
      <point x="642" y="460" type="curve" smooth="yes"/>
      <point x="476" y="460" type="line"/>
      <point x="461" y="385" type="line"/>
      <point x="666" y="385" type="line" smooth="yes"/>
      <point x="722" y="385"/>
      <point x="733" y="370"/>
      <point x="733" y="352" type="curve" smooth="yes"/>
      <point x="733" y="311"/>
      <point x="679" y="281"/>
      <point x="571" y="254" type="curve"/>
      <point x="569" y="142"/>
      <point x="645" y="55"/>
    </contour>
  </outline>
</glyph>
<glyph name="dGBhRa" format="2">
  <advance width="991"/>
  <outline>
    <component base="dBhRa" xOffset="265"/>
    <contour>
      <point x="464" y="545" type="line"/>
      <point x="475" y="620" type="line"/>
      <point x="34" y="620" type="line"/>
      <point x="32" y="610" type="line"/>
      <point x="63" y="545" type="line"/>
    </contour>
    <contour>
      <point x="161" y="347" type="line"/>
      <point x="100" y="347" type="line" smooth="yes"/>
      <point x="79" y="347"/>
      <point x="70" y="335"/>
      <point x="70" y="318" type="curve" smooth="yes"/>
      <point x="70" y="274"/>
      <point x="149" y="170"/>
      <point x="188" y="170" type="curve" smooth="yes"/>
      <point x="203" y="170"/>
      <point x="213" y="178"/>
      <point x="216" y="195" type="curve" smooth="yes"/>
      <point x="289" y="581" type="line"/>
      <point x="207" y="581" type="line"/>
    </contour>
  </outline>
</glyph>
<glyph name="dGDhVa" format="2">
  <advance width="1294"/>
  <outline>
    <component base="dVa" xOffset="697"/>
    <component base="dDh.half" xOffset="275"/>
    <contour>
      <point x="464" y="545" type="line"/>
      <point x="475" y="620" type="line"/>
      <point x="34" y="620" type="line"/>
      <point x="32" y="610" type="line"/>
      <point x="63" y="545" type="line"/>
    </contour>
    <contour>
      <point x="207" y="581" type="line"/>
      <point x="161" y="347" type="line"/>
      <point x="100" y="347" type="line" smooth="yes"/>
      <point x="79" y="347"/>
      <point x="70" y="335"/>
      <point x="70" y="318" type="curve" smooth="yes"/>
      <point x="70" y="274"/>
      <point x="149" y="170"/>
      <point x="188" y="170" type="curve" smooth="yes"/>
      <point x="203" y="170"/>
      <point x="213" y="178"/>
      <point x="216" y="195" type="curve" smooth="yes"/>
      <point x="289" y="581" type="line"/>
    </contour>
  </outline>
</glyph>
<glyph name="dGR.half" format="2">
  <advance width="306"/>
  <outline>
    <contour>
      <point x="415" y="285" type="line"/>
      <point x="138" y="79" type="line"/>
      <point x="194" y="24" type="line"/>
      <point x="423" y="199" type="line"/>
    </contour>
    <contour>
      <point x="453" y="545" type="line"/>
      <point x="455" y="555" type="line"/>
      <point x="424" y="620" type="line"/>
      <point x="34" y="620" type="line"/>
      <point x="32" y="610" type="line"/>
      <point x="63" y="545" type="line"/>
    </contour>
    <contour>
      <point x="207" y="581" type="line"/>
      <point x="167" y="379" type="line"/>
      <point x="103" y="379" type="line" smooth="yes"/>
      <point x="82" y="379"/>
      <point x="73" y="367"/>
      <point x="73" y="350" type="curve" smooth="yes"/>
      <point x="73" y="296"/>
      <point x="160" y="202"/>
      <point x="195" y="202" type="curve" smooth="yes"/>
      <point x="210" y="202"/>
      <point x="220" y="210"/>
      <point x="223" y="227" type="curve" smooth="yes"/>
      <point x="289" y="581" type="line"/>
    </contour>
  </outline>
</glyph>
<glyph name="dGRa" format="2">
  <advance width="603"/>
  <outline>
    <contour>
      <point x="446" y="218" type="line"/>
      <point x="469" y="325" type="line"/>
      <point x="138" y="79" type="line"/>
      <point x="194" y="25" type="line"/>
    </contour>
    <contour>
      <point x="465" y="-15" type="line"/>
      <point x="578" y="581" type="line"/>
      <point x="494" y="581" type="line"/>
      <point x="387" y="47" type="line"/>
      <point x="455" y="-15" type="line"/>
    </contour>
    <contour>
      <point x="688" y="545" type="line"/>
      <point x="690" y="555" type="line"/>
      <point x="659" y="620" type="line"/>
      <point x="34" y="620" type="line"/>
      <point x="32" y="610" type="line"/>
      <point x="63" y="545" type="line"/>
    </contour>
    <contour>
      <point x="167" y="379" type="line"/>
      <point x="107" y="379" type="line" smooth="yes"/>
      <point x="86" y="379"/>
      <point x="77" y="367"/>
      <point x="77" y="350" type="curve" smooth="yes"/>
      <point x="77" y="306"/>
      <point x="156" y="202"/>
      <point x="195" y="202" type="curve" smooth="yes"/>
      <point x="210" y="202"/>
      <point x="220" y="210"/>
      <point x="223" y="227" type="curve" smooth="yes"/>
      <point x="289" y="581" type="line"/>
      <point x="207" y="581" type="line"/>
    </contour>
  </outline>
</glyph>
<glyph name="dHNYa" format="2">
  <advance width="1077"/>
  <outline>
    <component base="dHNa"/>
    <contour>
      <point x="968" y="581" type="line"/>
      <point x="855" y="17" type="line"/>
      <point x="922" y="-45" type="line"/>
      <point x="932" y="-45" type="line"/>
      <point x="1052" y="581" type="line"/>
    </contour>
    <contour>
      <point x="1162" y="545" type="line"/>
      <point x="1164" y="555" type="line"/>
      <point x="1133" y="620" type="line"/>
      <point x="612" y="620" type="line"/>
      <point x="610" y="610" type="line"/>
      <point x="641" y="545" type="line"/>
    </contour>
    <contour>
      <point x="741" y="118" type="curve" smooth="yes"/>
      <point x="692" y="118"/>
      <point x="660" y="149"/>
      <point x="664" y="188" type="curve"/>
      <point x="775" y="220"/>
      <point x="815" y="263"/>
      <point x="815" y="323" type="curve" smooth="yes"/>
      <point x="815" y="377"/>
      <point x="772" y="461"/>
      <point x="664" y="461" type="curve" smooth="yes"/>
      <point x="461" y="461" type="line"/>
      <point x="447" y="385" type="line"/>
      <point x="685" y="385" type="line" smooth="yes"/>
      <point x="741" y="385"/>
      <point x="752" y="369"/>
      <point x="752" y="353" type="curve" smooth="yes"/>
      <point x="752" y="310"/>
      <point x="698" y="281"/>
      <point x="590" y="254" type="curve"/>
      <point x="588" y="149"/>
      <point x="666" y="55"/>
      <point x="767" y="55" type="curve" smooth="yes"/>
      <point x="802" y="55"/>
      <point x="831" y="63"/>
      <point x="867" y="83" type="curve"/>
      <point x="882" y="75" type="line"/>
      <point x="905" y="194" type="line"/>
      <point x="841" y="145"/>
      <point x="782" y="118"/>
    </contour>
  </outline>
</glyph>
<glyph name="dHRa" format="2">
  <advance width="576"/>
  <outline>
    <contour>
      <point x="352" y="-151" type="line"/>
      <point x="183" y="-102"/>
      <point x="133" y="-21"/>
      <point x="133" y="51" type="curve" smooth="yes"/>
      <point x="133" y="160"/>
      <point x="236" y="244"/>
      <point x="347" y="244" type="curve" smooth="yes"/>
      <point x="415" y="244"/>
      <point x="460" y="202"/>
      <point x="460" y="148" type="curve" smooth="yes"/>
      <point x="460" y="103"/>
      <point x="433" y="53"/>
      <point x="340" y="11" type="curve"/>
      <point x="375" y="-62" type="line"/>
      <point x="496" y="-9"/>
      <point x="520" y="58"/>
      <point x="520" y="120" type="curve" smooth="yes"/>
      <point x="520" y="210"/>
      <point x="447" y="300"/>
      <point x="319" y="300" type="curve" smooth="yes"/>
      <point x="186" y="300"/>
      <point x="55" y="204"/>
      <point x="55" y="77" type="curve" smooth="yes"/>
      <point x="55" y="-34"/>
      <point x="140" y="-135"/>
      <point x="335" y="-189" type="curve"/>
    </contour>
    <contour>
      <point x="471" y="188" type="line"/>
      <point x="423" y="242" type="line"/>
      <point x="204" y="77" type="line"/>
      <point x="257" y="24" type="line"/>
    </contour>
    <contour>
      <point x="661" y="545" type="line"/>
      <point x="663" y="555" type="line"/>
      <point x="632" y="620" type="line"/>
      <point x="34" y="620" type="line"/>
      <point x="32" y="610" type="line"/>
      <point x="63" y="545" type="line"/>
    </contour>
    <contour>
      <point x="153" y="234" type="line"/>
      <point x="140" y="248"/>
      <point x="132" y="273"/>
      <point x="132" y="296" type="curve" smooth="yes"/>
      <point x="132" y="357"/>
      <point x="182" y="385"/>
      <point x="269" y="385" type="curve" smooth="yes"/>
      <point x="459" y="385" type="line"/>
      <point x="473" y="393" type="line"/>
      <point x="483" y="445"/>
      <point x="498" y="527"/>
      <point x="508" y="581" type="curve"/>
      <point x="427" y="581" type="line"/>
      <point x="403" y="460" type="line"/>
      <point x="260" y="460" type="line" smooth="yes"/>
      <point x="121" y="460"/>
      <point x="64" y="409"/>
      <point x="64" y="325" type="curve" smooth="yes"/>
      <point x="64" y="281"/>
      <point x="85" y="229"/>
      <point x="113" y="200" type="curve"/>
    </contour>
  </outline>
</glyph>
<glyph name="dHVYa" format="2">
  <advance width="1077"/>
  <outline>
    <component base="dHVa"/>
    <contour>
      <point x="767" y="55" type="curve" smooth="yes"/>
      <point x="802" y="55"/>
      <point x="831" y="63"/>
      <point x="867" y="83" type="curve"/>
      <point x="882" y="75" type="line"/>
      <point x="905" y="194" type="line"/>
      <point x="841" y="145"/>
      <point x="782" y="118"/>
      <point x="741" y="118" type="curve" smooth="yes"/>
      <point x="692" y="118"/>
      <point x="660" y="149"/>
      <point x="664" y="189" type="curve"/>
      <point x="775" y="221"/>
      <point x="815" y="264"/>
      <point x="815" y="324" type="curve" smooth="yes"/>
      <point x="815" y="378"/>
      <point x="772" y="460"/>
      <point x="664" y="460" type="curve" smooth="yes"/>
      <point x="461" y="460" type="line"/>
      <point x="447" y="385" type="line"/>
      <point x="685" y="385" type="line" smooth="yes"/>
      <point x="741" y="385"/>
      <point x="752" y="370"/>
      <point x="752" y="354" type="curve" smooth="yes"/>
      <point x="752" y="311"/>
      <point x="698" y="282"/>
      <point x="590" y="255" type="curve"/>
      <point x="588" y="149"/>
      <point x="666" y="55"/>
    </contour>
    <contour>
      <point x="932" y="-45" type="line"/>
      <point x="1054" y="591" type="line"/>
      <point x="970" y="591" type="line"/>
      <point x="855" y="17" type="line"/>
      <point x="922" y="-45" type="line"/>
    </contour>
    <contour>
      <point x="1162" y="545" type="line"/>
      <point x="1164" y="555" type="line"/>
      <point x="1133" y="620" type="line"/>
      <point x="612" y="620" type="line"/>
      <point x="610" y="610" type="line"/>
      <point x="641" y="545" type="line"/>
    </contour>
  </outline>
</glyph>
<glyph name="dHa_dSignVocalicR" format="2">
  <advance width="543"/>
  <outline>
    <contour>
      <point x="367" y="-124" type="line"/>
      <point x="199" y="-79"/>
      <point x="143" y="-6"/>
      <point x="143" y="69" type="curve" smooth="yes"/>
      <point x="143" y="155"/>
      <point x="230" y="246"/>
      <point x="345" y="246" type="curve" smooth="yes"/>
      <point x="379" y="246"/>
      <point x="407" y="236"/>
      <point x="407" y="216" type="curve" smooth="yes"/>
      <point x="407" y="171"/>
      <point x="257" y="170"/>
      <point x="254" y="79" type="curve" smooth="yes"/>
      <point x="252" y="13"/>
      <point x="321" y="-35"/>
      <point x="391" y="-35" type="curve" smooth="yes"/>
      <point x="427" y="-35"/>
      <point x="467" y="-22"/>
      <point x="497" y="-1" type="curve"/>
      <point x="464" y="65" type="line"/>
      <point x="442" y="50"/>
      <point x="398" y="30"/>
      <point x="357" y="30" type="curve" smooth="yes"/>
      <point x="336" y="30"/>
      <point x="322" y="36"/>
      <point x="322" y="52" type="curve" smooth="yes"/>
      <point x="322" y="109"/>
      <point x="474" y="100"/>
      <point x="474" y="188" type="curve" smooth="yes"/>
      <point x="474" y="241"/>
      <point x="421" y="304"/>
      <point x="315" y="304" type="curve" smooth="yes"/>
      <point x="181" y="304"/>
      <point x="64" y="199"/>
      <point x="64" y="94" type="curve" smooth="yes"/>
      <point x="64" y="-29"/>
      <point x="174" y="-120"/>
      <point x="349" y="-164" type="curve"/>
    </contour>
    <contour>
      <point x="158" y="229" type="line"/>
      <point x="143" y="242"/>
      <point x="131" y="271"/>
      <point x="131" y="296" type="curve" smooth="yes"/>
      <point x="131" y="356"/>
      <point x="184" y="385"/>
      <point x="264" y="385" type="curve" smooth="yes"/>
      <point x="461" y="385" type="line"/>
      <point x="475" y="393" type="line"/>
      <point x="484" y="440"/>
      <point x="494" y="495"/>
      <point x="509" y="581" type="curve"/>
      <point x="428" y="581" type="line"/>
      <point x="405" y="460" type="line"/>
      <point x="255" y="460" type="line" smooth="yes"/>
      <point x="124" y="460"/>
      <point x="64" y="404"/>
      <point x="64" y="323" type="curve" smooth="yes"/>
      <point x="64" y="275"/>
      <point x="89" y="221"/>
      <point x="122" y="192" type="curve"/>
    </contour>
    <contour>
      <point x="628" y="545" type="line"/>
      <point x="630" y="555" type="line"/>
      <point x="599" y="620" type="line"/>
      <point x="34" y="620" type="line"/>
      <point x="32" y="610" type="line"/>
      <point x="63" y="545" type="line"/>
    </contour>
  </outline>
</glyph>
<glyph name="dHa_dSignVocalicRr" format="2">
  <advance width="558"/>
  <outline>
    <contour>
      <point x="342" y="-198" type="line"/>
      <point x="189" y="-116"/>
      <point x="143" y="-19"/>
      <point x="143" y="56" type="curve" smooth="yes"/>
      <point x="143" y="165"/>
      <point x="239" y="246"/>
      <point x="347" y="246" type="curve" smooth="yes"/>
      <point x="383" y="246"/>
      <point x="406" y="237"/>
      <point x="406" y="217" type="curve" smooth="yes"/>
      <point x="406" y="167"/>
      <point x="263" y="174"/>
      <point x="263" y="78" type="curve" smooth="yes"/>
      <point x="263" y="42"/>
      <point x="283" y="0"/>
      <point x="330" y="-19" type="curve"/>
      <point x="355" y="9" type="line"/>
      <point x="329" y="18"/>
      <point x="322" y="36"/>
      <point x="322" y="50" type="curve" smooth="yes"/>
      <point x="322" y="116"/>
      <point x="471" y="97"/>
      <point x="471" y="193" type="curve" smooth="yes"/>
      <point x="471" y="259"/>
      <point x="403" y="304"/>
      <point x="316" y="304" type="curve" smooth="yes"/>
      <point x="192" y="304"/>
      <point x="64" y="213"/>
      <point x="64" y="83" type="curve" smooth="yes"/>
      <point x="64" y="-11"/>
      <point x="132" y="-145"/>
      <point x="318" y="-232" type="curve"/>
    </contour>
    <contour>
      <point x="444" y="-172" type="curve" smooth="yes"/>
      <point x="489" y="-172"/>
      <point x="535" y="-156"/>
      <point x="563" y="-142" type="curve"/>
      <point x="527" y="-79" type="line"/>
      <point x="495" y="-96"/>
      <point x="453" y="-111"/>
      <point x="414" y="-111" type="curve" smooth="yes"/>
      <point x="385" y="-111"/>
      <point x="359" y="-103"/>
      <point x="359" y="-78" type="curve" smooth="yes"/>
      <point x="359" y="-47"/>
      <point x="398" y="-25"/>
      <point x="492" y="-10" type="curve"/>
      <point x="494" y="-4" type="line"/>
      <point x="460" y="54" type="line"/>
      <point x="372" y="40"/>
      <point x="302" y="3"/>
      <point x="302" y="-61" type="curve" smooth="yes"/>
      <point x="302" y="-121"/>
      <point x="363" y="-172"/>
    </contour>
    <contour>
      <point x="171" y="215" type="line"/>
      <point x="144" y="237"/>
      <point x="131" y="267"/>
      <point x="131" y="293" type="curve" smooth="yes"/>
      <point x="131" y="354"/>
      <point x="185" y="385"/>
      <point x="273" y="385" type="curve" smooth="yes"/>
      <point x="461" y="385" type="line"/>
      <point x="475" y="393" type="line"/>
      <point x="484" y="441"/>
      <point x="494" y="495"/>
      <point x="509" y="581" type="curve"/>
      <point x="428" y="581" type="line"/>
      <point x="405" y="460" type="line"/>
      <point x="260" y="460" type="line" smooth="yes"/>
      <point x="117" y="460"/>
      <point x="65" y="409"/>
      <point x="65" y="329" type="curve" smooth="yes"/>
      <point x="65" y="277"/>
      <point x="92" y="210"/>
      <point x="140" y="177" type="curve"/>
    </contour>
    <contour>
      <point x="643" y="545" type="line"/>
      <point x="645" y="555" type="line"/>
      <point x="614" y="620" type="line"/>
      <point x="34" y="620" type="line"/>
      <point x="32" y="610" type="line"/>
      <point x="63" y="545" type="line"/>
    </contour>
  </outline>
</glyph>
<glyph name="dJ.half" format="2">
  <advance width="501"/>
  <outline>
    <contour>
      <point x="387" y="355" type="line"/>
      <point x="650" y="355" type="line"/>
      <point x="680" y="430" type="line"/>
      <point x="285" y="430" type="line"/>
      <point x="283" y="419" type="line"/>
      <point x="309" y="361" type="line"/>
    </contour>
    <contour>
      <point x="668" y="545" type="line"/>
      <point x="670" y="555" type="line"/>
      <point x="639" y="620" type="line"/>
      <point x="34" y="620" type="line"/>
      <point x="32" y="610" type="line"/>
      <point x="63" y="545" type="line"/>
    </contour>
    <contour>
      <point x="309" y="361" type="line"/>
      <point x="360" y="336"/>
      <point x="386" y="297"/>
      <point x="386" y="250" type="curve" smooth="yes"/>
      <point x="386" y="205"/>
      <point x="354" y="166"/>
      <point x="291" y="166" type="curve" smooth="yes"/>
      <point x="203" y="166"/>
      <point x="135" y="265"/>
      <point x="94" y="411" type="curve"/>
      <point x="53" y="394" type="line"/>
      <point x="96" y="235"/>
      <point x="167" y="85"/>
      <point x="313" y="85" type="curve" smooth="yes"/>
      <point x="388" y="85"/>
      <point x="458" y="128"/>
      <point x="458" y="218" type="curve" smooth="yes"/>
      <point x="458" y="267"/>
      <point x="433" y="317"/>
      <point x="387" y="371" type="curve"/>
    </contour>
  </outline>
</glyph>
<glyph name="dJRYa" format="2">
  <advance width="1057"/>
  <outline>
    <contour>
      <point x="305" y="90" type="curve" smooth="yes"/>
      <point x="382" y="90"/>
      <point x="455" y="140"/>
      <point x="455" y="222" type="curve" smooth="yes"/>
      <point x="455" y="277"/>
      <point x="429" y="313"/>
      <point x="387" y="367" type="curve"/>
      <point x="310" y="356" type="line"/>
      <point x="360" y="331"/>
      <point x="382" y="301"/>
      <point x="382" y="262" type="curve" smooth="yes"/>
      <point x="382" y="215"/>
      <point x="349" y="171"/>
      <point x="284" y="171" type="curve" smooth="yes"/>
      <point x="189" y="171"/>
      <point x="135" y="265"/>
      <point x="94" y="411" type="curve"/>
      <point x="53" y="394" type="line"/>
      <point x="96" y="235"/>
      <point x="163" y="90"/>
    </contour>
    <contour>
      <point x="664" y="171" type="line"/>
      <point x="616" y="228" type="line"/>
      <point x="306" y="-14" type="line"/>
      <point x="361" y="-67" type="line"/>
    </contour>
    <contour>
      <point x="653" y="331" type="curve" smooth="yes"/>
      <point x="733" y="331"/>
      <point x="777" y="372"/>
      <point x="777" y="444" type="curve" smooth="yes"/>
      <point x="777" y="481"/>
      <point x="765" y="521"/>
      <point x="749" y="560" type="curve"/>
      <point x="693" y="558" type="line"/>
      <point x="706" y="534"/>
      <point x="714" y="504"/>
      <point x="714" y="478" type="curve" smooth="yes"/>
      <point x="714" y="434"/>
      <point x="689" y="405"/>
      <point x="634" y="405" type="curve" smooth="yes"/>
      <point x="615" y="405"/>
      <point x="580" y="409"/>
      <point x="552" y="425" type="curve"/>
      <point x="286" y="425" type="line"/>
      <point x="284" y="414" type="line"/>
      <point x="310" y="356" type="line"/>
      <point x="388" y="350" type="line"/>
      <point x="565" y="350" type="line"/>
      <point x="603" y="335"/>
      <point x="628" y="331"/>
    </contour>
    <contour>
      <point x="752" y="136" type="curve" smooth="yes"/>
      <point x="794" y="136"/>
      <point x="837" y="148"/>
      <point x="883" y="176" type="curve"/>
      <point x="903" y="279" type="line"/>
      <point x="834" y="226"/>
      <point x="772" y="199"/>
      <point x="723" y="199" type="curve" smooth="yes"/>
      <point x="663" y="199"/>
      <point x="612" y="229"/>
      <point x="612" y="324" type="curve" smooth="yes"/>
      <point x="612" y="335"/>
      <point x="613" y="347"/>
      <point x="614" y="360" type="curve"/>
      <point x="544" y="370" type="line"/>
      <point x="543" y="216"/>
      <point x="647" y="136"/>
    </contour>
    <contour>
      <point x="1142" y="545" type="line"/>
      <point x="1144" y="555" type="line"/>
      <point x="1113" y="620" type="line"/>
      <point x="34" y="620" type="line"/>
      <point x="32" y="610" type="line"/>
      <point x="63" y="545" type="line"/>
    </contour>
    <contour>
      <point x="919" y="-10" type="line"/>
      <point x="1032" y="581" type="line"/>
      <point x="948" y="581" type="line"/>
      <point x="842" y="52" type="line"/>
      <point x="909" y="-10" type="line"/>
    </contour>
  </outline>
</glyph>
<glyph name="dJjyRa" format="2">
  <advance width="587"/>
  <outline>
    <contour>
      <point x="421" y="192" type="line"/>
      <point x="438" y="280" type="line"/>
      <point x="368" y="226"/>
      <point x="305" y="194"/>
      <point x="243" y="194" type="curve" smooth="yes"/>
      <point x="176" y="194"/>
      <point x="134" y="242"/>
      <point x="143" y="302" type="curve"/>
      <point x="263" y="334"/>
      <point x="299" y="377"/>
      <point x="299" y="444" type="curve" smooth="yes"/>
      <point x="299" y="475"/>
      <point x="289" y="514"/>
      <point x="270" y="560" type="curve"/>
      <point x="217" y="560" type="line"/>
      <point x="233" y="528"/>
      <point x="240" y="500"/>
      <point x="240" y="480" type="curve" smooth="yes"/>
      <point x="240" y="423"/>
      <point x="187" y="395"/>
      <point x="68" y="370" type="curve"/>
      <point x="67" y="246"/>
      <point x="153" y="133"/>
      <point x="279" y="133" type="curve"/>
    </contour>
    <contour>
      <point x="435" y="196" type="line"/>
      <point x="219" y="173" type="line"/>
      <point x="213" y="142" type="line"/>
      <point x="47" y="44" type="line"/>
      <point x="97" y="-17" type="line"/>
    </contour>
    <contour>
      <point x="468" y="163" type="line"/>
      <point x="261" y="576" type="line"/>
      <point x="212" y="576" type="line"/>
      <point x="433" y="135" type="line"/>
    </contour>
    <contour>
      <point x="454" y="-10" type="line"/>
      <point x="569" y="591" type="line"/>
      <point x="485" y="591" type="line"/>
      <point x="377" y="52" type="line"/>
      <point x="444" y="-10" type="line"/>
    </contour>
    <contour>
      <point x="672" y="545" type="line"/>
      <point x="674" y="555" type="line"/>
      <point x="643" y="620" type="line"/>
      <point x="34" y="620" type="line"/>
      <point x="32" y="610" type="line"/>
      <point x="63" y="545" type="line"/>
    </contour>
  </outline>
</glyph>
<glyph name="dJjya.post" format="2">
  <advance width="502"/>
  <outline>
    <contour>
      <point x="393" y="581" type="line"/>
      <point x="279" y="17" type="line"/>
      <point x="347" y="-45" type="line"/>
      <point x="357" y="-45" type="line"/>
      <point x="477" y="581" type="line"/>
    </contour>
    <contour>
      <point x="183" y="50" type="curve" smooth="yes"/>
      <point x="224" y="50"/>
      <point x="255" y="58"/>
      <point x="291" y="78" type="curve"/>
      <point x="305" y="70" type="line"/>
      <point x="328" y="189" type="line"/>
      <point x="268" y="140"/>
      <point x="208" y="113"/>
      <point x="156" y="113" type="curve" smooth="yes"/>
      <point x="107" y="113"/>
      <point x="76" y="142"/>
      <point x="83" y="183" type="curve"/>
      <point x="174" y="209"/>
      <point x="234" y="249"/>
      <point x="234" y="322" type="curve" smooth="yes"/>
      <point x="234" y="378"/>
      <point x="191" y="458"/>
      <point x="82" y="458" type="curve" smooth="yes"/>
      <point x="-117" y="458" type="line"/>
      <point x="-116" y="385" type="line"/>
      <point x="104" y="385" type="line" smooth="yes"/>
      <point x="161" y="385"/>
      <point x="172" y="370"/>
      <point x="172" y="353" type="curve" smooth="yes"/>
      <point x="172" y="306"/>
      <point x="117" y="278"/>
      <point x="9" y="251" type="curve"/>
      <point x="7" y="146"/>
      <point x="81" y="50"/>
    </contour>
    <contour>
      <point x="360" y="113" type="line"/>
      <point x="215" y="389" type="line"/>
      <point x="180" y="266" type="line"/>
      <point x="227" y="279" type="line"/>
      <point x="328" y="83" type="line"/>
    </contour>
    <contour>
      <point x="587" y="545" type="line"/>
      <point x="589" y="555" type="line"/>
      <point x="557" y="620" type="line"/>
      <point x="31" y="620" type="line"/>
      <point x="30" y="610" type="line"/>
      <point x="61" y="545" type="line"/>
    </contour>
  </outline>
</glyph>
<glyph name="dKCa" format="2">
  <advance width="1175"/>
  <outline>
    <contour>
      <point x="208" y="133" type="curve" smooth="yes"/>
      <point x="264" y="133"/>
      <point x="305" y="159"/>
      <point x="386" y="209" type="curve" smooth="yes"/>
      <point x="430" y="236"/>
      <point x="506" y="289"/>
      <point x="576" y="289" type="curve" smooth="yes"/>
      <point x="610" y="289"/>
      <point x="651" y="276"/>
      <point x="675" y="226" type="curve"/>
      <point x="687" y="322" type="line"/>
      <point x="661" y="311" type="line"/>
      <point x="635" y="343"/>
      <point x="590" y="365"/>
      <point x="547" y="365" type="curve" smooth="yes"/>
      <point x="510" y="365"/>
      <point x="464" y="352"/>
      <point x="403" y="313" type="curve" smooth="yes"/>
      <point x="297" y="245"/>
      <point x="229" y="197"/>
      <point x="176" y="197" type="curve" smooth="yes"/>
      <point x="142" y="197"/>
      <point x="119" y="216"/>
      <point x="119" y="260" type="curve" smooth="yes"/>
      <point x="119" y="330"/>
      <point x="177" y="373"/>
      <point x="237" y="373" type="curve" smooth="yes"/>
      <point x="291" y="373"/>
      <point x="357" y="337"/>
      <point x="384" y="296" type="curve"/>
      <point x="394" y="346" type="line"/>
      <point x="359" y="401"/>
      <point x="294" y="450"/>
      <point x="214" y="450" type="curve" smooth="yes"/>
      <point x="126" y="450"/>
      <point x="54" y="390"/>
      <point x="54" y="296" type="curve" smooth="yes"/>
      <point x="54" y="214"/>
      <point x="110" y="133"/>
    </contour>
    <contour>
      <point x="403" y="-10" type="line"/>
      <point x="515" y="581" type="line"/>
      <point x="433" y="581" type="line"/>
      <point x="326" y="54" type="line"/>
      <point x="393" y="-10" type="line"/>
    </contour>
    <contour>
      <point x="843" y="128" type="curve" smooth="yes"/>
      <point x="899" y="128"/>
      <point x="960" y="149"/>
      <point x="1008" y="190" type="curve"/>
      <point x="1031" y="305" type="line"/>
      <point x="934" y="221"/>
      <point x="861" y="192"/>
      <point x="810" y="192" type="curve" smooth="yes"/>
      <point x="768" y="192"/>
      <point x="724" y="212"/>
      <point x="724" y="269" type="curve" smooth="yes"/>
      <point x="724" y="345"/>
      <point x="802" y="388"/>
      <point x="952" y="388" type="curve"/>
      <point x="919" y="432" type="line"/>
      <point x="754" y="432" type="line"/>
      <point x="691" y="394"/>
      <point x="660" y="355"/>
      <point x="660" y="293" type="curve" smooth="yes"/>
      <point x="660" y="191"/>
      <point x="746" y="128"/>
    </contour>
    <contour>
      <point x="1260" y="545" type="line"/>
      <point x="1262" y="555" type="line"/>
      <point x="1231" y="620" type="line"/>
      <point x="34" y="620" type="line"/>
      <point x="32" y="610" type="line"/>
      <point x="63" y="545" type="line"/>
    </contour>
    <contour>
      <point x="813" y="388" type="line"/>
      <point x="873" y="406" type="line"/>
      <point x="952" y="388" type="line"/>
      <point x="970" y="388" type="line"/>
      <point x="972" y="398" type="line"/>
      <point x="941" y="462" type="line"/>
      <point x="582" y="462" type="line"/>
      <point x="580" y="452" type="line"/>
      <point x="613" y="387" type="line"/>
    </contour>
    <contour>
      <point x="1037" y="-10" type="line"/>
      <point x="1152" y="591" type="line"/>
      <point x="1068" y="591" type="line"/>
      <point x="960" y="52" type="line"/>
      <point x="1027" y="-10" type="line"/>
    </contour>
  </outline>
</glyph>
